G04*
G04 #@! TF.GenerationSoftware,Altium Limited,Altium Designer,20.0.11 (256)*
G04*
G04 Layer_Color=8388736*
%FSLAX24Y24*%
%MOIN*%
G70*
G01*
G75*
%ADD16R,0.0236X0.0256*%
%ADD17R,0.0256X0.0217*%
%ADD18R,0.0256X0.0236*%
G04:AMPARAMS|DCode=19|XSize=15.7mil|YSize=61mil|CornerRadius=3.7mil|HoleSize=0mil|Usage=FLASHONLY|Rotation=180.000|XOffset=0mil|YOffset=0mil|HoleType=Round|Shape=RoundedRectangle|*
%AMROUNDEDRECTD19*
21,1,0.0157,0.0535,0,0,180.0*
21,1,0.0083,0.0610,0,0,180.0*
1,1,0.0075,-0.0041,0.0268*
1,1,0.0075,0.0041,0.0268*
1,1,0.0075,0.0041,-0.0268*
1,1,0.0075,-0.0041,-0.0268*
%
%ADD19ROUNDEDRECTD19*%
G04:AMPARAMS|DCode=20|XSize=15.7mil|YSize=61mil|CornerRadius=3.7mil|HoleSize=0mil|Usage=FLASHONLY|Rotation=90.000|XOffset=0mil|YOffset=0mil|HoleType=Round|Shape=RoundedRectangle|*
%AMROUNDEDRECTD20*
21,1,0.0157,0.0535,0,0,90.0*
21,1,0.0083,0.0610,0,0,90.0*
1,1,0.0075,0.0268,0.0041*
1,1,0.0075,0.0268,-0.0041*
1,1,0.0075,-0.0268,-0.0041*
1,1,0.0075,-0.0268,0.0041*
%
%ADD20ROUNDEDRECTD20*%
%ADD21R,0.0413X0.0354*%
%ADD22R,0.0236X0.0315*%
%ADD23R,0.0177X0.0315*%
%ADD24R,0.0315X0.0236*%
%ADD25R,0.0315X0.0177*%
%ADD26R,0.0217X0.0256*%
%ADD27R,0.0492X0.0433*%
%ADD28R,0.0551X0.0472*%
%ADD29R,0.0276X0.0413*%
%ADD30R,0.2047X0.0748*%
%ADD31R,0.0539X0.0866*%
%ADD32R,0.0220X0.0319*%
%ADD33R,0.0980X0.0669*%
%ADD34R,0.0866X0.0539*%
%ADD35R,0.0531X0.0787*%
%ADD36R,0.0827X0.0827*%
%ADD37C,0.0827*%
%ADD38O,0.0827X0.0748*%
%ADD39R,0.0827X0.0827*%
%ADD40C,0.1261*%
D16*
X19478Y11191D02*
D03*
X19163D02*
D03*
X18533Y7894D02*
D03*
X18219D02*
D03*
X10010Y19764D02*
D03*
X10325D02*
D03*
X10669Y24075D02*
D03*
X10984D02*
D03*
X11919Y18573D02*
D03*
X11604D02*
D03*
X11014Y19636D02*
D03*
X11329D02*
D03*
X17274Y6014D02*
D03*
X16959D02*
D03*
X17293Y8258D02*
D03*
X17608D02*
D03*
X3091Y14626D02*
D03*
X3406D02*
D03*
X3839D02*
D03*
X4154D02*
D03*
X3740Y12638D02*
D03*
X3425D02*
D03*
X9075Y6319D02*
D03*
X8760D02*
D03*
X5167Y11230D02*
D03*
X4852D02*
D03*
X3425Y6122D02*
D03*
X3110D02*
D03*
X3760Y2234D02*
D03*
X3445D02*
D03*
D17*
X3563Y17185D02*
D03*
Y16831D02*
D03*
X5010Y17175D02*
D03*
Y16821D02*
D03*
X12667Y19646D02*
D03*
Y19291D02*
D03*
X13957Y21841D02*
D03*
Y21486D02*
D03*
X11624Y19301D02*
D03*
Y19656D02*
D03*
X13533Y6407D02*
D03*
Y6762D02*
D03*
X12047Y7047D02*
D03*
Y6693D02*
D03*
X3219Y20541D02*
D03*
Y20187D02*
D03*
X5069Y19882D02*
D03*
Y20236D02*
D03*
X11722Y6388D02*
D03*
Y6033D02*
D03*
X14567Y6230D02*
D03*
Y5876D02*
D03*
X10837Y6781D02*
D03*
Y6427D02*
D03*
X4754Y20965D02*
D03*
Y21319D02*
D03*
X4301Y20974D02*
D03*
Y21329D02*
D03*
X4409Y7894D02*
D03*
Y7539D02*
D03*
D18*
X10148Y5295D02*
D03*
Y4980D02*
D03*
X14970Y5315D02*
D03*
Y5000D02*
D03*
X11919Y19321D02*
D03*
Y19636D02*
D03*
X13937Y23376D02*
D03*
Y23061D02*
D03*
X9646Y21073D02*
D03*
Y20758D02*
D03*
X12293Y19321D02*
D03*
Y19636D02*
D03*
X13868Y6742D02*
D03*
Y6427D02*
D03*
X11722Y6703D02*
D03*
Y7018D02*
D03*
X3543Y20197D02*
D03*
Y20512D02*
D03*
X5404Y20217D02*
D03*
Y19902D02*
D03*
D19*
X10728Y20315D02*
D03*
X10925D02*
D03*
X11122D02*
D03*
X11319D02*
D03*
X11516D02*
D03*
X11713D02*
D03*
X11909D02*
D03*
X12106D02*
D03*
X12303D02*
D03*
X12500D02*
D03*
X12697D02*
D03*
X12894D02*
D03*
Y23484D02*
D03*
X12697D02*
D03*
X12500D02*
D03*
X12303D02*
D03*
X12106D02*
D03*
X11909D02*
D03*
X11713D02*
D03*
X11516D02*
D03*
X11319D02*
D03*
X11122D02*
D03*
X10925D02*
D03*
X10728D02*
D03*
D20*
X13396Y20817D02*
D03*
Y21014D02*
D03*
Y21211D02*
D03*
Y21407D02*
D03*
Y21604D02*
D03*
Y21801D02*
D03*
Y21998D02*
D03*
Y22195D02*
D03*
Y22392D02*
D03*
Y22589D02*
D03*
Y22785D02*
D03*
Y22982D02*
D03*
X10226D02*
D03*
Y22785D02*
D03*
Y22589D02*
D03*
Y22392D02*
D03*
Y22195D02*
D03*
Y21998D02*
D03*
Y21801D02*
D03*
Y21604D02*
D03*
Y21407D02*
D03*
Y21211D02*
D03*
Y21014D02*
D03*
Y20817D02*
D03*
D21*
X16782Y5659D02*
D03*
Y5030D02*
D03*
X17781Y5659D02*
D03*
Y5030D02*
D03*
X4587Y16555D02*
D03*
Y17185D02*
D03*
X4016Y16555D02*
D03*
Y17185D02*
D03*
X4134Y18150D02*
D03*
Y18780D02*
D03*
X4705Y18150D02*
D03*
Y18779D02*
D03*
X12028Y5659D02*
D03*
Y5030D02*
D03*
X13032Y5659D02*
D03*
Y5030D02*
D03*
D22*
X19183Y8986D02*
D03*
X18612D02*
D03*
Y9713D02*
D03*
X19183D02*
D03*
X19163Y11585D02*
D03*
X18593D02*
D03*
Y12311D02*
D03*
X19163D02*
D03*
X17008Y7461D02*
D03*
X17579D02*
D03*
Y6734D02*
D03*
X17008D02*
D03*
D23*
X18901Y8988D02*
D03*
Y9713D02*
D03*
X18881Y11587D02*
D03*
Y12311D02*
D03*
X17290Y7459D02*
D03*
Y6734D02*
D03*
D24*
X18110Y9577D02*
D03*
Y9006D02*
D03*
X17384D02*
D03*
Y9577D02*
D03*
X18091Y12165D02*
D03*
Y11594D02*
D03*
X17364D02*
D03*
Y12165D02*
D03*
X12441Y6457D02*
D03*
Y7028D02*
D03*
X13167D02*
D03*
Y6457D02*
D03*
X4675Y20482D02*
D03*
Y19911D02*
D03*
X3949D02*
D03*
Y20482D02*
D03*
D25*
X18108Y9295D02*
D03*
X17384D02*
D03*
X18089Y11883D02*
D03*
X17364D02*
D03*
X12443Y6739D02*
D03*
X13167D02*
D03*
X4673Y20200D02*
D03*
X3949D02*
D03*
D26*
X9537Y21604D02*
D03*
X9183D02*
D03*
X17018Y19449D02*
D03*
X16663D02*
D03*
X16939Y6329D02*
D03*
X17293D02*
D03*
X17628Y7894D02*
D03*
X17274D02*
D03*
X12894Y6033D02*
D03*
X12539D02*
D03*
X17559Y6014D02*
D03*
X17913D02*
D03*
X17293Y8593D02*
D03*
X17648D02*
D03*
X3199Y19350D02*
D03*
X3553D02*
D03*
X5423D02*
D03*
X5069D02*
D03*
X18612Y6417D02*
D03*
X18967D02*
D03*
X15915Y6437D02*
D03*
X15561D02*
D03*
X4852Y11841D02*
D03*
X5207D02*
D03*
X5118Y7894D02*
D03*
X4764D02*
D03*
D27*
X10502Y18671D02*
D03*
X11191Y19222D02*
D03*
Y18671D02*
D03*
X10502Y19222D02*
D03*
D28*
X14035Y5935D02*
D03*
Y5148D02*
D03*
X11033Y5925D02*
D03*
Y5138D02*
D03*
X18780Y5925D02*
D03*
Y5138D02*
D03*
X15748Y5935D02*
D03*
Y5148D02*
D03*
X4872Y21811D02*
D03*
Y22598D02*
D03*
X4163Y21811D02*
D03*
Y22598D02*
D03*
X5020Y12451D02*
D03*
Y13238D02*
D03*
D29*
X4154Y13081D02*
D03*
X3780D02*
D03*
X3406D02*
D03*
X4154Y14183D02*
D03*
X3406D02*
D03*
D30*
X4026Y10532D02*
D03*
Y8917D02*
D03*
D31*
X8191Y6319D02*
D03*
X6632D02*
D03*
D32*
X3760Y7904D02*
D03*
X3390D02*
D03*
X3020D02*
D03*
X3760Y6722D02*
D03*
X3390D02*
D03*
X3020D02*
D03*
D33*
X3386Y7303D02*
D03*
D34*
X3602Y4402D02*
D03*
Y2843D02*
D03*
D35*
X4301Y11526D02*
D03*
X3159D02*
D03*
X3032Y5364D02*
D03*
X4173D02*
D03*
D36*
X1873Y3364D02*
D03*
X17904Y16441D02*
D03*
D37*
X1873Y4364D02*
D03*
Y5364D02*
D03*
X873Y3364D02*
D03*
Y4364D02*
D03*
Y5364D02*
D03*
Y6364D02*
D03*
Y7364D02*
D03*
Y8364D02*
D03*
X1873Y9364D02*
D03*
X873D02*
D03*
X1873Y10364D02*
D03*
X873D02*
D03*
X1873Y11364D02*
D03*
X873D02*
D03*
X1873Y12364D02*
D03*
X873D02*
D03*
X1873Y13364D02*
D03*
X873D02*
D03*
X1873Y14364D02*
D03*
X873D02*
D03*
X1873Y15364D02*
D03*
X873D02*
D03*
X1873Y16364D02*
D03*
X873D02*
D03*
X1873Y17364D02*
D03*
X873D02*
D03*
X1873Y18364D02*
D03*
X873D02*
D03*
X1873Y19364D02*
D03*
X873D02*
D03*
X1873Y20364D02*
D03*
X873D02*
D03*
X1873Y21364D02*
D03*
X873D02*
D03*
X1873Y22364D02*
D03*
X873D02*
D03*
X16781Y4193D02*
D03*
X17781D02*
D03*
X18781D02*
D03*
X12032D02*
D03*
X13032D02*
D03*
X14031D02*
D03*
X17904Y22441D02*
D03*
Y21441D02*
D03*
Y20441D02*
D03*
Y19441D02*
D03*
Y18441D02*
D03*
Y17441D02*
D03*
X6378Y4193D02*
D03*
X9222D02*
D03*
D38*
X1873Y6364D02*
D03*
Y7364D02*
D03*
Y8364D02*
D03*
D39*
X15781Y4193D02*
D03*
X11032D02*
D03*
X5378D02*
D03*
X8222D02*
D03*
D40*
X20659Y1447D02*
D03*
Y24281D02*
D03*
X1373D02*
D03*
Y1447D02*
D03*
M02*
