M48
;Layer_Color=9474304
;FILE_FORMAT=2:3
INCH,LZ
;TYPE=PLATED
T1F00S00C0.012
T2F00S00C0.039
T3F00S00C0.040
T4F00S00C0.043
%
T01
X01457Y00079
X01535
X01614
X01693
X01772
X0185
X01929
X02008
X01969Y00157
X0189
X01811
X01732
X01654
X01575
X01496
X01535Y00236
X01614
X01693
X01772
X0185
X01929
X02008
X02087
X02126Y00315
X02047
X01969
X0189
X01811
X01732
X01654
X01575
X01496
X01457Y00394
X01469Y00475
Y005
X01457Y00551
X01485Y00623
X01626Y00602
X01639Y00655
X01665Y0067
X01576Y00696
X01654Y00787
X01791Y00789
X0181Y00856
X0186
X0189Y00787
X01969
X02047
X02126
X02087Y00866
X02008
X02047Y00945
X02126
X02087Y01024
X02008
X02047Y01102
X02126
X0183Y0112
X01822Y01066
X0185Y01024
X0189Y01
X01811Y00986
X01774Y01028
X01773Y01127
X01735Y01124
X01654Y01102
Y00945
X01969
X02008Y00709
X02087
X02126Y0063
X02047
X01969
X02008Y00551
X02087
X02126Y00472
X02047
X01969
X02008Y00394
X02087
X01929Y00551
X01825Y00516
X01732Y0054
X01715Y00566
X01732Y00472
X01758Y00643
X01929Y00709
X01457Y00236
X01378
X01299
X0122
X01142
X01063
X00984
X00906
X00827
X00748
X00669
X00591
X00512
X00433
X00472Y00315
X00551
X0063
X00709
X00787
X00866
X00945
X01024
X01102
X01181
X0126
X01339
X01417
Y00157
X01339
X0126
X01181
X01102
X01024
X00945
X00866
X00787
X00709
X0063
X00551
X00472
X00394
X00315
X00236
X00276Y00079
X00354
X00433
X00512
X00591
X00669
X00748
X00827
X00906
X00984
X01063
X01142
X0122
X01299
X01378
X01352Y00518
X01321Y00612
X01252Y00565
X01203Y00603
Y00635
X01131Y00682
X01084Y00709
X01011Y00699
X01048Y0064
X01063Y00551
X01016Y00567
X00946Y00539
X00906Y00551
X00962Y00498
X00985
X00984Y00394
X00748
X00709Y00472
X00669Y00551
X00591
X00512
X00551Y0063
X00599Y00632
X00623
X00737Y00633
X00748Y00709
X00827
X00906
X0095Y00632
X01155Y00525
X01364Y00709
X00669Y00709
X00577Y00746
X00512Y00759
X00433Y00709
X00472Y0063
X00376Y00641
X00354Y00551
X0036Y00503
Y00479
X00354Y00394
X00433
X00472Y00472
X00276Y00394
X00039
Y00236
Y00079
X00197
X00357Y00837
X00369Y00967
X00428Y00955
X00475Y00976
X0039Y01153
X00366
X00316Y01223
X00378Y01348
X00513Y01388
X00551Y01417
X00512Y01496
X00524Y0157
X00506Y01648
X00437Y01619
X00402
X00358Y01627
X00319Y01683
X00315Y01732
X00397Y01762
X00369Y0179
X00443Y0178
X0047Y01756
X00501Y01748
X00512Y01814
X00551Y0189
X00597Y01856
X00668Y01926
X00627Y01976
X0063Y02047
X00709
X00714Y01975
X00763Y02023
X00748Y02126
X00841Y02138
X00869Y0212
X00906Y02126
X00891Y02086
X00965Y02047
X00984Y02015
X0097Y01978
X01001Y01942
X01075Y01964
X01032Y02011
X01037Y0205
X01171Y02085
X01142Y02126
X01243Y02137
X01271Y02152
X01181Y02205
X01102
X01121Y02259
X0102Y0233
X01045Y02366
X01038Y02406
X01098Y02439
X01156Y02493
X01207
X0122Y02441
X01299
X01378
X01401Y02372
X01358Y02329
X01326Y02044
X01373Y01954
X01325Y01906
X01267Y01902
X0123
X01193Y01903
X0122Y01811
X01281Y01829
X01396Y01839
X01063Y01811
X00984
X00908Y01826
X00827Y01811
X0073Y01799
X00719Y01834
X00787Y0189
X00866
X00945
X00906Y01969
Y02283
X00945Y02362
X00906Y02441
X00827
X00748
X00669
X00591
X00512
X00433
X00354
X00276
X00315Y02362
X00394
X00472
X00551
X0063
X00709
X00787
X00748Y02283
X00669
X00591
X0063Y02205
X00551
X00591Y02126
X00512
X00354
X00276
X00315Y02205
X00236
X00276Y02283
X00354
X00236Y02362
X00079
X00039Y02441
Y02283
Y01969
X00276
X00381Y01958
X00413Y01934
X0047Y01933
X00395Y02077
X00236Y0189
X00282Y01819
X00276Y01654
X00282Y01555
X00341Y01495
X00414Y01508
X00039Y01496
Y01181
X00787Y02205
X01427Y02149
X01457Y02126
X01514Y02091
X01548Y02107
Y02067
X01622Y02056
X01623Y02008
X01707Y02001
X01687Y02091
X01654Y02205
X01732
X01693Y02283
X01732Y02362
X01811
X0189
X01969
X02008Y02283
X02087
X02126Y02362
Y02205
X02047
X01969
X0189
X01929Y02283
X0185
Y02441
X01929
X01772
X01693
X01614
X01535
X01457
X01496Y02362
X01575
X01654
X01593Y02266
X01561Y02239
X01535Y02283
X01457
X01425Y02306
X0143Y02344
X01496Y02205
X01479Y02004
X01428Y01975
X01453Y01944
X01425Y01914
X01544Y01887
X01528Y01838
X01616Y01858
X0168Y01909
X01732Y01897
X0189Y0189
X01969
X02047
X02126
X02087Y01969
X02008
X01929
X0185
X0189Y02047
X01969
X02047
X02126
X02087Y02126
X02008
X01929
X0185
Y01811
X01929
X02008
X02087
X02126Y01732
X02047
X01969
X0189
X01929Y01654
X02008
X02087
X02126Y01575
X02047
X01969
X0189
X01811
X0185Y01654
Y01496
X01929
X02008
X02087
X02126Y01417
X02047
X01969
X0189
X01929Y01339
X02008
X02087
X02126Y0126
X02047
X01969
X01859Y01262
X01864Y01196
X0185Y01339
X01693
X01732Y01417
X01654
X01693Y01496
X01654Y01575
Y0126
X01703Y01157
X02008Y01181
X02087
X01547Y01966
T02
X0179Y02144
Y02244
T03
X00087Y00336
X00187
Y00436
Y00536
Y00636
X00087
Y00536
Y00436
Y00736
X00187
Y00836
X00087
Y00936
X00187
Y01036
X00087
Y01136
X00187
Y01236
X00087
Y01336
X00187
Y01436
X00087
Y01536
X00187
Y01636
X00087
Y01736
X00187
Y01836
X00087
Y01936
X00187
Y02036
X00087
Y02136
X00187
Y02236
X00087
T04
X01578Y00419
X01678
X01778
X01878
X01403
X01303
X01203
X01103
X00922
X00822
X00638
X00538
X0179Y01644
Y01744
Y01844
Y01944
Y02044
M30
