G04*
G04 #@! TF.GenerationSoftware,Altium Limited,Altium Designer,20.0.11 (256)*
G04*
G04 Layer_Color=16776960*
%FSLAX24Y24*%
%MOIN*%
G70*
G01*
G75*
%ADD11C,0.0079*%
D11*
X6663Y17657D02*
X6560Y17651D01*
X6459Y17631D01*
X6361Y17597D01*
X6268Y17552D01*
X6182Y17494D01*
X6105Y17426D01*
X6036Y17348D01*
X5979Y17262D01*
X5933Y17170D01*
X5900Y17072D01*
X5880Y16970D01*
X5873Y16867D01*
X16150D02*
X16144Y16970D01*
X16124Y17072D01*
X16090Y17170D01*
X16045Y17262D01*
X15987Y17348D01*
X15919Y17426D01*
X15841Y17494D01*
X15755Y17552D01*
X15663Y17597D01*
X15565Y17631D01*
X15463Y17651D01*
X15360Y17657D01*
Y7364D02*
X15463Y7371D01*
X15565Y7391D01*
X15663Y7424D01*
X15755Y7470D01*
X15841Y7527D01*
X15919Y7596D01*
X15987Y7673D01*
X16045Y7759D01*
X16090Y7852D01*
X16124Y7950D01*
X16144Y8051D01*
X16150Y8154D01*
X5873D02*
X5880Y8051D01*
X5900Y7950D01*
X5933Y7852D01*
X5979Y7759D01*
X6036Y7673D01*
X6105Y7596D01*
X6182Y7527D01*
X6268Y7470D01*
X6361Y7424D01*
X6459Y7391D01*
X6560Y7371D01*
X6663Y7364D01*
Y17657D02*
X15360D01*
X5873Y8154D02*
Y16867D01*
X6663Y7364D02*
X15360D01*
X16150Y8154D02*
Y16867D01*
X0Y25728D02*
X22033D01*
X22033D02*
X22033Y0D01*
X-0Y25728D02*
X0Y0D01*
X22033D01*
M02*
