G04*
G04 #@! TF.GenerationSoftware,Altium Limited,Altium Designer,20.0.11 (256)*
G04*
G04 Layer_Physical_Order=2*
G04 Layer_Color=5485115*
%FSLAX24Y24*%
%MOIN*%
G70*
G01*
G75*
%ADD10C,0.0118*%
%ADD11C,0.0079*%
%ADD61C,0.0157*%
%ADD63C,0.0197*%
%ADD65R,0.0787X0.0787*%
%ADD66C,0.0787*%
%ADD67O,0.0787X0.0709*%
%ADD68R,0.0787X0.0787*%
%ADD69C,0.1181*%
%ADD70C,0.0236*%
G36*
X21872Y161D02*
X161D01*
X161Y25568D01*
X21872D01*
X21872Y161D01*
D02*
G37*
%LPC*%
G36*
X12067Y25132D02*
X11990Y25117D01*
X11925Y25073D01*
X11882Y25008D01*
X11878Y24991D01*
X11857Y24974D01*
X11760Y25000D01*
X11750Y25008D01*
X11707Y25073D01*
X11642Y25117D01*
X11565Y25132D01*
X11488Y25117D01*
X11423Y25073D01*
X11380Y25008D01*
X11364Y24931D01*
X11358Y24924D01*
X9954D01*
X9908Y24914D01*
X9869Y24888D01*
X9869Y24888D01*
X4668Y19687D01*
X4596D01*
X4596Y19687D01*
X4550Y19678D01*
X4511Y19652D01*
X4372Y19513D01*
X4276Y19482D01*
X4211Y19526D01*
X4134Y19541D01*
X4102Y19535D01*
X4030Y19568D01*
X4004Y19608D01*
X3994Y19654D01*
X3951Y19719D01*
X3929Y19733D01*
Y19940D01*
X4032Y20043D01*
X4032Y20043D01*
X4058Y20082D01*
X4067Y20128D01*
X4067Y20128D01*
Y20611D01*
X4089Y20626D01*
X4132Y20691D01*
X4148Y20768D01*
X4132Y20845D01*
X4089Y20910D01*
X4024Y20953D01*
X3947Y20968D01*
X3870Y20953D01*
X3805Y20910D01*
X3761Y20845D01*
X3746Y20768D01*
X3761Y20691D01*
X3805Y20626D01*
X3826Y20611D01*
Y20178D01*
X3724Y20075D01*
X3698Y20036D01*
X3689Y19990D01*
X3689Y19990D01*
Y19733D01*
X3667Y19719D01*
X3624Y19654D01*
X3608Y19577D01*
X3613Y19551D01*
X2740Y18678D01*
X2714Y18639D01*
X2704Y18593D01*
X2704Y18593D01*
Y18345D01*
X2683Y18331D01*
X2639Y18266D01*
X2624Y18189D01*
X2639Y18112D01*
X2683Y18047D01*
X2748Y18004D01*
X2825Y17988D01*
X2902Y18004D01*
X2967Y18047D01*
X3010Y18112D01*
X3026Y18189D01*
X3010Y18266D01*
X2967Y18331D01*
X2945Y18345D01*
Y18543D01*
X3784Y19381D01*
X3809Y19376D01*
X3841Y19382D01*
X3913Y19350D01*
X3939Y19309D01*
X3948Y19264D01*
X3992Y19199D01*
X4057Y19155D01*
X4134Y19140D01*
X4211Y19155D01*
X4276Y19199D01*
X4290Y19220D01*
X4370D01*
X4370Y19220D01*
X4416Y19229D01*
X4423Y19234D01*
X4476Y19245D01*
X4549Y19210D01*
X4563Y19189D01*
X4628Y19145D01*
X4705Y19130D01*
X4782Y19145D01*
X4847Y19189D01*
X4890Y19254D01*
X4905Y19331D01*
X4900Y19356D01*
X10070Y24525D01*
X11781D01*
X11782Y24525D01*
X11828Y24534D01*
X11867Y24561D01*
X12042Y24735D01*
X12067Y24730D01*
X12144Y24746D01*
X12209Y24789D01*
X12252Y24854D01*
X12268Y24931D01*
X12252Y25008D01*
X12209Y25073D01*
X12144Y25117D01*
X12067Y25132D01*
D02*
G37*
G36*
X20659Y24954D02*
X20528Y24941D01*
X20402Y24903D01*
X20286Y24841D01*
X20184Y24757D01*
X20100Y24655D01*
X20038Y24539D01*
X20000Y24413D01*
X19987Y24281D01*
X20000Y24150D01*
X20038Y24024D01*
X20100Y23908D01*
X20184Y23806D01*
X20286Y23722D01*
X20402Y23660D01*
X20528Y23622D01*
X20659Y23609D01*
X20791Y23622D01*
X20917Y23660D01*
X21033Y23722D01*
X21135Y23806D01*
X21219Y23908D01*
X21281Y24024D01*
X21319Y24150D01*
X21332Y24281D01*
X21319Y24413D01*
X21281Y24539D01*
X21219Y24655D01*
X21135Y24757D01*
X21033Y24841D01*
X20917Y24903D01*
X20791Y24941D01*
X20659Y24954D01*
D02*
G37*
G36*
X1373D02*
X1242Y24941D01*
X1116Y24903D01*
X1000Y24841D01*
X898Y24757D01*
X814Y24655D01*
X752Y24539D01*
X714Y24413D01*
X701Y24281D01*
X714Y24150D01*
X752Y24024D01*
X814Y23908D01*
X898Y23806D01*
X1000Y23722D01*
X1116Y23660D01*
X1242Y23622D01*
X1373Y23609D01*
X1504Y23622D01*
X1631Y23660D01*
X1747Y23722D01*
X1849Y23806D01*
X1932Y23908D01*
X1994Y24024D01*
X2033Y24150D01*
X2046Y24281D01*
X2033Y24413D01*
X1994Y24539D01*
X1932Y24655D01*
X1849Y24757D01*
X1747Y24841D01*
X1631Y24903D01*
X1504Y24941D01*
X1373Y24954D01*
D02*
G37*
G36*
X10384Y24266D02*
X10307Y24250D01*
X10242Y24207D01*
X10198Y24142D01*
X10190Y24098D01*
X9532Y23440D01*
X9497Y23388D01*
X9485Y23327D01*
X9485Y23327D01*
Y20633D01*
X8806D01*
X8806Y20633D01*
X8782Y20628D01*
X8697Y20681D01*
X8683Y20698D01*
Y20994D01*
X8691Y21000D01*
X8768Y21015D01*
X8833Y21059D01*
X8876Y21124D01*
X8892Y21201D01*
X8876Y21278D01*
X8833Y21343D01*
X8768Y21386D01*
X8691Y21401D01*
X8614Y21386D01*
X8595Y21433D01*
X8591Y21455D01*
X8547Y21520D01*
X8482Y21563D01*
X8406Y21579D01*
X8329Y21563D01*
X8264Y21520D01*
X8220Y21455D01*
X8205Y21378D01*
X8220Y21301D01*
X8264Y21236D01*
X8285Y21222D01*
Y20627D01*
X5505Y17847D01*
X5176D01*
X5172Y17849D01*
X5164Y17948D01*
X5195Y17954D01*
X5260Y17998D01*
X5304Y18063D01*
X5319Y18140D01*
X5304Y18217D01*
X5260Y18282D01*
X5195Y18325D01*
X5118Y18340D01*
X5041Y18325D01*
X4976Y18282D01*
X4962Y18260D01*
X3593D01*
X3593Y18260D01*
X3547Y18251D01*
X3508Y18225D01*
X3508Y18225D01*
X3370Y18087D01*
X3343Y18047D01*
X3334Y18001D01*
X3334Y18001D01*
Y17806D01*
X3334Y17806D01*
X3343Y17760D01*
X3370Y17721D01*
X3413Y17677D01*
Y17027D01*
X3375Y17002D01*
X3315Y16984D01*
X3266Y17016D01*
X3189Y17031D01*
X3112Y17016D01*
X3047Y16973D01*
X3004Y16908D01*
X2988Y16831D01*
X3004Y16754D01*
X3047Y16689D01*
X3064Y16677D01*
X3084Y16558D01*
X2300Y15774D01*
X2290Y15759D01*
X2278Y15750D01*
X2204Y15731D01*
X2172Y15730D01*
X2111Y15777D01*
X2024Y15813D01*
Y15915D01*
X2111Y15951D01*
X2210Y16027D01*
X2286Y16126D01*
X2333Y16241D01*
X2350Y16364D01*
X2333Y16488D01*
X2286Y16602D01*
X2210Y16701D01*
X2111Y16777D01*
X2024Y16813D01*
Y16915D01*
X2111Y16952D01*
X2210Y17027D01*
X2286Y17126D01*
X2333Y17241D01*
X2350Y17364D01*
X2333Y17488D01*
X2286Y17602D01*
X2210Y17701D01*
X2111Y17777D01*
X2024Y17813D01*
Y17915D01*
X2111Y17952D01*
X2210Y18027D01*
X2286Y18126D01*
X2333Y18241D01*
X2350Y18364D01*
X2333Y18488D01*
X2286Y18602D01*
X2210Y18701D01*
X2111Y18777D01*
X2024Y18813D01*
Y18915D01*
X2111Y18951D01*
X2210Y19027D01*
X2286Y19126D01*
X2333Y19241D01*
X2350Y19364D01*
X2333Y19488D01*
X2286Y19602D01*
X2210Y19701D01*
X2111Y19777D01*
X2024Y19813D01*
Y19915D01*
X2111Y19951D01*
X2210Y20027D01*
X2286Y20126D01*
X2333Y20241D01*
X2350Y20364D01*
X2333Y20488D01*
X2286Y20602D01*
X2210Y20701D01*
X2111Y20777D01*
X2024Y20813D01*
Y20915D01*
X2111Y20951D01*
X2210Y21027D01*
X2286Y21126D01*
X2333Y21241D01*
X2350Y21364D01*
X2333Y21488D01*
X2286Y21602D01*
X2210Y21701D01*
X2111Y21777D01*
X2024Y21813D01*
Y21915D01*
X2111Y21951D01*
X2210Y22027D01*
X2286Y22126D01*
X2333Y22241D01*
X2342Y22305D01*
X1873D01*
Y22364D01*
X1814D01*
Y22833D01*
X1750Y22824D01*
X1635Y22777D01*
X1536Y22701D01*
X1460Y22602D01*
X1424Y22515D01*
X1322D01*
X1286Y22602D01*
X1210Y22701D01*
X1111Y22777D01*
X996Y22824D01*
X873Y22841D01*
X750Y22824D01*
X635Y22777D01*
X536Y22701D01*
X460Y22602D01*
X413Y22488D01*
X397Y22364D01*
X413Y22241D01*
X460Y22126D01*
X536Y22027D01*
X635Y21951D01*
X722Y21915D01*
Y21813D01*
X635Y21777D01*
X536Y21701D01*
X460Y21602D01*
X413Y21488D01*
X397Y21364D01*
X413Y21241D01*
X460Y21126D01*
X536Y21027D01*
X635Y20951D01*
X722Y20915D01*
Y20813D01*
X635Y20777D01*
X536Y20701D01*
X460Y20602D01*
X413Y20488D01*
X397Y20364D01*
X413Y20241D01*
X460Y20126D01*
X536Y20027D01*
X635Y19951D01*
X722Y19915D01*
Y19813D01*
X635Y19777D01*
X536Y19701D01*
X460Y19602D01*
X413Y19488D01*
X404Y19423D01*
X873D01*
Y19305D01*
X404D01*
X413Y19241D01*
X460Y19126D01*
X536Y19027D01*
X635Y18951D01*
X722Y18915D01*
Y18813D01*
X635Y18777D01*
X536Y18701D01*
X460Y18602D01*
X413Y18488D01*
X397Y18364D01*
X413Y18241D01*
X460Y18126D01*
X536Y18027D01*
X635Y17952D01*
X722Y17915D01*
Y17813D01*
X635Y17777D01*
X536Y17701D01*
X460Y17602D01*
X413Y17488D01*
X404Y17423D01*
X873D01*
Y17305D01*
X404D01*
X413Y17241D01*
X460Y17126D01*
X536Y17027D01*
X635Y16952D01*
X722Y16915D01*
Y16813D01*
X635Y16777D01*
X536Y16701D01*
X460Y16602D01*
X413Y16488D01*
X397Y16364D01*
X413Y16241D01*
X460Y16126D01*
X536Y16027D01*
X635Y15951D01*
X722Y15915D01*
Y15813D01*
X635Y15777D01*
X536Y15701D01*
X460Y15602D01*
X413Y15488D01*
X397Y15364D01*
X413Y15241D01*
X460Y15126D01*
X536Y15027D01*
X635Y14951D01*
X722Y14915D01*
Y14813D01*
X635Y14777D01*
X536Y14701D01*
X460Y14602D01*
X413Y14488D01*
X397Y14364D01*
X413Y14241D01*
X460Y14126D01*
X536Y14027D01*
X635Y13951D01*
X722Y13915D01*
Y13813D01*
X635Y13777D01*
X536Y13701D01*
X460Y13602D01*
X413Y13488D01*
X397Y13364D01*
X413Y13241D01*
X460Y13126D01*
X536Y13027D01*
X635Y12952D01*
X722Y12915D01*
Y12813D01*
X635Y12777D01*
X536Y12701D01*
X460Y12602D01*
X413Y12488D01*
X404Y12423D01*
X873D01*
Y12305D01*
X404D01*
X413Y12241D01*
X460Y12126D01*
X536Y12027D01*
X635Y11952D01*
X722Y11915D01*
Y11813D01*
X635Y11777D01*
X536Y11701D01*
X460Y11602D01*
X413Y11488D01*
X397Y11364D01*
X413Y11241D01*
X460Y11126D01*
X536Y11027D01*
X635Y10951D01*
X722Y10915D01*
Y10813D01*
X635Y10777D01*
X536Y10701D01*
X460Y10602D01*
X413Y10488D01*
X397Y10364D01*
X413Y10241D01*
X460Y10126D01*
X536Y10027D01*
X635Y9952D01*
X722Y9915D01*
Y9813D01*
X635Y9777D01*
X536Y9701D01*
X460Y9602D01*
X413Y9488D01*
X404Y9423D01*
X873D01*
Y9305D01*
X404D01*
X413Y9241D01*
X460Y9126D01*
X536Y9027D01*
X635Y8952D01*
X722Y8915D01*
Y8813D01*
X635Y8777D01*
X536Y8701D01*
X460Y8602D01*
X413Y8487D01*
X397Y8364D01*
X413Y8241D01*
X460Y8126D01*
X536Y8027D01*
X635Y7951D01*
X722Y7915D01*
Y7813D01*
X635Y7777D01*
X536Y7701D01*
X460Y7602D01*
X413Y7487D01*
X397Y7364D01*
X413Y7241D01*
X460Y7126D01*
X536Y7027D01*
X635Y6952D01*
X722Y6915D01*
Y6813D01*
X635Y6777D01*
X536Y6701D01*
X460Y6602D01*
X413Y6488D01*
X397Y6364D01*
X413Y6241D01*
X460Y6126D01*
X536Y6027D01*
X635Y5951D01*
X722Y5915D01*
Y5813D01*
X635Y5777D01*
X536Y5701D01*
X460Y5602D01*
X413Y5487D01*
X404Y5423D01*
X873D01*
Y5305D01*
X404D01*
X413Y5241D01*
X460Y5126D01*
X536Y5027D01*
X635Y4951D01*
X722Y4915D01*
Y4813D01*
X635Y4777D01*
X536Y4701D01*
X460Y4602D01*
X413Y4487D01*
X397Y4364D01*
X413Y4241D01*
X460Y4126D01*
X536Y4027D01*
X635Y3952D01*
X722Y3915D01*
Y3813D01*
X635Y3777D01*
X536Y3701D01*
X460Y3602D01*
X413Y3487D01*
X397Y3364D01*
X413Y3241D01*
X460Y3126D01*
X536Y3027D01*
X635Y2952D01*
X750Y2904D01*
X873Y2888D01*
X996Y2904D01*
X1111Y2952D01*
X1210Y3027D01*
X1286Y3126D01*
X1302Y3166D01*
X1401Y3146D01*
Y2892D01*
X2346D01*
Y3837D01*
X2091D01*
X2072Y3935D01*
X2111Y3952D01*
X2210Y4027D01*
X2286Y4126D01*
X2333Y4241D01*
X2350Y4364D01*
X2333Y4487D01*
X2286Y4602D01*
X2284Y4605D01*
X2713Y5034D01*
X2739Y5073D01*
X2748Y5119D01*
Y6858D01*
X2796Y6896D01*
X2894Y6852D01*
Y5597D01*
X2905Y5544D01*
X2935Y5498D01*
X3402Y5031D01*
X3402Y5030D01*
X3417Y4953D01*
X3445Y4911D01*
X3417Y4870D01*
X3402Y4793D01*
X3417Y4716D01*
X3460Y4651D01*
X3526Y4608D01*
X3602Y4593D01*
X3679Y4608D01*
X3744Y4651D01*
X3788Y4716D01*
X3803Y4793D01*
X3788Y4870D01*
X3760Y4911D01*
X3788Y4953D01*
X3803Y5030D01*
X3788Y5106D01*
X3744Y5171D01*
X3679Y5215D01*
X3602Y5230D01*
X3601Y5230D01*
X3175Y5656D01*
Y6693D01*
X3266Y6731D01*
X3564Y6433D01*
X3559Y6407D01*
X3574Y6331D01*
X3618Y6266D01*
X3683Y6222D01*
X3760Y6207D01*
X3837Y6222D01*
X3902Y6266D01*
X3945Y6331D01*
X3961Y6407D01*
X3945Y6484D01*
X3902Y6549D01*
X3837Y6593D01*
X3760Y6608D01*
X3734Y6603D01*
X3332Y7005D01*
Y11863D01*
X3520Y12051D01*
X3520Y12051D01*
X3546Y12090D01*
X3555Y12136D01*
X3555Y12136D01*
Y12323D01*
X3555Y12323D01*
X3546Y12369D01*
X3520Y12408D01*
X3520Y12408D01*
X3135Y12793D01*
Y14834D01*
X3234Y14854D01*
X3264Y14809D01*
X3329Y14765D01*
X3373Y14757D01*
X5233Y12896D01*
Y11352D01*
X5142Y11314D01*
X4803Y11653D01*
X4744Y11692D01*
X4675Y11706D01*
X3982D01*
X3974Y11711D01*
X3898Y11726D01*
X3821Y11711D01*
X3814Y11706D01*
X3745D01*
X3738Y11711D01*
X3661Y11726D01*
X3585Y11711D01*
X3519Y11668D01*
X3476Y11602D01*
X3461Y11526D01*
X3476Y11449D01*
X3519Y11384D01*
X3585Y11340D01*
X3661Y11325D01*
X3738Y11340D01*
X3745Y11345D01*
X3814D01*
X3821Y11340D01*
X3898Y11325D01*
X3974Y11340D01*
X3982Y11345D01*
X4600D01*
X4937Y11008D01*
Y7673D01*
X4933Y7665D01*
X4917Y7589D01*
X4933Y7512D01*
X4937Y7505D01*
Y7193D01*
X4951Y7124D01*
X4990Y7065D01*
X5805Y6251D01*
X5807Y6242D01*
X5850Y6177D01*
X5915Y6133D01*
X5992Y6118D01*
X6069Y6133D01*
X6076Y6138D01*
X6144D01*
X6152Y6133D01*
X6228Y6118D01*
X6305Y6133D01*
X6370Y6177D01*
X6414Y6242D01*
X6415Y6250D01*
X6522Y6282D01*
X7938Y4867D01*
X7938Y4867D01*
X7990Y4832D01*
X8051Y4820D01*
X9502D01*
X9539Y4795D01*
X9616Y4780D01*
X9693Y4795D01*
X9730Y4820D01*
X9738D01*
X9776Y4795D01*
X9819Y4786D01*
X9857Y4749D01*
X9857Y4749D01*
X9909Y4714D01*
X9970Y4702D01*
X9970Y4702D01*
X10476D01*
X10559Y4665D01*
X10559Y4603D01*
Y3720D01*
X11504D01*
Y3975D01*
X11602Y3994D01*
X11619Y3955D01*
X11695Y3856D01*
X11793Y3780D01*
X11908Y3733D01*
X12032Y3716D01*
X12155Y3733D01*
X12270Y3780D01*
X12368Y3856D01*
X12444Y3955D01*
X12480Y4042D01*
X12583D01*
X12619Y3955D01*
X12695Y3856D01*
X12793Y3780D01*
X12908Y3733D01*
X13032Y3716D01*
X13155Y3733D01*
X13270Y3780D01*
X13368Y3856D01*
X13444Y3955D01*
X13480Y4042D01*
X13583D01*
X13619Y3955D01*
X13695Y3856D01*
X13793Y3780D01*
X13908Y3733D01*
X13972Y3724D01*
Y4193D01*
X14031D01*
Y4252D01*
X14500D01*
X14492Y4316D01*
X14444Y4431D01*
X14388Y4505D01*
X14418Y4587D01*
X14431Y4603D01*
X14566D01*
X14618Y4569D01*
X14695Y4553D01*
X14772Y4569D01*
X14837Y4612D01*
X14880Y4677D01*
X14896Y4754D01*
X14890Y4781D01*
X14953Y4873D01*
X14963Y4880D01*
X15335D01*
X15335Y4880D01*
X15381Y4889D01*
X15420Y4915D01*
X16099Y5594D01*
X16125Y5633D01*
X16134Y5679D01*
Y5761D01*
X16233Y5828D01*
X16260Y5823D01*
X16337Y5838D01*
X16402Y5882D01*
X16403Y5883D01*
X16949D01*
X16974Y5846D01*
X16993Y5785D01*
X16960Y5736D01*
X16945Y5659D01*
X16960Y5583D01*
X17004Y5518D01*
X17069Y5474D01*
X17130Y5462D01*
X17117Y5396D01*
X17132Y5319D01*
X17176Y5254D01*
X17241Y5210D01*
X17318Y5195D01*
X17394Y5210D01*
X17460Y5254D01*
X17503Y5319D01*
X17518Y5396D01*
X17513Y5421D01*
X17575Y5483D01*
X17601Y5522D01*
X17611Y5568D01*
X17611Y5568D01*
Y5731D01*
X17989Y6110D01*
X18077Y6198D01*
X18077Y6198D01*
X18103Y6237D01*
X18113Y6283D01*
Y6719D01*
X18313Y6920D01*
X18313Y6920D01*
X18340Y6959D01*
X18349Y7005D01*
X18349Y7005D01*
Y7523D01*
X18412Y7586D01*
X18438Y7625D01*
X18447Y7671D01*
X18447Y7671D01*
Y8312D01*
X18477Y8337D01*
X18546Y8374D01*
X18602Y8362D01*
X18679Y8378D01*
X18744Y8421D01*
X18788Y8486D01*
X18803Y8563D01*
X18788Y8640D01*
X18744Y8705D01*
X18723Y8719D01*
Y9074D01*
X19396Y9748D01*
X19396Y9748D01*
X19422Y9787D01*
X19431Y9833D01*
Y10147D01*
X19431Y10147D01*
X19422Y10193D01*
X19396Y10232D01*
X19396Y10232D01*
X18811Y10817D01*
Y11155D01*
X18811Y11155D01*
Y11423D01*
X18811Y11423D01*
X18802Y11470D01*
X18776Y11509D01*
X18776Y11509D01*
X18319Y11966D01*
Y15138D01*
X18310Y15184D01*
X18284Y15223D01*
X17629Y15878D01*
X17667Y15969D01*
X18376D01*
Y16913D01*
X18122D01*
X18102Y17012D01*
X18142Y17028D01*
X18240Y17104D01*
X18316Y17203D01*
X18364Y17318D01*
X18380Y17441D01*
X18364Y17564D01*
X18316Y17679D01*
X18240Y17778D01*
X18142Y17854D01*
X18055Y17890D01*
Y17992D01*
X18142Y18028D01*
X18240Y18104D01*
X18316Y18203D01*
X18364Y18318D01*
X18380Y18441D01*
X18364Y18564D01*
X18316Y18679D01*
X18240Y18778D01*
X18142Y18854D01*
X18055Y18890D01*
Y18992D01*
X18142Y19028D01*
X18240Y19104D01*
X18316Y19203D01*
X18364Y19318D01*
X18380Y19441D01*
X18364Y19564D01*
X18316Y19679D01*
X18240Y19778D01*
X18142Y19854D01*
X18055Y19890D01*
Y19992D01*
X18142Y20028D01*
X18240Y20104D01*
X18316Y20203D01*
X18364Y20318D01*
X18380Y20441D01*
X18364Y20564D01*
X18316Y20679D01*
X18240Y20778D01*
X18142Y20854D01*
X18055Y20890D01*
Y20992D01*
X18142Y21028D01*
X18240Y21104D01*
X18316Y21203D01*
X18364Y21318D01*
X18380Y21441D01*
X18364Y21564D01*
X18316Y21679D01*
X18240Y21778D01*
X18142Y21854D01*
X18055Y21890D01*
Y21992D01*
X18142Y22028D01*
X18240Y22104D01*
X18316Y22203D01*
X18364Y22318D01*
X18372Y22382D01*
X17904D01*
X17435D01*
X17443Y22318D01*
X17491Y22203D01*
X17567Y22104D01*
X17665Y22028D01*
X17752Y21992D01*
Y21890D01*
X17665Y21854D01*
X17567Y21778D01*
X17491Y21679D01*
X17443Y21564D01*
X17427Y21441D01*
X17443Y21318D01*
X17491Y21203D01*
X17567Y21104D01*
X17665Y21028D01*
X17752Y20992D01*
Y20890D01*
X17665Y20854D01*
X17567Y20778D01*
X17491Y20679D01*
X17443Y20564D01*
X17427Y20441D01*
X17443Y20318D01*
X17491Y20203D01*
X17567Y20104D01*
X17665Y20028D01*
X17752Y19992D01*
Y19890D01*
X17665Y19854D01*
X17567Y19778D01*
X17491Y19679D01*
X17443Y19564D01*
X17427Y19441D01*
X17443Y19318D01*
X17491Y19203D01*
X17567Y19104D01*
X17665Y19028D01*
X17752Y18992D01*
Y18890D01*
X17665Y18854D01*
X17567Y18778D01*
X17491Y18679D01*
X17443Y18564D01*
X17427Y18441D01*
X17443Y18318D01*
X17491Y18203D01*
X17567Y18104D01*
X17665Y18028D01*
X17752Y17992D01*
Y17890D01*
X17665Y17854D01*
X17574Y17784D01*
X17557Y17777D01*
X17543Y17775D01*
X17449Y17786D01*
X16922Y18313D01*
Y18938D01*
X16943Y18953D01*
X16987Y19018D01*
X17002Y19094D01*
X16987Y19171D01*
X16943Y19236D01*
X16878Y19280D01*
X16801Y19295D01*
X16724Y19280D01*
X16659Y19236D01*
X16616Y19171D01*
X16600Y19094D01*
X16616Y19018D01*
X16659Y18953D01*
X16681Y18938D01*
Y18511D01*
X16582Y18463D01*
X16538Y18498D01*
Y18907D01*
X16529Y18954D01*
X16502Y18993D01*
X16502Y18993D01*
X16351Y19144D01*
Y19922D01*
X16372Y19937D01*
X16416Y20002D01*
X16431Y20079D01*
X16416Y20156D01*
X16372Y20221D01*
X16307Y20264D01*
X16230Y20279D01*
X16154Y20264D01*
X16144Y20258D01*
X16046Y20310D01*
Y22501D01*
X16067Y22516D01*
X16111Y22581D01*
X16126Y22657D01*
X16111Y22734D01*
X16067Y22799D01*
X16002Y22843D01*
X15925Y22858D01*
X15848Y22843D01*
X15783Y22799D01*
X15740Y22734D01*
X15725Y22662D01*
X15723Y22656D01*
X15638Y22587D01*
X15610Y22592D01*
X15533Y22577D01*
X15468Y22534D01*
X15425Y22469D01*
X15410Y22392D01*
X15425Y22315D01*
X15468Y22250D01*
X15533Y22206D01*
X15610Y22191D01*
X15647Y22098D01*
Y21318D01*
X15568Y21264D01*
X15549Y21260D01*
X15482Y21274D01*
X15457Y21268D01*
X14052Y22674D01*
X14013Y22700D01*
X13967Y22709D01*
X13967Y22709D01*
X11367D01*
X11353Y22731D01*
X11287Y22774D01*
X11211Y22789D01*
X11134Y22774D01*
X11069Y22731D01*
X11025Y22665D01*
X11010Y22589D01*
X11025Y22512D01*
X11069Y22447D01*
X11134Y22403D01*
X11211Y22388D01*
X11287Y22403D01*
X11353Y22447D01*
X11367Y22468D01*
X13917D01*
X15188Y21197D01*
X15140Y21106D01*
X15138Y21106D01*
X15061Y21091D01*
X14996Y21047D01*
X14952Y20982D01*
X14937Y20906D01*
X14952Y20829D01*
X14996Y20764D01*
X15017Y20749D01*
Y19282D01*
X14488Y18752D01*
X12805D01*
X12775Y18851D01*
X12809Y18874D01*
X12853Y18939D01*
X12868Y19016D01*
X12853Y19093D01*
X12828Y19130D01*
Y19528D01*
X12816Y19589D01*
X12781Y19641D01*
X12200Y20222D01*
X12148Y20257D01*
X12087Y20269D01*
X12087Y20269D01*
X10439D01*
X10402Y20294D01*
X10358Y20302D01*
X10074Y20586D01*
X10022Y20621D01*
X9961Y20633D01*
X9961Y20633D01*
X9806D01*
Y23260D01*
X10417Y23871D01*
X10461Y23880D01*
X10498Y23904D01*
X13182D01*
X14058Y23028D01*
X14067Y22984D01*
X14110Y22919D01*
X14175Y22876D01*
X14252Y22860D01*
X14329Y22876D01*
X14394Y22919D01*
X14437Y22984D01*
X14453Y23061D01*
X14437Y23138D01*
X14394Y23203D01*
X14329Y23246D01*
X14285Y23255D01*
X13362Y24179D01*
X13309Y24213D01*
X13248Y24226D01*
X13248Y24226D01*
X10498D01*
X10461Y24250D01*
X10384Y24266D01*
D02*
G37*
G36*
X17963Y22910D02*
Y22500D01*
X18372D01*
X18364Y22564D01*
X18316Y22679D01*
X18240Y22778D01*
X18142Y22854D01*
X18027Y22901D01*
X17963Y22910D01*
D02*
G37*
G36*
X17844D02*
X17780Y22901D01*
X17665Y22854D01*
X17567Y22778D01*
X17491Y22679D01*
X17443Y22564D01*
X17435Y22500D01*
X17844D01*
Y22910D01*
D02*
G37*
G36*
X1932Y22833D02*
Y22423D01*
X2342D01*
X2333Y22488D01*
X2286Y22602D01*
X2210Y22701D01*
X2111Y22777D01*
X1996Y22824D01*
X1932Y22833D01*
D02*
G37*
G36*
X11713Y21047D02*
X11636Y21032D01*
X11571Y20988D01*
X11527Y20923D01*
X11512Y20846D01*
X11527Y20770D01*
X11571Y20705D01*
X11636Y20661D01*
X11713Y20646D01*
X11789Y20661D01*
X11855Y20705D01*
X11869Y20726D01*
X12804D01*
X13062Y20468D01*
X13057Y20443D01*
X13072Y20366D01*
X13116Y20301D01*
X13181Y20257D01*
X13258Y20242D01*
X13335Y20257D01*
X13400Y20301D01*
X13443Y20366D01*
X13459Y20443D01*
X13443Y20520D01*
X13400Y20585D01*
X13335Y20628D01*
X13258Y20644D01*
X13233Y20639D01*
X12939Y20932D01*
X12900Y20958D01*
X12854Y20967D01*
X12854Y20967D01*
X11869D01*
X11855Y20988D01*
X11789Y21032D01*
X11713Y21047D01*
D02*
G37*
G36*
X12709Y21718D02*
X12632Y21702D01*
X12567Y21659D01*
X12523Y21594D01*
X12431Y21569D01*
X12354Y21554D01*
X12289Y21510D01*
X12246Y21445D01*
X12230Y21368D01*
X12246Y21291D01*
X12289Y21226D01*
X12354Y21183D01*
X12431Y21167D01*
X12456Y21172D01*
X12464Y21165D01*
X12464Y21165D01*
X12503Y21139D01*
X12549Y21130D01*
X12549Y21130D01*
X12825D01*
X12825Y21130D01*
X12871Y21139D01*
X12910Y21165D01*
X12984Y21239D01*
X13585D01*
X14161Y20662D01*
Y19910D01*
X14140Y19896D01*
X14096Y19831D01*
X14081Y19754D01*
X14096Y19677D01*
X14140Y19612D01*
X14205Y19569D01*
X14258Y19558D01*
X14287Y19543D01*
X14332Y19463D01*
X14327Y19439D01*
X14342Y19362D01*
X14386Y19297D01*
X14451Y19254D01*
X14528Y19238D01*
X14604Y19254D01*
X14669Y19297D01*
X14713Y19362D01*
X14728Y19439D01*
X14713Y19516D01*
X14669Y19581D01*
X14648Y19595D01*
Y19843D01*
X14639Y19889D01*
X14613Y19928D01*
X14613Y19928D01*
X14559Y19981D01*
Y20778D01*
X14559Y20778D01*
X14550Y20824D01*
X14524Y20863D01*
X14524Y20863D01*
X13785Y21602D01*
X13746Y21628D01*
X13700Y21637D01*
X13700Y21637D01*
X12865D01*
X12851Y21659D01*
X12786Y21702D01*
X12709Y21718D01*
D02*
G37*
G36*
X17781Y4669D02*
X17658Y4653D01*
X17543Y4606D01*
X17445Y4530D01*
X17369Y4431D01*
X17333Y4344D01*
X17230D01*
X17194Y4431D01*
X17118Y4530D01*
X17020Y4606D01*
X16905Y4653D01*
X16781Y4669D01*
X16658Y4653D01*
X16543Y4606D01*
X16445Y4530D01*
X16369Y4431D01*
X16352Y4391D01*
X16254Y4411D01*
Y4665D01*
X15309D01*
Y3720D01*
X16254D01*
Y3975D01*
X16352Y3994D01*
X16369Y3955D01*
X16445Y3856D01*
X16543Y3780D01*
X16658Y3733D01*
X16781Y3716D01*
X16905Y3733D01*
X17020Y3780D01*
X17118Y3856D01*
X17194Y3955D01*
X17230Y4042D01*
X17333D01*
X17369Y3955D01*
X17445Y3856D01*
X17543Y3780D01*
X17658Y3733D01*
X17781Y3716D01*
X17905Y3733D01*
X18020Y3780D01*
X18118Y3856D01*
X18194Y3955D01*
X18230Y4042D01*
X18333D01*
X18369Y3955D01*
X18445Y3856D01*
X18543Y3780D01*
X18658Y3733D01*
X18722Y3724D01*
Y4193D01*
Y4662D01*
X18658Y4653D01*
X18543Y4606D01*
X18445Y4530D01*
X18369Y4431D01*
X18333Y4344D01*
X18230D01*
X18194Y4431D01*
X18118Y4530D01*
X18020Y4606D01*
X17905Y4653D01*
X17781Y4669D01*
D02*
G37*
G36*
X18841Y4662D02*
Y4252D01*
X19250D01*
X19242Y4316D01*
X19194Y4431D01*
X19118Y4530D01*
X19020Y4606D01*
X18905Y4653D01*
X18841Y4662D01*
D02*
G37*
G36*
X9281D02*
Y4252D01*
X9691D01*
X9683Y4316D01*
X9635Y4431D01*
X9559Y4530D01*
X9461Y4606D01*
X9346Y4653D01*
X9281Y4662D01*
D02*
G37*
G36*
X6437D02*
Y4252D01*
X6847D01*
X6838Y4316D01*
X6791Y4431D01*
X6715Y4530D01*
X6616Y4606D01*
X6501Y4653D01*
X6437Y4662D01*
D02*
G37*
G36*
X19250Y4134D02*
X18841D01*
Y3724D01*
X18905Y3733D01*
X19020Y3780D01*
X19118Y3856D01*
X19194Y3955D01*
X19242Y4070D01*
X19250Y4134D01*
D02*
G37*
G36*
X14500D02*
X14091D01*
Y3724D01*
X14155Y3733D01*
X14270Y3780D01*
X14368Y3856D01*
X14444Y3955D01*
X14492Y4070D01*
X14500Y4134D01*
D02*
G37*
G36*
X9691D02*
X9281D01*
Y3724D01*
X9346Y3733D01*
X9461Y3780D01*
X9559Y3856D01*
X9635Y3955D01*
X9683Y4070D01*
X9691Y4134D01*
D02*
G37*
G36*
X8695Y4665D02*
X7750D01*
Y3720D01*
X8695D01*
Y3975D01*
X8793Y3994D01*
X8810Y3955D01*
X8885Y3856D01*
X8984Y3780D01*
X9099Y3733D01*
X9163Y3724D01*
Y4193D01*
Y4662D01*
X9099Y4653D01*
X8984Y4606D01*
X8885Y4530D01*
X8810Y4431D01*
X8793Y4391D01*
X8695Y4411D01*
Y4665D01*
D02*
G37*
G36*
X6847Y4134D02*
X6437D01*
Y3724D01*
X6501Y3733D01*
X6616Y3780D01*
X6715Y3856D01*
X6791Y3955D01*
X6838Y4070D01*
X6847Y4134D01*
D02*
G37*
G36*
X5850Y4665D02*
X4906D01*
Y3720D01*
X5850D01*
Y3975D01*
X5949Y3994D01*
X5965Y3955D01*
X6041Y3856D01*
X6140Y3780D01*
X6255Y3733D01*
X6319Y3724D01*
Y4193D01*
Y4662D01*
X6255Y4653D01*
X6140Y4606D01*
X6041Y4530D01*
X5965Y4431D01*
X5949Y4391D01*
X5850Y4411D01*
Y4665D01*
D02*
G37*
G36*
X20659Y2119D02*
X20528Y2106D01*
X20402Y2068D01*
X20286Y2006D01*
X20184Y1922D01*
X20100Y1820D01*
X20038Y1704D01*
X20000Y1578D01*
X19987Y1447D01*
X20000Y1316D01*
X20038Y1189D01*
X20100Y1073D01*
X20184Y971D01*
X20286Y888D01*
X20402Y826D01*
X20528Y787D01*
X20659Y774D01*
X20791Y787D01*
X20917Y826D01*
X21033Y888D01*
X21135Y971D01*
X21219Y1073D01*
X21281Y1189D01*
X21319Y1316D01*
X21332Y1447D01*
X21319Y1578D01*
X21281Y1704D01*
X21219Y1820D01*
X21135Y1922D01*
X21033Y2006D01*
X20917Y2068D01*
X20791Y2106D01*
X20659Y2119D01*
D02*
G37*
G36*
X1373D02*
X1242Y2106D01*
X1116Y2068D01*
X1000Y2006D01*
X898Y1922D01*
X814Y1820D01*
X752Y1704D01*
X714Y1578D01*
X701Y1447D01*
X714Y1316D01*
X752Y1189D01*
X814Y1073D01*
X898Y971D01*
X1000Y888D01*
X1116Y826D01*
X1242Y787D01*
X1373Y774D01*
X1504Y787D01*
X1631Y826D01*
X1747Y888D01*
X1849Y971D01*
X1932Y1073D01*
X1994Y1189D01*
X2033Y1316D01*
X2046Y1447D01*
X2033Y1578D01*
X1994Y1704D01*
X1932Y1820D01*
X1849Y1922D01*
X1747Y2006D01*
X1631Y2068D01*
X1504Y2106D01*
X1373Y2119D01*
D02*
G37*
%LPD*%
G36*
X10131Y20075D02*
X10139Y20031D01*
X10183Y19966D01*
X10248Y19923D01*
X10325Y19908D01*
X10402Y19923D01*
X10439Y19948D01*
X12020D01*
X12507Y19461D01*
Y19130D01*
X12482Y19093D01*
X12467Y19016D01*
X12482Y18939D01*
X12525Y18874D01*
X12560Y18851D01*
X12530Y18752D01*
X7943D01*
X7943Y18752D01*
X7897Y18743D01*
X7858Y18717D01*
X7329Y18188D01*
X7303Y18193D01*
X7226Y18178D01*
X7161Y18134D01*
X7118Y18069D01*
X7102Y17992D01*
X7118Y17915D01*
X7064Y17818D01*
X6586D01*
X6570Y17815D01*
X6554D01*
X6505Y17805D01*
X6456Y17896D01*
X8872Y20312D01*
X9532D01*
X9569Y20287D01*
X9646Y20272D01*
X9722Y20287D01*
X9760Y20312D01*
X9894D01*
X10131Y20075D01*
D02*
G37*
G36*
X15482Y20872D02*
X15549Y20885D01*
X15568Y20881D01*
X15647Y20828D01*
Y18406D01*
X15647Y18406D01*
X15656Y18359D01*
X15683Y18320D01*
X16622Y17381D01*
Y16112D01*
Y15926D01*
X16622Y15926D01*
X16631Y15880D01*
X16657Y15841D01*
X17606Y14892D01*
Y11426D01*
X17584Y11412D01*
X17541Y11346D01*
X17526Y11270D01*
X17541Y11193D01*
X17584Y11128D01*
X17586Y11109D01*
X17297Y10820D01*
X17297Y10820D01*
X17051Y10574D01*
X17025Y10535D01*
X17015Y10488D01*
X17015Y10488D01*
Y7999D01*
X16045Y7029D01*
X16009Y7031D01*
X15931Y7054D01*
X15900Y7101D01*
X15835Y7144D01*
X15758Y7159D01*
X15681Y7144D01*
X15616Y7101D01*
X15575Y7040D01*
X14537D01*
X14537Y7040D01*
X14491Y7031D01*
X14452Y7004D01*
X14452Y7004D01*
X14369Y6922D01*
X13887D01*
X13833Y7001D01*
X13829Y7020D01*
X13842Y7087D01*
X13839Y7105D01*
X13910Y7204D01*
X15438D01*
X15454Y7207D01*
X15469D01*
X15622Y7237D01*
X15637Y7243D01*
X15652Y7246D01*
X15796Y7306D01*
X15809Y7315D01*
X15824Y7321D01*
X15953Y7407D01*
X15964Y7418D01*
X15978Y7427D01*
X16088Y7537D01*
X16096Y7550D01*
X16108Y7561D01*
X16194Y7691D01*
X16200Y7705D01*
X16209Y7719D01*
X16268Y7862D01*
X16272Y7878D01*
X16278Y7893D01*
X16308Y8045D01*
Y8061D01*
X16311Y8077D01*
Y8154D01*
Y16867D01*
Y16945D01*
X16308Y16961D01*
Y16976D01*
X16278Y17129D01*
X16272Y17144D01*
X16268Y17159D01*
X16209Y17303D01*
X16200Y17316D01*
X16194Y17331D01*
X16108Y17460D01*
X16096Y17471D01*
X16088Y17485D01*
X15978Y17595D01*
X15964Y17603D01*
X15953Y17615D01*
X15824Y17701D01*
X15809Y17707D01*
X15796Y17716D01*
X15652Y17775D01*
X15637Y17779D01*
X15622Y17785D01*
X15469Y17815D01*
X15454D01*
X15438Y17818D01*
X7542D01*
X7489Y17915D01*
X7504Y17992D01*
X7499Y18017D01*
X7993Y18511D01*
X14537D01*
X14537Y18511D01*
X14583Y18521D01*
X14623Y18547D01*
X15223Y19147D01*
X15223Y19147D01*
X15249Y19186D01*
X15258Y19232D01*
Y20749D01*
X15280Y20764D01*
X15323Y20829D01*
X15405Y20887D01*
X15482Y20872D01*
D02*
G37*
G36*
X4976Y17998D02*
X5041Y17954D01*
X5072Y17948D01*
X5064Y17849D01*
X5060Y17847D01*
X4874D01*
X4828Y17838D01*
X4789Y17812D01*
X4789Y17812D01*
X4730Y17752D01*
X4704Y17757D01*
X4627Y17742D01*
X4562Y17699D01*
X4519Y17634D01*
X4504Y17557D01*
X4519Y17480D01*
X4562Y17415D01*
X4627Y17371D01*
X4704Y17356D01*
X4781Y17371D01*
X4826Y17401D01*
X4868Y17338D01*
X4933Y17295D01*
X5010Y17280D01*
X5087Y17295D01*
X5152Y17338D01*
X5166Y17360D01*
X5338D01*
X5375Y17269D01*
X5329Y17223D01*
X5295Y17171D01*
X5282Y17110D01*
X5282Y17110D01*
Y16673D01*
X5247Y16649D01*
X5184Y16630D01*
X5136Y16662D01*
X5059Y16677D01*
X4982Y16662D01*
X4917Y16618D01*
X4874Y16553D01*
X4858Y16476D01*
X4863Y16451D01*
X4660Y16248D01*
X4566Y16266D01*
X4550Y16276D01*
X4512Y16333D01*
X4447Y16376D01*
X4370Y16392D01*
X4293Y16376D01*
X4261Y16355D01*
X4193Y16340D01*
X4125Y16355D01*
X4093Y16376D01*
X4016Y16392D01*
X3939Y16376D01*
X3874Y16333D01*
X3830Y16268D01*
X3815Y16191D01*
X3725Y16144D01*
X3639D01*
X3593Y16135D01*
X3554Y16109D01*
X3554Y16109D01*
X2754Y15309D01*
X2663Y15346D01*
Y15573D01*
X3776Y16687D01*
X3776Y16687D01*
X3802Y16726D01*
X3811Y16772D01*
Y17747D01*
X3833Y17762D01*
X3876Y17827D01*
X3892Y17904D01*
X3888Y17921D01*
X3960Y18019D01*
X4962D01*
X4976Y17998D01*
D02*
G37*
G36*
X5635Y16988D02*
X5650Y16983D01*
X5665Y16974D01*
X5713Y16930D01*
Y16867D01*
Y8154D01*
Y8077D01*
X5716Y8061D01*
Y8045D01*
X5746Y7893D01*
X5752Y7878D01*
X5755Y7862D01*
X5815Y7719D01*
X5824Y7705D01*
X5830Y7691D01*
X5916Y7561D01*
X5927Y7550D01*
X5936Y7537D01*
X6046Y7427D01*
X6059Y7418D01*
X6070Y7407D01*
X6200Y7321D01*
X6214Y7315D01*
X6228Y7306D01*
X6371Y7246D01*
X6387Y7243D01*
X6402Y7237D01*
X6554Y7207D01*
X6570D01*
X6586Y7204D01*
X10569D01*
X10640Y7105D01*
X10636Y7087D01*
X10645Y7040D01*
X10599Y6960D01*
X10579Y6941D01*
X10443D01*
X10397Y6932D01*
X10358Y6906D01*
X10358Y6906D01*
X9767Y6315D01*
X9741Y6276D01*
X9732Y6230D01*
X9732Y6230D01*
Y5251D01*
X9731Y5248D01*
X9634Y5178D01*
X9616Y5181D01*
X9539Y5166D01*
X9502Y5141D01*
X8118D01*
X6551Y6708D01*
X6498Y6743D01*
X6437Y6755D01*
X6437Y6755D01*
X6159D01*
X5554Y7360D01*
Y12963D01*
X5554Y12963D01*
X5542Y13024D01*
X5507Y13076D01*
X5507Y13076D01*
X3633Y14951D01*
X4033Y15351D01*
X4192D01*
X4192Y15351D01*
X4253Y15363D01*
X4306Y15398D01*
X4505Y15597D01*
X4619D01*
X4619Y15597D01*
X4680Y15610D01*
X4732Y15644D01*
X5128Y16040D01*
X5173D01*
X5173Y16040D01*
X5235Y16052D01*
X5262Y16071D01*
X5268Y16072D01*
X5320Y16107D01*
X5556Y16343D01*
X5556Y16343D01*
X5591Y16395D01*
X5603Y16457D01*
X5603Y16457D01*
Y16980D01*
X5620Y16990D01*
X5635Y16988D01*
D02*
G37*
G36*
X18220Y11015D02*
X18297Y11000D01*
X18315Y11004D01*
X18413Y10932D01*
Y10702D01*
X18413Y10702D01*
X18422Y10656D01*
X18448Y10617D01*
X18793Y10272D01*
X18774Y10152D01*
X18759Y10142D01*
X18716Y10077D01*
X18700Y10000D01*
X18686Y9983D01*
X18267D01*
X18252Y10004D01*
X18187Y10048D01*
X18110Y10063D01*
X18033Y10048D01*
X17968Y10004D01*
X17925Y9939D01*
X17910Y9862D01*
X17915Y9837D01*
X17828Y9751D01*
X17802Y9711D01*
X17793Y9665D01*
X17793Y9665D01*
Y8760D01*
X17779Y8746D01*
X17753Y8707D01*
X17744Y8661D01*
X17744Y8661D01*
Y8465D01*
X17744Y8465D01*
X17753Y8419D01*
X17779Y8380D01*
X17793Y8366D01*
Y8050D01*
X17771Y8036D01*
X17728Y7971D01*
X17713Y7894D01*
X17728Y7817D01*
X17771Y7752D01*
X17793Y7737D01*
Y7186D01*
X16988Y6380D01*
X16162D01*
X16162Y6380D01*
X16116Y6371D01*
X16077Y6345D01*
X15929Y6197D01*
X15903Y6158D01*
X15893Y6112D01*
X15893Y6112D01*
Y5729D01*
X15285Y5120D01*
X14851D01*
X14837Y5142D01*
X14772Y5185D01*
X14695Y5201D01*
X14618Y5185D01*
X14553Y5142D01*
X14509Y5077D01*
X14494Y5000D01*
X14448Y4944D01*
X14342Y4940D01*
X14306Y4976D01*
X14254Y5011D01*
X14193Y5023D01*
X14193Y5023D01*
X10045D01*
X10038Y5057D01*
X9994Y5122D01*
X9973Y5137D01*
Y6180D01*
X10493Y6700D01*
X11153D01*
X11167Y6679D01*
X11232Y6635D01*
X11309Y6620D01*
X11386Y6635D01*
X11451Y6679D01*
X11465Y6700D01*
X13088D01*
Y6278D01*
X13067Y6264D01*
X13023Y6199D01*
X13008Y6122D01*
X13011Y6105D01*
X12940Y6006D01*
X12323D01*
X12228Y6033D01*
X12213Y6110D01*
X12169Y6175D01*
Y6206D01*
X12213Y6272D01*
X12228Y6348D01*
X12213Y6425D01*
X12169Y6490D01*
X12104Y6534D01*
X12028Y6549D01*
X11951Y6534D01*
X11886Y6490D01*
X11885Y6489D01*
X11841D01*
X11787Y6478D01*
X11741Y6448D01*
X11643Y6349D01*
X11612Y6304D01*
X11602Y6250D01*
Y5925D01*
X11612Y5871D01*
X11643Y5826D01*
X12204Y5265D01*
X12249Y5234D01*
X12303Y5224D01*
X12618D01*
X12672Y5234D01*
X12717Y5265D01*
X12785Y5332D01*
X13380D01*
X13434Y5343D01*
X13480Y5373D01*
X14197Y6090D01*
X14709D01*
X14710Y6088D01*
X14776Y6045D01*
X14852Y6030D01*
X14929Y6045D01*
X14994Y6088D01*
X15038Y6154D01*
X15053Y6230D01*
X15038Y6307D01*
X15012Y6346D01*
X15045Y6432D01*
X15055Y6445D01*
X15974D01*
X15974Y6445D01*
X16020Y6454D01*
X16060Y6480D01*
X17378Y7799D01*
X17405Y7838D01*
X17414Y7884D01*
X17414Y7884D01*
Y10373D01*
X18062Y11022D01*
X18155Y11059D01*
X18220Y11015D01*
D02*
G37*
D10*
X16260Y6024D02*
X17176D01*
X17579Y6427D02*
X17579D01*
X17176Y6024D02*
X17579Y6427D01*
X10837Y7087D02*
X13642D01*
X3035Y5597D02*
X3602Y5030D01*
X3035Y12109D02*
X3159Y12234D01*
X3035Y5597D02*
Y12109D01*
X11742Y5925D02*
Y6250D01*
X11841Y6348D02*
X12028D01*
X11742Y6250D02*
X11841Y6348D01*
X11742Y5925D02*
X12303Y5364D01*
X12618D01*
X14138Y6230D02*
X14852D01*
X12618Y5364D02*
X12726Y5472D01*
X13380D01*
X14138Y6230D01*
D11*
X2700Y7221D02*
Y14875D01*
X3848Y16024D02*
X3848D01*
X2700Y15084D02*
X3639Y16024D01*
X3848D01*
X2700Y14875D02*
Y15084D01*
X2857Y7156D02*
Y14905D01*
X3819Y15866D02*
X4045D01*
X3704D02*
X3819D01*
X2857Y15019D02*
X3704Y15866D01*
X2857Y14905D02*
Y15019D01*
X3015Y12743D02*
Y14954D01*
X3770Y15709D02*
X4104D01*
X3015Y14954D02*
X3770Y15709D01*
X7303Y17992D02*
X7943Y18632D01*
X14537D01*
X15138Y19232D01*
X18327Y7671D02*
Y8465D01*
X18425Y8563D02*
X18602D01*
X18327Y8465D02*
X18425Y8563D01*
X17992Y6769D02*
X18228Y7005D01*
X17490Y5781D02*
X17904Y6195D01*
X18228Y7005D02*
Y7573D01*
X17904Y6195D02*
X17992Y6283D01*
X18228Y7573D02*
X18327Y7671D01*
X17992Y6283D02*
Y6769D01*
X18071Y7638D02*
X18169Y7736D01*
X18100Y8106D02*
X18169Y8037D01*
Y7736D02*
Y8037D01*
X18071Y7071D02*
Y7638D01*
X17146Y5659D02*
X17835Y6348D01*
Y6834D01*
X18071Y7071D01*
X18100Y8106D02*
Y8563D01*
X17037Y6260D02*
X17913Y7136D01*
X16162Y6260D02*
X17037D01*
X17913Y7136D02*
Y7894D01*
X17382Y10735D02*
X17726Y11079D01*
X17136Y7949D02*
Y10488D01*
X15909Y6722D02*
X17136Y7949D01*
Y10488D02*
X17382Y10735D01*
X15974Y6565D02*
X17293Y7884D01*
Y10423D02*
X18071Y11201D01*
X17293Y7884D02*
Y10423D01*
X14419Y6801D02*
X14537Y6919D01*
X13209Y6801D02*
X14419D01*
X13209Y6122D02*
Y6821D01*
X14537Y6919D02*
X15758D01*
X3593Y18140D02*
X3691D01*
X5118D01*
X2385Y15594D02*
Y15688D01*
X3533Y16837D02*
Y17727D01*
X3455Y17806D02*
X3533Y17727D01*
X3455Y18001D02*
X3593Y18140D01*
X2385Y8035D02*
Y15594D01*
Y15688D02*
X3533Y16837D01*
X3455Y17806D02*
Y18001D01*
X2542Y8304D02*
Y15623D01*
X3691Y16772D01*
Y17904D01*
X4111Y15709D02*
X4357Y15955D01*
X4104Y15709D02*
X4111D01*
X4357Y15955D02*
X4537D01*
X5059Y16476D01*
X19154Y9898D02*
Y10082D01*
X18445Y9045D02*
Y9189D01*
Y8907D02*
Y9045D01*
Y9189D02*
X19154Y9898D01*
X18100Y8563D02*
X18445Y8907D01*
X18533Y10702D02*
X19154Y10082D01*
X18602Y9124D02*
X19311Y9833D01*
X18602Y8563D02*
Y9124D01*
X19311Y9833D02*
Y10069D01*
X17913Y7894D02*
Y8416D01*
Y8710D02*
Y9665D01*
X17864Y8465D02*
X17913Y8416D01*
X17864Y8465D02*
Y8661D01*
X17913Y8710D01*
Y9665D02*
X18110Y9862D01*
X15335Y5000D02*
X16014Y5679D01*
Y6112D02*
X16162Y6260D01*
X16014Y5679D02*
Y6112D01*
X14695Y5000D02*
X15335D01*
X18691Y10767D02*
Y11155D01*
Y10767D02*
X19311Y10147D01*
Y10069D02*
Y10147D01*
X18533Y10702D02*
Y11220D01*
X15758Y6919D02*
Y6959D01*
X11309Y6821D02*
X13209D01*
X9852Y4980D02*
Y6230D01*
X10443Y6821D01*
X11309D01*
X2825Y18189D02*
Y18593D01*
X3809Y19577D01*
X17726Y11270D02*
Y14942D01*
X16742Y16112D02*
Y17431D01*
Y15926D02*
X17726Y14942D01*
X16742Y15926D02*
Y16112D01*
X16900Y16043D02*
Y17496D01*
Y15992D02*
X17884Y15007D01*
Y11555D02*
Y15007D01*
X16900Y15992D02*
Y16043D01*
X17057Y16057D02*
X18041Y15073D01*
X17057Y16057D02*
Y17562D01*
X18041Y11850D02*
Y15073D01*
X17215Y16122D02*
X18199Y15138D01*
Y11916D02*
Y15138D01*
X17215Y16122D02*
Y17627D01*
X15768Y18406D02*
X16742Y17431D01*
X15925Y18471D02*
X16900Y17496D01*
X16161Y18457D02*
X17057Y17562D01*
X16417Y18424D02*
X17215Y17627D01*
X16801Y18263D02*
X17382Y17682D01*
Y16963D02*
X17904Y16441D01*
X17382Y16963D02*
Y17682D01*
X16801Y18263D02*
Y19094D01*
X16161Y18457D02*
Y18583D01*
X15925Y18471D02*
Y22657D01*
X15768Y18406D02*
Y22234D01*
X14528Y19439D02*
Y19843D01*
X14439Y19931D02*
X14528Y19843D01*
X14439Y19931D02*
Y20778D01*
X13700Y21517D02*
X14439Y20778D01*
X14282Y19754D02*
Y20712D01*
X12934Y21359D02*
X13634D01*
X14282Y20712D01*
X12825Y21250D02*
X12934Y21359D01*
X12549Y21250D02*
X12825D01*
X12431Y21368D02*
X12549Y21250D01*
X12709Y21517D02*
X13700D01*
X15138Y19232D02*
Y20906D01*
X3015Y12743D02*
X3435Y12323D01*
Y12136D02*
Y12323D01*
X3212Y11913D02*
X3435Y12136D01*
X3212Y6956D02*
Y11913D01*
Y6956D02*
X3760Y6407D01*
X5010Y17480D02*
X5531D01*
X4704Y17557D02*
X4874Y17726D01*
X5555D02*
X8406Y20577D01*
X4874Y17726D02*
X5555D01*
X8563Y21073D02*
X8691Y21201D01*
X5531Y17480D02*
X8563Y20512D01*
Y21073D01*
X8406Y20577D02*
Y21378D01*
X4134Y19341D02*
X4370D01*
X4596Y19567D01*
X4718D01*
X10148Y24803D02*
X11437D01*
X9954D02*
X10148D01*
X4718Y19567D02*
X9954Y24803D01*
X11437D02*
X11565Y24931D01*
X11782Y24646D02*
X12067Y24931D01*
X10020Y24646D02*
X11782D01*
X4705Y19331D02*
X10020Y24646D01*
X3809Y19577D02*
Y19990D01*
X3947Y20128D01*
X16230Y19094D02*
X16417Y18907D01*
Y18424D02*
Y18907D01*
X16230Y19094D02*
Y20079D01*
X11211Y22589D02*
X13967D01*
X15482Y21073D01*
X18199Y11916D02*
X18691Y11423D01*
X18691Y11155D02*
X18691Y11155D01*
Y11423D01*
X15610Y22392D02*
X15768Y22234D01*
X18041Y11850D02*
X18533Y11358D01*
X18533Y11220D02*
X18533Y11220D01*
Y11358D01*
X11713Y20846D02*
X12854D01*
X13258Y20443D01*
X17884Y11555D02*
X18071Y11368D01*
Y11201D02*
Y11368D01*
Y11201D02*
X18297D01*
X12028Y6033D02*
X12175Y5886D01*
X13321D01*
X14610Y6575D02*
X14758Y6722D01*
X14010Y6575D02*
X14610D01*
X13321Y5886D02*
X14010Y6575D01*
X12520Y5650D02*
X13307D01*
X14075Y6417D01*
X14675D01*
X3947Y20128D02*
Y20768D01*
X2461Y6982D02*
X2589Y7110D01*
X2700Y7221D01*
X3848Y16024D02*
X4016Y16191D01*
X4045Y15866D02*
X4370Y16191D01*
X2628Y5119D02*
Y6927D01*
X2857Y7156D01*
X2461Y5952D02*
Y6982D01*
X2542Y7287D02*
Y8304D01*
X2136Y6880D02*
X2542Y7287D01*
X1389Y6880D02*
X2136D01*
X1383Y7874D02*
X2224D01*
X2385Y8035D01*
X1873Y4364D02*
X2628Y5119D01*
X1873Y5364D02*
X2461Y5952D01*
X873Y7364D02*
X1383Y7874D01*
X873Y6364D02*
X1389Y6880D01*
X18763Y9862D02*
X18901Y10000D01*
X18110Y9862D02*
X18763D01*
X17726Y11079D02*
Y11270D01*
X14758Y6722D02*
X15909D01*
X14823Y6565D02*
X15974D01*
X14675Y6417D02*
X14823Y6565D01*
X17318Y5396D02*
X17490Y5568D01*
Y5781D01*
D61*
X5443Y17110D02*
X8806Y20472D01*
X9646D01*
X5443Y16457D02*
Y17110D01*
X4438Y15758D02*
X4619D01*
X5062Y16201D02*
X5173D01*
X3967Y15512D02*
X4192D01*
X5173Y16201D02*
X5193Y16220D01*
X5207D01*
X3406Y14951D02*
X3967Y15512D01*
X5207Y16220D02*
X5443Y16457D01*
X4619Y15758D02*
X5062Y16201D01*
X4192Y15512D02*
X4438Y15758D01*
X9646Y20472D02*
X9961D01*
X9646D02*
Y23327D01*
X10384Y24065D01*
X12667Y19016D02*
Y19528D01*
X12087Y20108D02*
X12667Y19528D01*
X10325Y20108D02*
X12087D01*
X9961Y20472D02*
X10325Y20108D01*
X13248Y24065D02*
X14252Y23061D01*
X10384Y24065D02*
X13248D01*
X9852Y4980D02*
X9970Y4862D01*
X14193D02*
X14291Y4764D01*
X9970Y4862D02*
X14193D01*
X14695Y4754D02*
Y5000D01*
X14685Y4764D02*
X14695Y4754D01*
X14291Y4764D02*
X14685D01*
X6437Y6595D02*
X8051Y4980D01*
X9616D01*
X6114Y6595D02*
X6437D01*
X5394Y7293D02*
X6103Y6584D01*
X6114Y6595D01*
X5394Y7293D02*
Y12963D01*
X3406Y14951D02*
X5394Y12963D01*
X9616Y4980D02*
X9852D01*
D63*
X5992Y6319D02*
X6228D01*
X5118Y7193D02*
X5992Y6319D01*
X5118Y7193D02*
Y7589D01*
Y11083D01*
X4675Y11526D02*
X5118Y11083D01*
X3898Y11526D02*
X4675D01*
X3661D02*
X3898D01*
D65*
X1873Y3364D02*
D03*
X17904Y16441D02*
D03*
D66*
X1873Y4364D02*
D03*
Y5364D02*
D03*
X873Y3364D02*
D03*
Y4364D02*
D03*
Y5364D02*
D03*
Y6364D02*
D03*
Y7364D02*
D03*
Y8364D02*
D03*
X1873Y9364D02*
D03*
X873D02*
D03*
X1873Y10364D02*
D03*
X873D02*
D03*
X1873Y11364D02*
D03*
X873D02*
D03*
X1873Y12364D02*
D03*
X873D02*
D03*
X1873Y13364D02*
D03*
X873D02*
D03*
X1873Y14364D02*
D03*
X873D02*
D03*
X1873Y15364D02*
D03*
X873D02*
D03*
X1873Y16364D02*
D03*
X873D02*
D03*
X1873Y17364D02*
D03*
X873D02*
D03*
X1873Y18364D02*
D03*
X873D02*
D03*
X1873Y19364D02*
D03*
X873D02*
D03*
X1873Y20364D02*
D03*
X873D02*
D03*
X1873Y21364D02*
D03*
X873D02*
D03*
X1873Y22364D02*
D03*
X873D02*
D03*
X16781Y4193D02*
D03*
X17781D02*
D03*
X18781D02*
D03*
X12032D02*
D03*
X13032D02*
D03*
X14031D02*
D03*
X17904Y22441D02*
D03*
Y21441D02*
D03*
Y20441D02*
D03*
Y19441D02*
D03*
Y18441D02*
D03*
Y17441D02*
D03*
X6378Y4193D02*
D03*
X9222D02*
D03*
D67*
X1873Y6364D02*
D03*
Y7364D02*
D03*
Y8364D02*
D03*
D68*
X15781Y4193D02*
D03*
X11032D02*
D03*
X5378D02*
D03*
X8222D02*
D03*
D69*
X20659Y1447D02*
D03*
Y24281D02*
D03*
X1373D02*
D03*
Y1447D02*
D03*
D70*
X18642Y11959D02*
D03*
X18248Y5157D02*
D03*
X13524Y5177D02*
D03*
X11545Y5246D02*
D03*
X5768Y7461D02*
D03*
X4281Y9547D02*
D03*
X3691Y9665D02*
D03*
X4754Y9764D02*
D03*
X5128Y13878D02*
D03*
X7195Y18337D02*
D03*
X8907Y20856D02*
D03*
X6270Y19764D02*
D03*
X5974Y18563D02*
D03*
X6683Y19262D02*
D03*
X7136Y19754D02*
D03*
X7628Y20226D02*
D03*
X16220Y20561D02*
D03*
X15482Y20669D02*
D03*
X2825Y15551D02*
D03*
X21260Y23622D02*
D03*
X20866Y22835D02*
D03*
X21260Y22047D02*
D03*
X20866Y21260D02*
D03*
X21260Y20472D02*
D03*
X20866Y19685D02*
D03*
X21260Y18898D02*
D03*
X20866Y18110D02*
D03*
X21260Y17323D02*
D03*
X20866Y16535D02*
D03*
X21260Y15748D02*
D03*
X20866Y14961D02*
D03*
X21260Y14173D02*
D03*
X20866Y13386D02*
D03*
X21260Y12598D02*
D03*
X20866Y11811D02*
D03*
X21260Y11024D02*
D03*
X20866Y10236D02*
D03*
X21260Y9449D02*
D03*
X20866Y8661D02*
D03*
X21260Y7874D02*
D03*
X20866Y7087D02*
D03*
X21260Y6299D02*
D03*
X20866Y5512D02*
D03*
X21260Y4724D02*
D03*
X20866Y3937D02*
D03*
X21260Y3150D02*
D03*
X20866Y2362D02*
D03*
X20079Y22835D02*
D03*
X20472Y22047D02*
D03*
X20079Y21260D02*
D03*
X20472Y20472D02*
D03*
X20079Y19685D02*
D03*
X20472Y18898D02*
D03*
X20079Y18110D02*
D03*
X20472Y17323D02*
D03*
X20079Y16535D02*
D03*
X20472Y15748D02*
D03*
X20079Y14961D02*
D03*
X20472Y14173D02*
D03*
X20079Y13386D02*
D03*
X20472Y12598D02*
D03*
X20079Y11811D02*
D03*
X20472Y11024D02*
D03*
X20079Y10236D02*
D03*
X20472Y9449D02*
D03*
X20079Y8661D02*
D03*
X20472Y7874D02*
D03*
X20079Y7087D02*
D03*
X20472Y6299D02*
D03*
X20079Y5512D02*
D03*
X20472Y4724D02*
D03*
X20079Y3937D02*
D03*
X20472Y3150D02*
D03*
X20079Y2362D02*
D03*
Y787D02*
D03*
X19291Y24409D02*
D03*
X19685Y23622D02*
D03*
X19291Y22835D02*
D03*
X19685Y22047D02*
D03*
X19291Y21260D02*
D03*
X19685Y20472D02*
D03*
X19291Y19685D02*
D03*
X19685Y18898D02*
D03*
X19291Y18110D02*
D03*
X19685Y17323D02*
D03*
X19291Y16535D02*
D03*
X19685Y15748D02*
D03*
X19291Y14961D02*
D03*
X19685Y14173D02*
D03*
X19291Y13386D02*
D03*
X19685Y12598D02*
D03*
Y9449D02*
D03*
Y7874D02*
D03*
X19291Y7087D02*
D03*
X19685Y6299D02*
D03*
X19291Y5512D02*
D03*
X19685Y4724D02*
D03*
Y3150D02*
D03*
X19291Y2362D02*
D03*
X19685Y1575D02*
D03*
X19291Y787D02*
D03*
X18504Y24409D02*
D03*
X18898Y23622D02*
D03*
X18504Y22835D02*
D03*
X18898Y22047D02*
D03*
X18504Y21260D02*
D03*
X18898Y20472D02*
D03*
X18504Y19685D02*
D03*
X18898Y18898D02*
D03*
X18504Y18110D02*
D03*
X18898Y17323D02*
D03*
X18504Y16535D02*
D03*
X18898Y15748D02*
D03*
X18504Y14961D02*
D03*
X18898Y14173D02*
D03*
X18504Y13386D02*
D03*
Y10236D02*
D03*
X18898Y7874D02*
D03*
Y3150D02*
D03*
X18504Y2362D02*
D03*
X18898Y1575D02*
D03*
X18504Y787D02*
D03*
X17717Y24409D02*
D03*
X18110Y23622D02*
D03*
Y15748D02*
D03*
Y3150D02*
D03*
X17717Y2362D02*
D03*
X18110Y1575D02*
D03*
X17717Y787D02*
D03*
X16929Y24409D02*
D03*
X17323Y23622D02*
D03*
X16929Y22835D02*
D03*
X17323Y22047D02*
D03*
X16929Y14961D02*
D03*
X17323Y14173D02*
D03*
X16929Y13386D02*
D03*
X17323Y4724D02*
D03*
Y3150D02*
D03*
X16929Y2362D02*
D03*
X17323Y1575D02*
D03*
X16929Y787D02*
D03*
X16142Y24409D02*
D03*
X16535Y23622D02*
D03*
Y22047D02*
D03*
Y15748D02*
D03*
Y14173D02*
D03*
Y12598D02*
D03*
Y11024D02*
D03*
Y9449D02*
D03*
Y7874D02*
D03*
Y3150D02*
D03*
X16142Y2362D02*
D03*
X16535Y1575D02*
D03*
X16142Y787D02*
D03*
X15354Y24409D02*
D03*
X15748Y23622D02*
D03*
X15354Y22835D02*
D03*
X15748Y3150D02*
D03*
X15354Y2362D02*
D03*
X15748Y1575D02*
D03*
X15354Y787D02*
D03*
X14567Y24409D02*
D03*
X14961Y23622D02*
D03*
X14567Y22835D02*
D03*
X14961Y22047D02*
D03*
X14567Y21260D02*
D03*
Y5512D02*
D03*
Y3937D02*
D03*
X14961Y3150D02*
D03*
X14567Y2362D02*
D03*
X14961Y1575D02*
D03*
X14567Y787D02*
D03*
X13780Y24409D02*
D03*
X14173Y3150D02*
D03*
X13780Y2362D02*
D03*
X14173Y1575D02*
D03*
X13780Y787D02*
D03*
X12992Y24409D02*
D03*
X13386Y3150D02*
D03*
X12992Y2362D02*
D03*
X13386Y1575D02*
D03*
X12992Y787D02*
D03*
X12205Y24409D02*
D03*
Y18110D02*
D03*
X12598Y3150D02*
D03*
X12205Y2362D02*
D03*
X12598Y1575D02*
D03*
X12205Y787D02*
D03*
X11811Y22047D02*
D03*
X11417Y21260D02*
D03*
X11811Y3150D02*
D03*
X11417Y2362D02*
D03*
X11811Y1575D02*
D03*
X11417Y787D02*
D03*
X11024Y22047D02*
D03*
X10630Y18110D02*
D03*
Y5512D02*
D03*
X11024Y3150D02*
D03*
X10630Y2362D02*
D03*
X11024Y1575D02*
D03*
X10630Y787D02*
D03*
X9843Y18110D02*
D03*
Y3937D02*
D03*
X10236Y3150D02*
D03*
X9843Y2362D02*
D03*
X10236Y1575D02*
D03*
X9843Y787D02*
D03*
X9055Y24409D02*
D03*
X9449Y23622D02*
D03*
X9055Y22835D02*
D03*
Y21260D02*
D03*
Y19685D02*
D03*
X9449Y18898D02*
D03*
X9055Y7087D02*
D03*
Y5512D02*
D03*
X9449Y3150D02*
D03*
X9055Y2362D02*
D03*
X9449Y1575D02*
D03*
X9055Y787D02*
D03*
X8268Y24409D02*
D03*
X8661Y18898D02*
D03*
X8268Y18110D02*
D03*
Y7087D02*
D03*
X8661Y3150D02*
D03*
X8268Y2362D02*
D03*
X8661Y1575D02*
D03*
X8268Y787D02*
D03*
X7480Y24409D02*
D03*
X7874Y23622D02*
D03*
X7480Y22835D02*
D03*
X7874Y22047D02*
D03*
X7480Y21260D02*
D03*
X7874Y18898D02*
D03*
X7480Y7087D02*
D03*
Y3937D02*
D03*
X7874Y3150D02*
D03*
X7480Y2362D02*
D03*
X7874Y1575D02*
D03*
X7480Y787D02*
D03*
X6693Y24409D02*
D03*
X7087Y23622D02*
D03*
X6693Y22835D02*
D03*
X7087Y20472D02*
D03*
X6693Y7087D02*
D03*
Y5512D02*
D03*
X7087Y4724D02*
D03*
Y3150D02*
D03*
X6693Y2362D02*
D03*
X7087Y1575D02*
D03*
X6693Y787D02*
D03*
X5906Y24409D02*
D03*
X6299Y23622D02*
D03*
X5906Y22835D02*
D03*
X6299Y22047D02*
D03*
X5906Y21260D02*
D03*
X6299Y20472D02*
D03*
X5906Y5512D02*
D03*
X6299Y3150D02*
D03*
X5906Y2362D02*
D03*
X6299Y1575D02*
D03*
X5906Y787D02*
D03*
X5118Y24409D02*
D03*
X5512Y23622D02*
D03*
Y22047D02*
D03*
X5118Y21260D02*
D03*
X5512Y18898D02*
D03*
X5118Y14961D02*
D03*
X5512Y14173D02*
D03*
Y6299D02*
D03*
X5118Y5512D02*
D03*
X5512Y3150D02*
D03*
X5118Y2362D02*
D03*
X5512Y1575D02*
D03*
X5118Y787D02*
D03*
X4331Y24409D02*
D03*
X4724Y23622D02*
D03*
X4331Y7087D02*
D03*
X4724Y6299D02*
D03*
Y4724D02*
D03*
X4331Y3937D02*
D03*
X4724Y3150D02*
D03*
X4331Y2362D02*
D03*
X4724Y1575D02*
D03*
X4331Y787D02*
D03*
X3543Y24409D02*
D03*
X3937Y23622D02*
D03*
X3543Y22835D02*
D03*
Y21260D02*
D03*
Y5512D02*
D03*
Y3937D02*
D03*
X3937Y1575D02*
D03*
X3543Y787D02*
D03*
X2756Y24409D02*
D03*
X3150Y23622D02*
D03*
X2756Y22835D02*
D03*
X3150Y22047D02*
D03*
X2756Y21260D02*
D03*
Y19685D02*
D03*
X3150Y17323D02*
D03*
X2756Y16535D02*
D03*
Y3937D02*
D03*
X3150Y1575D02*
D03*
X2756Y787D02*
D03*
X2362Y23622D02*
D03*
Y22047D02*
D03*
Y18898D02*
D03*
Y1575D02*
D03*
X1969Y787D02*
D03*
X394Y24409D02*
D03*
X787Y23622D02*
D03*
X394Y22835D02*
D03*
Y19685D02*
D03*
Y14961D02*
D03*
Y11811D02*
D03*
Y3937D02*
D03*
Y2362D02*
D03*
Y787D02*
D03*
X10984Y24390D02*
D03*
X10197Y23297D02*
D03*
X10453Y23661D02*
D03*
X14006Y23720D02*
D03*
X13583Y23287D02*
D03*
X14301Y23445D02*
D03*
X14272Y21486D02*
D03*
X12303Y19016D02*
D03*
X11929Y19026D02*
D03*
X9705Y19783D02*
D03*
X10010Y19419D02*
D03*
X9843Y20148D02*
D03*
X10374Y20502D02*
D03*
X17323Y18967D02*
D03*
X16870Y20906D02*
D03*
X17067Y20010D02*
D03*
X14793Y20039D02*
D03*
X15472Y19656D02*
D03*
X15443Y18868D02*
D03*
X15276Y18376D02*
D03*
X14252Y19144D02*
D03*
X13730Y19537D02*
D03*
X13957Y18386D02*
D03*
X13248Y19055D02*
D03*
X9085Y18258D02*
D03*
X12805Y18287D02*
D03*
X3583Y16270D02*
D03*
X4429Y17795D02*
D03*
X3967Y17618D02*
D03*
X18218Y10659D02*
D03*
X17736Y10276D02*
D03*
X16388Y6545D02*
D03*
X16654Y6703D02*
D03*
X9459Y5394D02*
D03*
X9498Y6319D02*
D03*
X10108Y6988D02*
D03*
X10482Y6398D02*
D03*
X10157Y5669D02*
D03*
X5236Y15699D02*
D03*
X4144Y15079D02*
D03*
X7372Y6329D02*
D03*
X5059Y16476D02*
D03*
X18593Y12618D02*
D03*
X17913Y7894D02*
D03*
X17028Y11575D02*
D03*
X17352Y11240D02*
D03*
X15758Y6959D02*
D03*
X13209Y6122D02*
D03*
X11309Y6821D02*
D03*
X9646Y20472D02*
D03*
X3189Y16831D02*
D03*
X2825Y18189D02*
D03*
X16801Y19094D02*
D03*
X10384Y24065D02*
D03*
X10748Y19636D02*
D03*
X16161Y18583D02*
D03*
X14282Y19754D02*
D03*
X14528Y19439D02*
D03*
X12709Y21517D02*
D03*
X12431Y21368D02*
D03*
X15138Y20906D02*
D03*
X7303Y17992D02*
D03*
X3760Y6407D02*
D03*
X3159Y12234D02*
D03*
X3602Y4793D02*
D03*
Y5030D02*
D03*
X3573Y8366D02*
D03*
X8406Y21378D02*
D03*
X8691Y21201D02*
D03*
X4704Y17557D02*
D03*
X5010Y17480D02*
D03*
X3809Y19577D02*
D03*
X11565Y24931D02*
D03*
X12067D02*
D03*
X11211Y22589D02*
D03*
X15482Y21073D02*
D03*
X16230Y20079D02*
D03*
X13258Y20443D02*
D03*
X15925Y22657D02*
D03*
X18297Y11201D02*
D03*
X15610Y22392D02*
D03*
X5118Y7589D02*
D03*
X6228Y6319D02*
D03*
X5992D02*
D03*
X3661Y11526D02*
D03*
X3898D02*
D03*
X3780Y13484D02*
D03*
X3406Y14951D02*
D03*
X3947Y20768D02*
D03*
X4134Y19341D02*
D03*
X4705Y19331D02*
D03*
X4370Y16191D02*
D03*
X4016D02*
D03*
X3691Y17904D02*
D03*
X5118Y18140D02*
D03*
X18901Y10000D02*
D03*
X18110Y9862D02*
D03*
X12667Y19016D02*
D03*
X11713Y20846D02*
D03*
X10325Y20108D02*
D03*
X14252Y23061D02*
D03*
X16260Y6024D02*
D03*
X17579Y6427D02*
D03*
X17726Y11270D02*
D03*
X14852Y6230D02*
D03*
X13642Y7087D02*
D03*
X10837D02*
D03*
X12028Y6348D02*
D03*
X12520Y5650D02*
D03*
X12028Y6033D02*
D03*
X18602Y8563D02*
D03*
X18100D02*
D03*
X17318Y5396D02*
D03*
X17146Y5659D02*
D03*
X14695Y4754D02*
D03*
Y5000D02*
D03*
X9616Y4980D02*
D03*
X9852D02*
D03*
M02*
