G04*
G04 #@! TF.GenerationSoftware,Altium Limited,Altium Designer,20.0.11 (256)*
G04*
G04 Layer_Color=65535*
%FSLAX24Y24*%
%MOIN*%
G70*
G01*
G75*
%ADD10C,0.0118*%
%ADD11C,0.0079*%
%ADD12R,0.0191X0.0246*%
%ADD13R,0.0246X0.0191*%
%ADD14R,0.0191X0.0246*%
%ADD15R,0.0226X0.0413*%
G36*
X10996Y21077D02*
Y20777D01*
X10696Y21077D01*
X10996D01*
D02*
G37*
G36*
X17195Y236D02*
X16384D01*
Y2589D01*
X17195D01*
Y236D01*
D02*
G37*
G36*
X21870Y22027D02*
X19478D01*
Y22839D01*
X21870D01*
Y22027D01*
D02*
G37*
G36*
X9636Y236D02*
X8825D01*
Y2589D01*
X9636D01*
Y236D01*
D02*
G37*
G36*
X21870Y21028D02*
X19478D01*
Y21839D01*
X21870D01*
Y21028D01*
D02*
G37*
G36*
Y20028D02*
X19478D01*
Y20839D01*
X21870D01*
Y20028D01*
D02*
G37*
G36*
X12445Y236D02*
X11634D01*
Y2589D01*
X12445D01*
Y236D01*
D02*
G37*
G36*
X6791Y236D02*
X5980D01*
Y2589D01*
X6791D01*
Y236D01*
D02*
G37*
G36*
X5709Y236D02*
X5036D01*
Y2589D01*
X5709D01*
Y236D01*
D02*
G37*
G36*
X18195Y236D02*
X17384D01*
Y2589D01*
X18195D01*
Y236D01*
D02*
G37*
G36*
X3722Y21029D02*
X2911D01*
Y23381D01*
X3722D01*
Y21029D01*
D02*
G37*
G36*
X19112Y236D02*
X18433D01*
Y2589D01*
X19112D01*
Y236D01*
D02*
G37*
G36*
X16112Y2589D02*
Y236D01*
X15439D01*
Y2589D01*
X16112D01*
D02*
G37*
G36*
X6163Y21029D02*
X5352D01*
Y23381D01*
X6163D01*
Y21029D01*
D02*
G37*
G36*
X21870Y17027D02*
X19471D01*
Y17839D01*
X21870D01*
Y17027D01*
D02*
G37*
G36*
X21890Y18027D02*
X19471D01*
Y18839D01*
X21890D01*
Y18027D01*
D02*
G37*
G36*
X21870Y19027D02*
X19478D01*
Y19839D01*
X21870D01*
Y19027D01*
D02*
G37*
G36*
X14362Y236D02*
X13683D01*
Y2589D01*
X14362D01*
Y236D01*
D02*
G37*
G36*
X8553D02*
X7880D01*
Y2589D01*
X8553D01*
Y236D01*
D02*
G37*
G36*
X21870Y16028D02*
X19471D01*
Y16839D01*
X21870D01*
Y16028D01*
D02*
G37*
G36*
X13445Y2589D02*
Y236D01*
X12634D01*
Y2589D01*
X13445D01*
D02*
G37*
G36*
X11362Y236D02*
X10689D01*
Y2589D01*
X11362D01*
Y236D01*
D02*
G37*
%LPC*%
G36*
X16952Y2399D02*
D01*
Y2105D01*
X16824Y2399D01*
X16754D01*
X16627Y2105D01*
D01*
X16709D01*
X16789Y2310D01*
X16869Y2105D01*
X16740D01*
X16952D01*
Y2399D01*
D02*
G37*
G36*
X17000Y1910D02*
X16777Y1763D01*
X16572Y1897D01*
Y1910D01*
Y1796D01*
X16700Y1711D01*
X16572Y1627D01*
Y1512D01*
Y1526D01*
X16777Y1660D01*
X17000Y1512D01*
Y1910D01*
D02*
G37*
G36*
Y1500D02*
Y1374D01*
X16644D01*
Y1500D01*
X17000D01*
X16572D01*
Y1160D01*
X16644D01*
Y1287D01*
X17000D01*
Y1160D01*
Y1500D01*
D02*
G37*
G36*
Y1117D02*
X16924D01*
D01*
X16830D01*
X16924D01*
Y953D01*
X16916Y959D01*
X16912Y962D01*
X16909Y964D01*
X16906Y967D01*
X16904Y969D01*
X16902Y970D01*
X16902Y970D01*
X16899Y973D01*
X16896Y975D01*
X16889Y982D01*
X16881Y990D01*
X16874Y998D01*
X16866Y1006D01*
X16863Y1010D01*
X16860Y1013D01*
X16858Y1016D01*
X16856Y1018D01*
X16855Y1019D01*
X16854Y1019D01*
X16848Y1026D01*
X16842Y1032D01*
X16836Y1038D01*
X16830Y1044D01*
X16826Y1049D01*
X16822Y1053D01*
X16814Y1061D01*
X16808Y1066D01*
X16803Y1070D01*
X16801Y1073D01*
X16800Y1073D01*
X16789Y1081D01*
X16779Y1088D01*
X16770Y1093D01*
X16762Y1098D01*
X16755Y1102D01*
X16749Y1104D01*
X16747Y1105D01*
X16746Y1106D01*
X16745Y1106D01*
X16745D01*
X16735Y1110D01*
X16725Y1112D01*
X16716Y1114D01*
X16708Y1115D01*
X16700Y1116D01*
X16695Y1117D01*
X16571D01*
X16690D01*
X16680Y1116D01*
X16672Y1115D01*
X16663Y1113D01*
X16655Y1111D01*
X16647Y1108D01*
X16640Y1105D01*
X16634Y1102D01*
X16628Y1098D01*
X16623Y1095D01*
X16618Y1091D01*
X16614Y1088D01*
X16611Y1086D01*
X16608Y1083D01*
X16606Y1081D01*
X16605Y1081D01*
X16605Y1080D01*
X16599Y1073D01*
X16593Y1065D01*
X16589Y1057D01*
X16585Y1049D01*
X16581Y1041D01*
X16579Y1032D01*
X16577Y1025D01*
X16575Y1017D01*
X16574Y1009D01*
X16573Y1002D01*
X16572Y996D01*
X16571Y991D01*
X16571Y986D01*
Y1003D01*
Y986D01*
Y981D01*
X16571Y970D01*
X16572Y960D01*
X16574Y950D01*
X16575Y941D01*
X16578Y932D01*
X16580Y925D01*
X16582Y917D01*
X16585Y911D01*
X16588Y905D01*
X16591Y899D01*
X16593Y895D01*
X16596Y891D01*
X16597Y888D01*
X16599Y886D01*
X16600Y884D01*
X16600Y884D01*
X16606Y877D01*
X16613Y871D01*
X16620Y866D01*
X16628Y861D01*
X16636Y856D01*
X16644Y853D01*
X16652Y849D01*
X16660Y847D01*
X16667Y844D01*
X16675Y843D01*
X16680Y841D01*
X16686Y840D01*
X16691Y839D01*
X16694Y839D01*
X16696Y838D01*
X16697D01*
X16705Y920D01*
X16693Y922D01*
X16682Y924D01*
X16674Y927D01*
X16666Y930D01*
X16661Y932D01*
X16657Y935D01*
X16655Y937D01*
X16654Y937D01*
X16649Y943D01*
X16645Y950D01*
X16642Y957D01*
X16640Y964D01*
X16639Y970D01*
X16638Y974D01*
Y979D01*
X16639Y988D01*
X16641Y996D01*
X16643Y1003D01*
X16646Y1009D01*
X16648Y1014D01*
X16651Y1017D01*
X16653Y1019D01*
X16653Y1020D01*
X16659Y1025D01*
X16666Y1028D01*
X16673Y1031D01*
X16680Y1032D01*
X16686Y1033D01*
X16691Y1034D01*
X16693D01*
X16695D01*
X16695D01*
X16696D01*
X16705Y1034D01*
X16714Y1032D01*
X16723Y1029D01*
X16730Y1026D01*
X16736Y1023D01*
X16741Y1020D01*
X16743Y1019D01*
X16745Y1018D01*
X16745Y1017D01*
X16746D01*
X16750Y1014D01*
X16754Y1011D01*
X16759Y1006D01*
X16765Y1001D01*
X16776Y990D01*
X16788Y979D01*
X16799Y968D01*
X16803Y963D01*
X16808Y958D01*
X16811Y955D01*
X16814Y952D01*
X16816Y950D01*
X16816Y949D01*
X16828Y937D01*
X16839Y926D01*
X16849Y915D01*
X16859Y906D01*
X16868Y897D01*
X16876Y889D01*
X16884Y883D01*
X16891Y877D01*
X16897Y872D01*
X16903Y868D01*
X16908Y864D01*
X16912Y862D01*
X16915Y859D01*
X16917Y858D01*
X16918Y857D01*
X16919Y857D01*
X16933Y849D01*
X16948Y842D01*
X16961Y838D01*
X16974Y834D01*
X16979Y833D01*
X16984Y832D01*
X16989Y831D01*
X16993Y830D01*
X16996Y830D01*
X16998D01*
X17000Y829D01*
X16571D01*
X17000D01*
Y1117D01*
D02*
G37*
G36*
X17008Y767D02*
D01*
Y601D01*
X17008Y619D01*
X17007Y628D01*
X17006Y636D01*
X17005Y642D01*
X17004Y649D01*
X17003Y656D01*
X17002Y661D01*
X17001Y666D01*
X16999Y671D01*
X16998Y674D01*
X16997Y678D01*
X16996Y680D01*
X16996Y682D01*
X16995Y683D01*
Y683D01*
X16990Y694D01*
X16984Y704D01*
X16978Y713D01*
X16973Y720D01*
X16968Y726D01*
X16964Y730D01*
X16962Y733D01*
X16961Y734D01*
X16952Y740D01*
X16943Y745D01*
X16934Y750D01*
X16925Y753D01*
X16918Y756D01*
X16915Y757D01*
X16912Y758D01*
X16910Y758D01*
X16908Y759D01*
X16907Y759D01*
X16907D01*
X16900Y761D01*
X16893Y762D01*
X16884Y763D01*
X16876Y764D01*
X16858Y765D01*
X16840Y766D01*
X16831Y766D01*
X16824D01*
X16816Y767D01*
X17008D01*
X16572D01*
Y680D01*
X16810D01*
X16819D01*
X16827D01*
X16835Y680D01*
X16843D01*
X16849Y679D01*
X16855D01*
X16861Y679D01*
X16866Y678D01*
X16870Y678D01*
X16873D01*
X16876Y677D01*
X16878Y677D01*
X16880D01*
X16882Y676D01*
X16882D01*
X16883D01*
X16891Y674D01*
X16898Y671D01*
X16904Y667D01*
X16909Y663D01*
X16914Y659D01*
X16917Y656D01*
X16919Y654D01*
X16920Y653D01*
X16925Y646D01*
X16928Y637D01*
X16931Y628D01*
X16932Y619D01*
X16933Y611D01*
X16934Y607D01*
Y604D01*
X16934Y602D01*
Y598D01*
X16934Y586D01*
X16932Y575D01*
X16929Y565D01*
X16926Y557D01*
X16924Y550D01*
X16921Y546D01*
X16919Y543D01*
X16919Y542D01*
X16912Y535D01*
X16905Y529D01*
X16898Y525D01*
X16891Y521D01*
X16885Y519D01*
X16881Y517D01*
X16879Y516D01*
X16877D01*
X16877Y516D01*
X16876D01*
X16873Y515D01*
X16869Y515D01*
X16864Y514D01*
X16858D01*
X16847Y513D01*
X16834D01*
X16823Y513D01*
X16818D01*
X16814D01*
X16810D01*
X16807D01*
X16805D01*
X16805D01*
X16572D01*
Y426D01*
X16814D01*
X16826Y427D01*
X16838Y427D01*
X16848Y428D01*
X16858Y428D01*
X16867Y429D01*
X16875Y430D01*
X16882Y431D01*
X16889Y431D01*
X16894Y432D01*
X16899Y433D01*
X16903Y433D01*
X16906Y434D01*
X16908Y434D01*
X16909Y435D01*
X16910D01*
X16919Y437D01*
X16928Y440D01*
X16936Y444D01*
X16943Y448D01*
X16949Y452D01*
X16954Y455D01*
X16957Y457D01*
X16957Y458D01*
X16958D01*
X16966Y466D01*
X16973Y474D01*
X16979Y483D01*
X16984Y490D01*
X16988Y497D01*
X16992Y503D01*
X16993Y505D01*
X16994Y507D01*
X16994Y508D01*
Y508D01*
X16997Y515D01*
X16999Y521D01*
X17002Y536D01*
X17005Y552D01*
X17006Y567D01*
X17007Y574D01*
Y580D01*
X17008Y586D01*
X17008Y591D01*
Y426D01*
D01*
Y767D01*
D02*
G37*
%LPD*%
G36*
X17000Y1616D02*
X16855Y1711D01*
X17000Y1806D01*
Y1616D01*
D02*
G37*
%LPC*%
G36*
X20398Y22694D02*
D01*
Y22451D01*
X20179D01*
Y22366D01*
X20295D01*
Y22302D01*
X20286Y22295D01*
X20277Y22289D01*
X20267Y22284D01*
X20259Y22280D01*
X20251Y22277D01*
X20245Y22274D01*
X20242Y22272D01*
X20241Y22272D01*
X20240Y22271D01*
X20239D01*
X20228Y22267D01*
X20216Y22264D01*
X20205Y22262D01*
X20196Y22261D01*
X20187Y22260D01*
X20181Y22259D01*
X20176D01*
X20164Y22260D01*
X20152Y22261D01*
X20142Y22263D01*
X20132Y22266D01*
X20123Y22270D01*
X20114Y22273D01*
X20106Y22277D01*
X20099Y22282D01*
X20092Y22286D01*
X20087Y22290D01*
X20082Y22293D01*
X20078Y22297D01*
X20075Y22300D01*
X20073Y22302D01*
X20071Y22303D01*
X20071Y22304D01*
X20064Y22313D01*
X20058Y22323D01*
X20053Y22333D01*
X20048Y22344D01*
X20044Y22355D01*
X20041Y22366D01*
X20036Y22388D01*
X20035Y22398D01*
X20034Y22408D01*
X20032Y22416D01*
X20032Y22424D01*
X20031Y22430D01*
Y22435D01*
Y22437D01*
Y22439D01*
X20032Y22454D01*
X20033Y22468D01*
X20035Y22481D01*
X20038Y22493D01*
X20040Y22504D01*
X20043Y22515D01*
X20047Y22524D01*
X20051Y22533D01*
X20054Y22540D01*
X20058Y22546D01*
X20061Y22552D01*
X20064Y22556D01*
X20067Y22560D01*
X20068Y22563D01*
X20070Y22564D01*
X20070Y22565D01*
X20078Y22572D01*
X20086Y22579D01*
X20095Y22584D01*
X20103Y22589D01*
X20112Y22593D01*
X20122Y22597D01*
X20130Y22600D01*
X20138Y22602D01*
X20146Y22604D01*
X20153Y22605D01*
X20160Y22606D01*
X20165Y22607D01*
X20170Y22607D01*
X20176D01*
X20192Y22606D01*
X20207Y22604D01*
X20219Y22600D01*
X20230Y22597D01*
X20238Y22593D01*
X20242Y22591D01*
X20245Y22589D01*
X20247Y22587D01*
X20249Y22587D01*
X20249Y22586D01*
X20250D01*
X20260Y22577D01*
X20268Y22567D01*
X20276Y22558D01*
X20281Y22548D01*
X20285Y22540D01*
X20288Y22533D01*
X20289Y22531D01*
X20290Y22529D01*
X20291Y22528D01*
Y22527D01*
X20391Y22546D01*
X20388Y22559D01*
X20384Y22570D01*
X20380Y22581D01*
X20375Y22592D01*
X20369Y22602D01*
X20363Y22611D01*
X20358Y22619D01*
X20352Y22626D01*
X20346Y22633D01*
X20341Y22639D01*
X20336Y22643D01*
X20332Y22647D01*
X20328Y22650D01*
X20326Y22653D01*
X20324Y22654D01*
X20323Y22654D01*
X20313Y22661D01*
X20302Y22667D01*
X20290Y22673D01*
X20278Y22677D01*
X20266Y22681D01*
X20253Y22684D01*
X20242Y22687D01*
X20230Y22689D01*
X20219Y22690D01*
X20209Y22692D01*
X20200Y22693D01*
X20192Y22693D01*
X20185Y22694D01*
X20398D01*
X19926D01*
X20163D01*
X20151Y22693D01*
X20138Y22692D01*
X20127Y22690D01*
X20116Y22688D01*
X20106Y22686D01*
X20097Y22683D01*
X20089Y22681D01*
X20081Y22679D01*
X20075Y22676D01*
X20069Y22674D01*
X20064Y22672D01*
X20061Y22671D01*
X20058Y22669D01*
X20056Y22669D01*
X20056Y22668D01*
X20044Y22662D01*
X20034Y22655D01*
X20023Y22647D01*
X20014Y22640D01*
X20005Y22632D01*
X19997Y22624D01*
X19990Y22616D01*
X19983Y22609D01*
X19978Y22602D01*
X19973Y22595D01*
X19969Y22590D01*
X19965Y22584D01*
X19962Y22580D01*
X19961Y22577D01*
X19959Y22575D01*
X19959Y22574D01*
X19953Y22563D01*
X19948Y22551D01*
X19944Y22539D01*
X19940Y22527D01*
X19934Y22503D01*
X19932Y22492D01*
X19930Y22482D01*
X19929Y22472D01*
X19928Y22463D01*
X19927Y22455D01*
X19927Y22448D01*
X19926Y22442D01*
Y22435D01*
X19927Y22421D01*
X19927Y22408D01*
X19931Y22383D01*
X19933Y22371D01*
X19936Y22360D01*
X19938Y22349D01*
X19941Y22340D01*
X19944Y22331D01*
X19946Y22323D01*
X19948Y22316D01*
X19951Y22311D01*
X19952Y22306D01*
X19954Y22303D01*
X19955Y22300D01*
X19955Y22300D01*
X19961Y22289D01*
X19968Y22278D01*
X19975Y22268D01*
X19982Y22259D01*
X19989Y22250D01*
X19997Y22243D01*
X20004Y22236D01*
X20011Y22229D01*
X20018Y22223D01*
X20024Y22219D01*
X20029Y22214D01*
X20034Y22211D01*
X20038Y22208D01*
X20042Y22207D01*
X20043Y22205D01*
X20044Y22205D01*
X20055Y22199D01*
X20067Y22194D01*
X20078Y22190D01*
X20091Y22186D01*
X20113Y22180D01*
X20124Y22178D01*
X20135Y22176D01*
X20145Y22175D01*
X20154Y22174D01*
X20162Y22173D01*
X20169Y22173D01*
X20175Y22172D01*
X19926D01*
X20182D01*
X20205Y22173D01*
X20228Y22176D01*
X20248Y22180D01*
X20257Y22182D01*
X20267Y22184D01*
X20275Y22186D01*
X20282Y22188D01*
X20289Y22190D01*
X20294Y22192D01*
X20299Y22193D01*
X20302Y22194D01*
X20304Y22195D01*
X20305D01*
X20316Y22200D01*
X20326Y22205D01*
X20336Y22209D01*
X20345Y22214D01*
X20354Y22218D01*
X20361Y22223D01*
X20368Y22227D01*
X20374Y22232D01*
X20380Y22235D01*
X20384Y22239D01*
X20389Y22242D01*
X20392Y22244D01*
X20394Y22247D01*
X20396Y22249D01*
X20397Y22249D01*
X20398Y22250D01*
Y22186D01*
Y22694D01*
D02*
G37*
G36*
X21422Y22686D02*
X21000D01*
Y22182D01*
X21191D01*
X21211Y22182D01*
X21220Y22183D01*
X21229Y22183D01*
X21237Y22184D01*
X21244Y22185D01*
X21251Y22186D01*
X21257Y22187D01*
X21262Y22188D01*
X21268Y22188D01*
X21272Y22190D01*
X21275Y22190D01*
X21278Y22191D01*
X21279Y22191D01*
X21281Y22192D01*
X21281D01*
X21297Y22198D01*
X21311Y22204D01*
X21324Y22211D01*
X21334Y22218D01*
X21342Y22223D01*
X21348Y22228D01*
X21350Y22230D01*
X21352Y22231D01*
X21352Y22232D01*
X21353D01*
X21365Y22246D01*
X21376Y22260D01*
X21385Y22275D01*
X21393Y22289D01*
X21396Y22296D01*
X21399Y22302D01*
X21401Y22307D01*
X21403Y22312D01*
X21405Y22316D01*
X21406Y22319D01*
X21406Y22321D01*
Y22321D01*
X21412Y22339D01*
X21416Y22357D01*
X21418Y22375D01*
X21420Y22392D01*
X21421Y22400D01*
X21422Y22407D01*
Y22413D01*
X21422Y22418D01*
Y22442D01*
X21422Y22454D01*
X21420Y22466D01*
X21420Y22477D01*
X21418Y22488D01*
X21417Y22497D01*
X21415Y22506D01*
X21414Y22514D01*
X21412Y22522D01*
X21411Y22528D01*
X21409Y22534D01*
X21408Y22539D01*
X21407Y22543D01*
X21406Y22545D01*
X21405Y22547D01*
Y22548D01*
X21398Y22565D01*
X21391Y22581D01*
X21383Y22595D01*
X21376Y22607D01*
X21371Y22612D01*
X21369Y22616D01*
X21365Y22620D01*
X21363Y22623D01*
X21360Y22626D01*
X21359Y22627D01*
X21358Y22629D01*
X21357Y22629D01*
X21345Y22641D01*
X21332Y22651D01*
X21320Y22659D01*
X21308Y22665D01*
X21297Y22670D01*
X21293Y22672D01*
X21289Y22674D01*
X21286Y22675D01*
X21283Y22675D01*
X21282Y22676D01*
X21282D01*
X21275Y22678D01*
X21268Y22679D01*
X21253Y22682D01*
X21237Y22683D01*
X21221Y22685D01*
X21214Y22685D01*
X21207D01*
X21201Y22686D01*
X21422D01*
D01*
D02*
G37*
G36*
X20892D02*
X20493D01*
Y22182D01*
X20587D01*
Y22511D01*
X20790Y22182D01*
X20892D01*
Y22686D01*
D02*
G37*
%LPD*%
G36*
X21179Y22600D02*
X21187D01*
X21194Y22600D01*
X21201Y22599D01*
X21207Y22598D01*
X21212D01*
X21217Y22598D01*
X21221Y22597D01*
X21224Y22597D01*
X21227Y22596D01*
X21229D01*
X21230Y22595D01*
X21231D01*
X21241Y22593D01*
X21250Y22589D01*
X21258Y22586D01*
X21265Y22581D01*
X21271Y22577D01*
X21274Y22574D01*
X21277Y22572D01*
X21278Y22572D01*
X21284Y22565D01*
X21290Y22556D01*
X21295Y22548D01*
X21299Y22541D01*
X21303Y22534D01*
X21305Y22528D01*
X21306Y22525D01*
X21306Y22524D01*
X21307Y22523D01*
Y22523D01*
X21309Y22517D01*
X21310Y22510D01*
X21313Y22496D01*
X21315Y22481D01*
X21316Y22467D01*
X21317Y22460D01*
Y22453D01*
Y22448D01*
X21317Y22443D01*
Y22439D01*
Y22436D01*
Y22434D01*
Y22433D01*
Y22423D01*
X21317Y22412D01*
X21316Y22403D01*
X21316Y22394D01*
X21315Y22386D01*
X21314Y22378D01*
X21313Y22371D01*
X21312Y22365D01*
X21311Y22359D01*
X21310Y22355D01*
X21309Y22351D01*
X21309Y22347D01*
X21308Y22344D01*
X21307Y22342D01*
X21307Y22341D01*
Y22341D01*
X21303Y22329D01*
X21298Y22319D01*
X21294Y22310D01*
X21289Y22303D01*
X21286Y22298D01*
X21283Y22295D01*
X21281Y22292D01*
X21280Y22292D01*
X21274Y22286D01*
X21267Y22282D01*
X21260Y22279D01*
X21254Y22276D01*
X21248Y22274D01*
X21243Y22272D01*
X21240Y22272D01*
X21239Y22271D01*
X21231Y22270D01*
X21222Y22268D01*
X21212Y22268D01*
X21202Y22267D01*
X21193Y22267D01*
X21102D01*
Y22601D01*
X21169D01*
X21179Y22600D01*
D02*
G37*
G36*
X20798Y22349D02*
X20591Y22686D01*
X20798D01*
Y22349D01*
D02*
G37*
%LPC*%
G36*
X9444Y2047D02*
X9016D01*
D01*
X9223D01*
X9212Y2047D01*
X9202Y2046D01*
X9193Y2045D01*
X9184Y2044D01*
X9176Y2043D01*
X9168Y2042D01*
X9161Y2041D01*
X9155Y2039D01*
X9149Y2038D01*
X9144Y2037D01*
X9140Y2036D01*
X9137Y2035D01*
X9135Y2034D01*
X9134Y2033D01*
X9133D01*
X9118Y2027D01*
X9105Y2021D01*
X9093Y2014D01*
X9083Y2008D01*
X9079Y2004D01*
X9075Y2002D01*
X9072Y1999D01*
X9069Y1997D01*
X9067Y1995D01*
X9065Y1994D01*
X9064Y1993D01*
X9064Y1993D01*
X9054Y1982D01*
X9045Y1971D01*
X9039Y1960D01*
X9033Y1950D01*
X9029Y1942D01*
X9028Y1938D01*
X9026Y1935D01*
X9025Y1932D01*
X9025Y1930D01*
X9024Y1929D01*
Y1928D01*
X9023Y1923D01*
X9021Y1917D01*
X9019Y1903D01*
X9018Y1890D01*
X9017Y1877D01*
X9016Y1871D01*
Y1865D01*
X9016Y1860D01*
Y1689D01*
X9444D01*
Y1851D01*
X9443Y1868D01*
X9443Y1876D01*
X9442Y1884D01*
X9442Y1890D01*
X9441Y1897D01*
X9440Y1902D01*
X9439Y1907D01*
X9438Y1912D01*
X9438Y1916D01*
X9437Y1920D01*
X9436Y1922D01*
X9436Y1925D01*
X9435Y1926D01*
X9435Y1927D01*
Y1928D01*
X9430Y1941D01*
X9425Y1953D01*
X9419Y1964D01*
X9413Y1972D01*
X9408Y1979D01*
X9404Y1985D01*
X9403Y1986D01*
X9402Y1988D01*
X9401Y1988D01*
Y1989D01*
X9389Y1999D01*
X9377Y2008D01*
X9364Y2016D01*
X9352Y2023D01*
X9346Y2025D01*
X9341Y2028D01*
X9337Y2030D01*
X9333Y2031D01*
X9330Y2033D01*
X9327Y2034D01*
X9326Y2034D01*
X9325D01*
X9310Y2039D01*
X9295Y2042D01*
X9280Y2044D01*
X9265Y2046D01*
X9259Y2046D01*
X9253Y2047D01*
X9247D01*
X9243Y2047D01*
X9444D01*
D01*
D02*
G37*
G36*
Y1598D02*
X9016D01*
Y1258D01*
X9444D01*
Y1339D01*
X9164D01*
X9444Y1511D01*
Y1598D01*
D02*
G37*
G36*
X9452Y1178D02*
X9009D01*
D01*
X9215D01*
Y992D01*
X9287D01*
Y1091D01*
X9342D01*
X9347Y1083D01*
X9352Y1075D01*
X9357Y1067D01*
X9360Y1059D01*
X9363Y1053D01*
X9366Y1048D01*
X9367Y1046D01*
X9367Y1045D01*
X9368Y1044D01*
Y1043D01*
X9371Y1033D01*
X9374Y1023D01*
X9376Y1014D01*
X9377Y1006D01*
X9378Y999D01*
X9378Y994D01*
Y989D01*
X9378Y979D01*
X9377Y969D01*
X9375Y960D01*
X9372Y952D01*
X9369Y944D01*
X9366Y937D01*
X9363Y930D01*
X9359Y924D01*
X9355Y918D01*
X9352Y914D01*
X9349Y909D01*
X9346Y907D01*
X9343Y904D01*
X9341Y902D01*
X9340Y901D01*
X9340Y900D01*
X9333Y894D01*
X9324Y889D01*
X9315Y885D01*
X9306Y881D01*
X9296Y877D01*
X9287Y875D01*
X9269Y871D01*
X9260Y869D01*
X9252Y868D01*
X9244Y867D01*
X9238Y867D01*
X9233Y866D01*
X9229D01*
X9227D01*
X9226D01*
X9213Y867D01*
X9201Y868D01*
X9189Y869D01*
X9179Y872D01*
X9170Y874D01*
X9161Y877D01*
X9153Y880D01*
X9145Y883D01*
X9139Y886D01*
X9134Y889D01*
X9129Y892D01*
X9126Y895D01*
X9123Y897D01*
X9120Y898D01*
X9119Y899D01*
X9119Y900D01*
X9112Y906D01*
X9107Y913D01*
X9102Y920D01*
X9098Y928D01*
X9094Y935D01*
X9091Y943D01*
X9089Y950D01*
X9087Y957D01*
X9086Y964D01*
X9085Y970D01*
X9084Y976D01*
X9083Y980D01*
X9083Y984D01*
Y990D01*
X9084Y1003D01*
X9086Y1015D01*
X9089Y1026D01*
X9091Y1035D01*
X9095Y1042D01*
X9096Y1045D01*
X9098Y1048D01*
X9099Y1050D01*
X9100Y1051D01*
X9101Y1052D01*
Y1052D01*
X9108Y1061D01*
X9116Y1068D01*
X9125Y1074D01*
X9133Y1079D01*
X9139Y1082D01*
X9145Y1085D01*
X9147Y1086D01*
X9149Y1086D01*
X9150Y1087D01*
X9150D01*
X9135Y1172D01*
X9124Y1169D01*
X9114Y1166D01*
X9104Y1162D01*
X9095Y1158D01*
X9087Y1153D01*
X9080Y1149D01*
X9073Y1144D01*
X9066Y1139D01*
X9061Y1134D01*
X9056Y1129D01*
X9052Y1125D01*
X9048Y1122D01*
X9046Y1119D01*
X9044Y1116D01*
X9043Y1115D01*
X9042Y1114D01*
X9037Y1106D01*
X9032Y1096D01*
X9027Y1086D01*
X9023Y1076D01*
X9020Y1065D01*
X9017Y1055D01*
X9015Y1045D01*
X9013Y1035D01*
X9012Y1026D01*
X9011Y1017D01*
X9010Y1009D01*
X9009Y1003D01*
X9009Y997D01*
Y978D01*
X9010Y968D01*
X9011Y957D01*
X9012Y948D01*
X9014Y939D01*
X9016Y930D01*
X9018Y922D01*
X9020Y915D01*
X9022Y909D01*
X9024Y904D01*
X9026Y899D01*
X9027Y895D01*
X9029Y892D01*
X9030Y889D01*
X9030Y888D01*
X9031Y887D01*
X9036Y877D01*
X9042Y868D01*
X9048Y859D01*
X9055Y852D01*
X9061Y844D01*
X9068Y838D01*
X9075Y831D01*
X9081Y826D01*
X9087Y821D01*
X9092Y817D01*
X9097Y813D01*
X9102Y810D01*
X9105Y808D01*
X9108Y807D01*
X9110Y806D01*
X9110Y805D01*
X9120Y800D01*
X9130Y796D01*
X9140Y792D01*
X9151Y789D01*
X9171Y784D01*
X9180Y782D01*
X9189Y781D01*
X9197Y780D01*
X9205Y779D01*
X9212Y778D01*
X9218Y778D01*
X9223Y777D01*
X9229D01*
X9240Y778D01*
X9252Y778D01*
X9273Y781D01*
X9283Y783D01*
X9292Y785D01*
X9301Y787D01*
X9309Y790D01*
X9317Y792D01*
X9324Y794D01*
X9330Y796D01*
X9334Y798D01*
X9338Y800D01*
X9341Y801D01*
X9343Y802D01*
X9343Y802D01*
X9353Y807D01*
X9362Y812D01*
X9370Y818D01*
X9378Y824D01*
X9385Y831D01*
X9392Y837D01*
X9398Y843D01*
X9403Y849D01*
X9408Y855D01*
X9412Y860D01*
X9416Y865D01*
X9419Y869D01*
X9421Y872D01*
X9423Y875D01*
X9424Y877D01*
X9424Y877D01*
X9429Y887D01*
X9433Y897D01*
X9437Y907D01*
X9440Y917D01*
X9445Y936D01*
X9447Y946D01*
X9448Y955D01*
X9449Y963D01*
X9450Y971D01*
X9451Y977D01*
X9451Y983D01*
X9452Y988D01*
Y995D01*
X9451Y1014D01*
X9449Y1033D01*
X9445Y1051D01*
X9444Y1058D01*
X9442Y1066D01*
X9440Y1073D01*
X9438Y1080D01*
X9436Y1085D01*
X9435Y1090D01*
X9434Y1094D01*
X9433Y1096D01*
X9432Y1098D01*
Y1099D01*
X9428Y1108D01*
X9424Y1117D01*
X9421Y1125D01*
X9417Y1133D01*
X9413Y1140D01*
X9409Y1147D01*
X9405Y1153D01*
X9401Y1157D01*
X9398Y1162D01*
X9395Y1166D01*
X9392Y1170D01*
X9390Y1173D01*
X9388Y1175D01*
X9387Y1176D01*
X9386Y1177D01*
X9386Y1178D01*
X9452D01*
D01*
D02*
G37*
%LPD*%
G36*
X9248Y1958D02*
X9256Y1957D01*
X9263Y1957D01*
X9271Y1956D01*
X9277Y1955D01*
X9283Y1955D01*
X9288Y1954D01*
X9293Y1953D01*
X9297Y1952D01*
X9300Y1951D01*
X9303Y1951D01*
X9306Y1950D01*
X9307Y1950D01*
X9308Y1949D01*
X9309D01*
X9319Y1946D01*
X9328Y1942D01*
X9335Y1939D01*
X9340Y1935D01*
X9345Y1932D01*
X9348Y1929D01*
X9350Y1927D01*
X9350Y1927D01*
X9355Y1921D01*
X9358Y1915D01*
X9361Y1910D01*
X9364Y1904D01*
X9365Y1899D01*
X9367Y1896D01*
X9367Y1893D01*
X9368Y1892D01*
X9369Y1885D01*
X9370Y1877D01*
X9371Y1869D01*
X9371Y1860D01*
X9372Y1852D01*
Y1776D01*
X9088D01*
Y1833D01*
X9089Y1841D01*
Y1848D01*
X9089Y1854D01*
X9089Y1860D01*
X9090Y1865D01*
Y1869D01*
X9090Y1873D01*
X9091Y1877D01*
X9091Y1879D01*
X9092Y1882D01*
Y1883D01*
X9092Y1884D01*
Y1885D01*
X9095Y1894D01*
X9098Y1901D01*
X9101Y1908D01*
X9104Y1914D01*
X9108Y1919D01*
X9110Y1922D01*
X9112Y1924D01*
X9113Y1925D01*
X9119Y1930D01*
X9126Y1935D01*
X9133Y1940D01*
X9139Y1943D01*
X9145Y1946D01*
X9150Y1948D01*
X9152Y1948D01*
X9153Y1949D01*
X9154Y1949D01*
X9154D01*
X9159Y1951D01*
X9165Y1952D01*
X9177Y1954D01*
X9190Y1956D01*
X9202Y1957D01*
X9208Y1958D01*
X9213D01*
X9218D01*
X9222Y1958D01*
X9225D01*
X9228D01*
X9230D01*
X9230D01*
X9239D01*
X9248Y1958D01*
D02*
G37*
G36*
X9016Y1342D02*
Y1517D01*
X9302D01*
X9016Y1342D01*
D02*
G37*
%LPC*%
G36*
X20598Y21683D02*
D01*
Y21355D01*
X20598Y21368D01*
X20597Y21381D01*
X20594Y21394D01*
X20591Y21405D01*
X20588Y21416D01*
X20584Y21426D01*
X20580Y21435D01*
X20576Y21444D01*
X20572Y21451D01*
X20568Y21458D01*
X20564Y21463D01*
X20561Y21468D01*
X20558Y21472D01*
X20555Y21474D01*
X20554Y21476D01*
X20554Y21477D01*
X20545Y21485D01*
X20536Y21492D01*
X20527Y21499D01*
X20517Y21504D01*
X20509Y21509D01*
X20499Y21512D01*
X20491Y21516D01*
X20482Y21518D01*
X20474Y21520D01*
X20467Y21521D01*
X20461Y21523D01*
X20455Y21523D01*
X20451D01*
X20447Y21524D01*
X20445D01*
X20432Y21523D01*
X20420Y21521D01*
X20409Y21518D01*
X20399Y21516D01*
X20390Y21513D01*
X20384Y21510D01*
X20382Y21509D01*
X20380Y21508D01*
X20379Y21507D01*
X20379D01*
X20394Y21593D01*
X20576D01*
Y21683D01*
X20260D01*
X20321D01*
X20271Y21421D01*
X20349Y21410D01*
X20356Y21416D01*
X20362Y21422D01*
X20369Y21427D01*
X20375Y21431D01*
X20382Y21435D01*
X20387Y21438D01*
X20399Y21442D01*
X20409Y21445D01*
X20414Y21446D01*
X20417Y21446D01*
X20420Y21447D01*
X20424D01*
X20436Y21446D01*
X20447Y21443D01*
X20456Y21439D01*
X20464Y21435D01*
X20470Y21430D01*
X20475Y21426D01*
X20477Y21424D01*
X20478Y21423D01*
X20485Y21413D01*
X20491Y21402D01*
X20494Y21390D01*
X20497Y21379D01*
X20498Y21369D01*
X20499Y21365D01*
Y21360D01*
X20499Y21358D01*
Y21355D01*
Y21353D01*
Y21353D01*
Y21344D01*
X20498Y21335D01*
X20498Y21327D01*
X20496Y21320D01*
X20495Y21313D01*
X20493Y21307D01*
X20491Y21302D01*
X20489Y21297D01*
X20487Y21292D01*
X20485Y21289D01*
X20483Y21285D01*
X20482Y21283D01*
X20479Y21279D01*
X20478Y21278D01*
X20470Y21270D01*
X20461Y21264D01*
X20453Y21260D01*
X20445Y21257D01*
X20438Y21255D01*
X20432Y21254D01*
X20430Y21254D01*
X20427D01*
X20417Y21254D01*
X20408Y21257D01*
X20400Y21260D01*
X20393Y21263D01*
X20388Y21267D01*
X20383Y21270D01*
X20381Y21272D01*
X20380Y21272D01*
X20373Y21280D01*
X20368Y21289D01*
X20363Y21298D01*
X20361Y21306D01*
X20358Y21313D01*
X20357Y21320D01*
X20356Y21322D01*
X20356Y21324D01*
Y21324D01*
Y21325D01*
X20260Y21314D01*
D01*
X20261Y21303D01*
X20264Y21292D01*
X20267Y21282D01*
X20271Y21272D01*
X20275Y21263D01*
X20280Y21254D01*
X20284Y21247D01*
X20289Y21240D01*
X20293Y21234D01*
X20298Y21229D01*
X20301Y21224D01*
X20305Y21221D01*
X20308Y21218D01*
X20310Y21215D01*
X20311Y21214D01*
X20312Y21214D01*
X20320Y21207D01*
X20329Y21201D01*
X20338Y21196D01*
X20348Y21192D01*
X20358Y21188D01*
X20367Y21186D01*
X20386Y21181D01*
X20394Y21179D01*
X20401Y21178D01*
X20408Y21177D01*
X20414Y21177D01*
X20419Y21176D01*
X20426D01*
X20442Y21177D01*
X20457Y21179D01*
X20471Y21183D01*
X20484Y21187D01*
X20496Y21191D01*
X20507Y21197D01*
X20517Y21203D01*
X20527Y21209D01*
X20535Y21216D01*
X20542Y21222D01*
X20548Y21228D01*
X20553Y21232D01*
X20557Y21237D01*
X20560Y21240D01*
X20562Y21242D01*
X20562Y21243D01*
X20569Y21252D01*
X20574Y21262D01*
X20579Y21271D01*
X20583Y21281D01*
X20587Y21291D01*
X20590Y21300D01*
X20594Y21317D01*
X20596Y21325D01*
X20597Y21332D01*
X20597Y21339D01*
X20598Y21344D01*
X20598Y21349D01*
Y21197D01*
Y21683D01*
D02*
G37*
G36*
X21089Y21690D02*
X20980D01*
X20857Y21317D01*
X20730Y21690D01*
X20791D01*
X20620D01*
X20799Y21186D01*
X20620D01*
X21089D01*
D01*
X20910D01*
X21089Y21690D01*
D02*
G37*
G36*
X21489Y20694D02*
D01*
Y20432D01*
X21489Y20455D01*
X21486Y20476D01*
X21483Y20496D01*
X21479Y20514D01*
X21474Y20531D01*
X21468Y20547D01*
X21462Y20562D01*
X21456Y20574D01*
X21450Y20586D01*
X21443Y20596D01*
X21438Y20605D01*
X21433Y20612D01*
X21429Y20618D01*
X21425Y20622D01*
X21423Y20624D01*
X21422Y20625D01*
X21409Y20637D01*
X21395Y20647D01*
X21381Y20657D01*
X21366Y20665D01*
X21351Y20671D01*
X21337Y20677D01*
X21322Y20682D01*
X21308Y20685D01*
X21295Y20688D01*
X21283Y20690D01*
X21272Y20692D01*
X21262Y20693D01*
X21254Y20693D01*
X21248Y20694D01*
X21489D01*
X21000D01*
D01*
X21244D01*
X21222Y20693D01*
X21201Y20691D01*
X21191Y20689D01*
X21182Y20688D01*
X21174Y20686D01*
X21166Y20684D01*
X21159Y20682D01*
X21153Y20680D01*
X21148Y20678D01*
X21143Y20677D01*
X21139Y20675D01*
X21137Y20675D01*
X21135Y20674D01*
X21135D01*
X21122Y20668D01*
X21110Y20660D01*
X21099Y20653D01*
X21089Y20646D01*
X21081Y20639D01*
X21075Y20633D01*
X21073Y20631D01*
X21071Y20629D01*
X21071Y20629D01*
X21070Y20628D01*
X21060Y20616D01*
X21050Y20605D01*
X21042Y20593D01*
X21035Y20583D01*
X21030Y20573D01*
X21028Y20569D01*
X21026Y20566D01*
X21025Y20563D01*
X21023Y20561D01*
X21023Y20560D01*
Y20559D01*
X21015Y20539D01*
X21009Y20517D01*
X21006Y20495D01*
X21004Y20485D01*
X21003Y20475D01*
X21002Y20465D01*
X21001Y20457D01*
X21001Y20449D01*
Y20443D01*
X21000Y20437D01*
Y20430D01*
X21001Y20408D01*
X21003Y20387D01*
X21006Y20367D01*
X21011Y20349D01*
X21015Y20333D01*
X21021Y20317D01*
X21027Y20303D01*
X21033Y20290D01*
X21039Y20278D01*
X21045Y20268D01*
X21051Y20260D01*
X21055Y20253D01*
X21060Y20247D01*
X21063Y20244D01*
X21065Y20241D01*
X21066Y20240D01*
X21079Y20228D01*
X21093Y20218D01*
X21107Y20209D01*
X21122Y20201D01*
X21137Y20194D01*
X21152Y20189D01*
X21166Y20184D01*
X21180Y20181D01*
X21194Y20178D01*
X21206Y20176D01*
X21217Y20175D01*
X21226Y20173D01*
X21234Y20173D01*
X21240Y20172D01*
X21245D01*
X21265Y20173D01*
X21285Y20175D01*
X21303Y20179D01*
X21320Y20183D01*
X21335Y20188D01*
X21350Y20194D01*
X21363Y20200D01*
X21376Y20207D01*
X21387Y20213D01*
X21396Y20219D01*
X21404Y20225D01*
X21411Y20230D01*
X21416Y20235D01*
X21420Y20238D01*
X21422Y20240D01*
X21423Y20241D01*
X21434Y20254D01*
X21445Y20269D01*
X21454Y20284D01*
X21461Y20300D01*
X21468Y20316D01*
X21473Y20332D01*
X21478Y20347D01*
X21481Y20362D01*
X21483Y20377D01*
X21486Y20390D01*
X21488Y20402D01*
X21488Y20412D01*
X21489Y20421D01*
X21489Y20424D01*
Y20178D01*
Y20694D01*
D02*
G37*
G36*
X20968Y20686D02*
X20865D01*
X20788Y20333D01*
X20700Y20686D01*
X20789D01*
X20579D01*
X20487Y20339D01*
X20411Y20686D01*
X20307D01*
D01*
X20426Y20182D01*
X20307D01*
X20538D01*
X20637Y20558D01*
X20738Y20182D01*
X20846D01*
X20968Y20686D01*
D02*
G37*
G36*
X20270Y20694D02*
X19859D01*
D01*
X20062D01*
X20041Y20693D01*
X20022Y20691D01*
X20013Y20690D01*
X20005Y20688D01*
X19997Y20686D01*
X19990Y20685D01*
X19984Y20683D01*
X19979Y20682D01*
X19974Y20680D01*
X19970Y20679D01*
X19966Y20678D01*
X19964Y20676D01*
X19963Y20676D01*
X19962D01*
X19948Y20669D01*
X19936Y20661D01*
X19924Y20652D01*
X19916Y20644D01*
X19909Y20636D01*
X19903Y20630D01*
X19902Y20628D01*
X19901Y20626D01*
X19899Y20625D01*
Y20625D01*
X19892Y20612D01*
X19887Y20600D01*
X19883Y20587D01*
X19881Y20576D01*
X19879Y20567D01*
X19878Y20563D01*
Y20559D01*
X19878Y20556D01*
Y20555D01*
Y20553D01*
Y20553D01*
X19878Y20542D01*
X19880Y20531D01*
X19882Y20521D01*
X19885Y20511D01*
X19888Y20503D01*
X19892Y20495D01*
X19896Y20486D01*
X19901Y20479D01*
X19905Y20474D01*
X19909Y20468D01*
X19913Y20463D01*
X19917Y20459D01*
X19920Y20456D01*
X19922Y20453D01*
X19923Y20452D01*
X19924Y20451D01*
X19931Y20446D01*
X19938Y20441D01*
X19947Y20436D01*
X19956Y20431D01*
X19975Y20422D01*
X19994Y20415D01*
X20003Y20412D01*
X20011Y20409D01*
X20020Y20407D01*
X20026Y20405D01*
X20032Y20404D01*
X20036Y20402D01*
X20038Y20401D01*
X20039D01*
X20051Y20398D01*
X20061Y20396D01*
X20070Y20394D01*
X20079Y20391D01*
X20087Y20389D01*
X20093Y20387D01*
X20099Y20386D01*
X20104Y20384D01*
X20108Y20383D01*
X20112Y20383D01*
X20115Y20381D01*
X20117Y20381D01*
X20119Y20380D01*
X20120D01*
X20121Y20380D01*
X20130Y20376D01*
X20137Y20372D01*
X20144Y20369D01*
X20149Y20365D01*
X20152Y20362D01*
X20155Y20360D01*
X20157Y20358D01*
X20157Y20358D01*
X20161Y20353D01*
X20164Y20348D01*
X20165Y20342D01*
X20167Y20338D01*
X20168Y20334D01*
X20168Y20330D01*
Y20328D01*
Y20327D01*
Y20322D01*
X20167Y20317D01*
X20164Y20308D01*
X20160Y20299D01*
X20156Y20292D01*
X20151Y20286D01*
X20147Y20282D01*
X20144Y20279D01*
X20144Y20278D01*
X20143D01*
X20133Y20271D01*
X20121Y20267D01*
X20109Y20263D01*
X20096Y20260D01*
X20085Y20259D01*
X20081Y20258D01*
X20077D01*
X20073Y20258D01*
X20068D01*
X20052Y20259D01*
X20037Y20261D01*
X20025Y20265D01*
X20014Y20270D01*
X20006Y20274D01*
X20002Y20276D01*
X20000Y20278D01*
X19997Y20279D01*
X19996Y20280D01*
X19995Y20281D01*
X19994D01*
X19990Y20286D01*
X19985Y20291D01*
X19978Y20303D01*
X19971Y20314D01*
X19966Y20327D01*
X19962Y20338D01*
X19961Y20342D01*
X19960Y20347D01*
X19959Y20350D01*
X19959Y20352D01*
X19958Y20354D01*
Y20355D01*
X19859Y20345D01*
X19862Y20330D01*
X19864Y20315D01*
X19869Y20302D01*
X19873Y20289D01*
X19878Y20278D01*
X19883Y20267D01*
X19888Y20257D01*
X19894Y20249D01*
X19899Y20241D01*
X19903Y20235D01*
X19908Y20229D01*
X19912Y20224D01*
X19916Y20221D01*
X19918Y20218D01*
X19920Y20216D01*
X19920Y20216D01*
X19930Y20208D01*
X19941Y20201D01*
X19953Y20196D01*
X19965Y20191D01*
X19977Y20186D01*
X19989Y20183D01*
X20001Y20180D01*
X20013Y20177D01*
X20024Y20176D01*
X20035Y20175D01*
X20043Y20173D01*
X20052Y20173D01*
X20058D01*
X20063Y20172D01*
X20067D01*
X20091Y20173D01*
X20102Y20174D01*
X20112Y20175D01*
X20122Y20176D01*
X20131Y20178D01*
X20140Y20180D01*
X20147Y20182D01*
X20154Y20183D01*
X20160Y20184D01*
X20165Y20186D01*
X20169Y20187D01*
X20173Y20189D01*
X20176Y20190D01*
X20177Y20190D01*
X20178D01*
X20193Y20198D01*
X20207Y20207D01*
X20218Y20216D01*
X20228Y20225D01*
X20236Y20233D01*
X20241Y20240D01*
X20243Y20243D01*
X20245Y20244D01*
X20246Y20246D01*
Y20246D01*
X20254Y20261D01*
X20260Y20275D01*
X20264Y20289D01*
X20267Y20301D01*
X20268Y20307D01*
X20269Y20312D01*
X20270Y20317D01*
Y20320D01*
X20270Y20324D01*
Y20178D01*
Y20694D01*
D02*
G37*
G36*
X20968Y20686D02*
D01*
Y20182D01*
D01*
D01*
Y20686D01*
D02*
G37*
%LPD*%
G36*
X21257Y20607D02*
X21267Y20605D01*
X21278Y20603D01*
X21288Y20600D01*
X21296Y20597D01*
X21304Y20594D01*
X21312Y20590D01*
X21319Y20586D01*
X21325Y20581D01*
X21331Y20577D01*
X21335Y20574D01*
X21339Y20571D01*
X21342Y20568D01*
X21344Y20566D01*
X21345Y20565D01*
X21346Y20564D01*
X21353Y20556D01*
X21359Y20546D01*
X21364Y20536D01*
X21368Y20526D01*
X21372Y20515D01*
X21375Y20504D01*
X21380Y20484D01*
X21381Y20474D01*
X21383Y20464D01*
X21383Y20456D01*
X21384Y20449D01*
X21384Y20443D01*
Y20439D01*
Y20436D01*
Y20435D01*
X21384Y20419D01*
X21383Y20404D01*
X21381Y20390D01*
X21378Y20377D01*
X21375Y20365D01*
X21372Y20354D01*
X21368Y20344D01*
X21364Y20335D01*
X21361Y20328D01*
X21357Y20321D01*
X21354Y20316D01*
X21351Y20311D01*
X21348Y20307D01*
X21346Y20305D01*
X21345Y20303D01*
X21345Y20303D01*
X21337Y20295D01*
X21329Y20288D01*
X21321Y20282D01*
X21313Y20278D01*
X21304Y20273D01*
X21296Y20270D01*
X21288Y20267D01*
X21280Y20264D01*
X21273Y20263D01*
X21266Y20261D01*
X21260Y20260D01*
X21255Y20260D01*
X21251D01*
X21248Y20259D01*
X21245D01*
X21234Y20260D01*
X21223Y20261D01*
X21213Y20263D01*
X21204Y20266D01*
X21194Y20269D01*
X21186Y20273D01*
X21179Y20277D01*
X21172Y20281D01*
X21165Y20285D01*
X21160Y20289D01*
X21155Y20293D01*
X21151Y20296D01*
X21148Y20299D01*
X21146Y20301D01*
X21145Y20302D01*
X21144Y20303D01*
X21137Y20312D01*
X21131Y20321D01*
X21126Y20331D01*
X21121Y20342D01*
X21118Y20353D01*
X21114Y20363D01*
X21110Y20385D01*
X21109Y20394D01*
X21107Y20404D01*
X21106Y20412D01*
X21106Y20419D01*
X21105Y20425D01*
Y20430D01*
Y20432D01*
Y20433D01*
X21106Y20449D01*
X21107Y20464D01*
X21109Y20478D01*
X21111Y20491D01*
X21114Y20502D01*
X21117Y20513D01*
X21121Y20523D01*
X21124Y20531D01*
X21128Y20538D01*
X21131Y20545D01*
X21135Y20551D01*
X21138Y20555D01*
X21140Y20559D01*
X21142Y20562D01*
X21143Y20563D01*
X21144Y20563D01*
X21151Y20571D01*
X21159Y20578D01*
X21167Y20584D01*
X21176Y20588D01*
X21184Y20593D01*
X21193Y20597D01*
X21201Y20600D01*
X21209Y20602D01*
X21216Y20604D01*
X21223Y20605D01*
X21229Y20606D01*
X21234Y20607D01*
X21239Y20607D01*
X21245D01*
X21257Y20607D01*
D02*
G37*
G36*
X20270Y20328D02*
X20270Y20345D01*
X20267Y20360D01*
X20264Y20374D01*
X20260Y20386D01*
X20258Y20391D01*
X20256Y20395D01*
X20254Y20399D01*
X20253Y20402D01*
X20252Y20404D01*
X20251Y20407D01*
X20250Y20407D01*
Y20408D01*
X20242Y20419D01*
X20232Y20429D01*
X20223Y20438D01*
X20214Y20446D01*
X20206Y20451D01*
X20200Y20456D01*
X20197Y20457D01*
X20196Y20458D01*
X20194Y20459D01*
X20194D01*
X20187Y20463D01*
X20179Y20466D01*
X20162Y20472D01*
X20143Y20479D01*
X20126Y20484D01*
X20117Y20486D01*
X20109Y20489D01*
X20102Y20491D01*
X20096Y20492D01*
X20091Y20493D01*
X20087Y20495D01*
X20084Y20495D01*
X20084D01*
X20070Y20499D01*
X20059Y20502D01*
X20047Y20505D01*
X20038Y20508D01*
X20029Y20511D01*
X20022Y20514D01*
X20015Y20516D01*
X20009Y20518D01*
X20004Y20521D01*
X20000Y20523D01*
X19997Y20525D01*
X19994Y20526D01*
X19993Y20527D01*
X19992Y20528D01*
X19990Y20529D01*
X19985Y20534D01*
X19982Y20539D01*
X19979Y20544D01*
X19977Y20549D01*
X19976Y20553D01*
X19975Y20557D01*
Y20559D01*
Y20560D01*
X19976Y20567D01*
X19978Y20573D01*
X19980Y20578D01*
X19983Y20583D01*
X19986Y20586D01*
X19989Y20588D01*
X19990Y20590D01*
X19991Y20591D01*
X20001Y20597D01*
X20013Y20602D01*
X20024Y20605D01*
X20035Y20607D01*
X20045Y20608D01*
X20050Y20609D01*
X20053Y20609D01*
X20061D01*
X20076Y20609D01*
X20089Y20607D01*
X20100Y20604D01*
X20109Y20601D01*
X20116Y20598D01*
X20121Y20595D01*
X20124Y20593D01*
X20125Y20592D01*
X20133Y20585D01*
X20138Y20576D01*
X20144Y20567D01*
X20147Y20558D01*
X20150Y20549D01*
X20152Y20543D01*
X20153Y20540D01*
Y20538D01*
X20154Y20537D01*
Y20537D01*
X20256Y20540D01*
X20254Y20553D01*
X20253Y20565D01*
X20250Y20576D01*
X20246Y20587D01*
X20243Y20597D01*
X20238Y20607D01*
X20234Y20615D01*
X20229Y20622D01*
X20225Y20629D01*
X20220Y20635D01*
X20216Y20640D01*
X20212Y20644D01*
X20210Y20648D01*
X20207Y20650D01*
X20205Y20651D01*
X20205Y20652D01*
X20196Y20660D01*
X20185Y20666D01*
X20174Y20671D01*
X20162Y20676D01*
X20151Y20681D01*
X20138Y20683D01*
X20127Y20686D01*
X20116Y20689D01*
X20105Y20690D01*
X20095Y20692D01*
X20085Y20693D01*
X20078Y20693D01*
X20071Y20694D01*
X20270D01*
Y20328D01*
D02*
G37*
%LPC*%
G36*
X12202Y2399D02*
D01*
Y2105D01*
X12074Y2399D01*
X12004D01*
X11877Y2105D01*
D01*
X11959D01*
X12039Y2310D01*
X12119Y2105D01*
X11990D01*
X12202D01*
Y2399D01*
D02*
G37*
G36*
X12250Y1910D02*
X12027Y1763D01*
X11822Y1897D01*
Y1910D01*
Y1796D01*
X11950Y1711D01*
X11822Y1627D01*
Y1512D01*
Y1526D01*
X12027Y1660D01*
X12250Y1512D01*
Y1910D01*
D02*
G37*
G36*
Y1500D02*
Y1374D01*
X11894D01*
Y1500D01*
X12250D01*
X11822D01*
Y1160D01*
X11894D01*
Y1287D01*
X12250D01*
Y1160D01*
Y1500D01*
D02*
G37*
G36*
Y1117D02*
X12174D01*
D01*
X12080D01*
X12174D01*
Y953D01*
X12166Y959D01*
X12162Y962D01*
X12159Y964D01*
X12156Y967D01*
X12154Y969D01*
X12152Y970D01*
X12152Y970D01*
X12149Y973D01*
X12146Y975D01*
X12139Y982D01*
X12131Y990D01*
X12124Y998D01*
X12116Y1006D01*
X12113Y1010D01*
X12110Y1013D01*
X12108Y1016D01*
X12106Y1018D01*
X12105Y1019D01*
X12104Y1019D01*
X12098Y1026D01*
X12092Y1032D01*
X12086Y1038D01*
X12080Y1044D01*
X12076Y1049D01*
X12072Y1053D01*
X12064Y1061D01*
X12058Y1066D01*
X12053Y1070D01*
X12051Y1073D01*
X12050Y1073D01*
X12039Y1081D01*
X12029Y1088D01*
X12020Y1093D01*
X12012Y1098D01*
X12005Y1102D01*
X11999Y1104D01*
X11997Y1105D01*
X11996Y1106D01*
X11995Y1106D01*
X11995D01*
X11985Y1110D01*
X11975Y1112D01*
X11966Y1114D01*
X11958Y1115D01*
X11950Y1116D01*
X11945Y1117D01*
X11821D01*
Y829D01*
Y981D01*
X11821Y970D01*
X11822Y960D01*
X11824Y950D01*
X11825Y941D01*
X11828Y932D01*
X11830Y925D01*
X11832Y917D01*
X11835Y911D01*
X11838Y905D01*
X11841Y899D01*
X11843Y895D01*
X11846Y891D01*
X11847Y888D01*
X11849Y886D01*
X11850Y884D01*
X11850Y884D01*
X11856Y877D01*
X11863Y871D01*
X11870Y866D01*
X11878Y861D01*
X11886Y856D01*
X11894Y853D01*
X11902Y849D01*
X11910Y847D01*
X11917Y844D01*
X11925Y843D01*
X11930Y841D01*
X11936Y840D01*
X11941Y839D01*
X11944Y839D01*
X11946Y838D01*
X11947D01*
X11955Y920D01*
X11943Y922D01*
X11932Y924D01*
X11924Y927D01*
X11916Y930D01*
X11911Y932D01*
X11907Y935D01*
X11905Y937D01*
X11904Y937D01*
X11899Y943D01*
X11895Y950D01*
X11892Y957D01*
X11890Y964D01*
X11889Y970D01*
X11888Y974D01*
Y979D01*
X11889Y988D01*
X11891Y996D01*
X11893Y1003D01*
X11896Y1009D01*
X11898Y1014D01*
X11901Y1017D01*
X11903Y1019D01*
X11903Y1020D01*
X11909Y1025D01*
X11916Y1028D01*
X11923Y1031D01*
X11930Y1032D01*
X11936Y1033D01*
X11941Y1034D01*
X11943D01*
X11945D01*
X11945D01*
X11946D01*
X11955Y1034D01*
X11964Y1032D01*
X11973Y1029D01*
X11980Y1026D01*
X11986Y1023D01*
X11991Y1020D01*
X11993Y1019D01*
X11995Y1018D01*
X11995Y1017D01*
X11996D01*
X12000Y1014D01*
X12004Y1011D01*
X12009Y1006D01*
X12015Y1001D01*
X12026Y990D01*
X12038Y979D01*
X12049Y968D01*
X12053Y963D01*
X12058Y958D01*
X12061Y955D01*
X12064Y952D01*
X12066Y950D01*
X12066Y949D01*
X12078Y937D01*
X12089Y926D01*
X12099Y915D01*
X12109Y906D01*
X12118Y897D01*
X12126Y889D01*
X12134Y883D01*
X12141Y877D01*
X12147Y872D01*
X12153Y868D01*
X12158Y864D01*
X12162Y862D01*
X12165Y859D01*
X12167Y858D01*
X12168Y857D01*
X12169Y857D01*
X12183Y849D01*
X12198Y842D01*
X12211Y838D01*
X12224Y834D01*
X12229Y833D01*
X12234Y832D01*
X12239Y831D01*
X12243Y830D01*
X12246Y830D01*
X12248D01*
X12250Y829D01*
X11821D01*
X12250D01*
Y1117D01*
D02*
G37*
G36*
X12258Y767D02*
X11822D01*
Y680D01*
X12060D01*
X12069D01*
X12077D01*
X12085Y680D01*
X12093D01*
X12099Y679D01*
X12105D01*
X12111Y679D01*
X12116Y678D01*
X12120Y678D01*
X12123D01*
X12126Y677D01*
X12128Y677D01*
X12130D01*
X12132Y676D01*
X12132D01*
X12133D01*
X12141Y674D01*
X12148Y671D01*
X12154Y667D01*
X12159Y663D01*
X12164Y659D01*
X12167Y656D01*
X12169Y654D01*
X12170Y653D01*
X12175Y646D01*
X12178Y637D01*
X12181Y628D01*
X12182Y619D01*
X12183Y611D01*
X12184Y607D01*
Y604D01*
X12184Y602D01*
Y598D01*
X12184Y586D01*
X12182Y575D01*
X12179Y565D01*
X12176Y557D01*
X12174Y550D01*
X12171Y546D01*
X12169Y543D01*
X12169Y542D01*
X12162Y535D01*
X12155Y529D01*
X12148Y525D01*
X12141Y521D01*
X12135Y519D01*
X12131Y517D01*
X12129Y516D01*
X12127D01*
X12127Y516D01*
X12126D01*
X12123Y515D01*
X12119Y515D01*
X12114Y514D01*
X12108D01*
X12097Y513D01*
X12084D01*
X12073Y513D01*
X12068D01*
X12064D01*
X12060D01*
X12057D01*
X12055D01*
X12055D01*
X11822D01*
Y426D01*
X12064D01*
X12076Y427D01*
X12088Y427D01*
X12098Y428D01*
X12108Y428D01*
X12117Y429D01*
X12125Y430D01*
X12132Y431D01*
X12139Y431D01*
X12144Y432D01*
X12149Y433D01*
X12153Y433D01*
X12156Y434D01*
X12158Y434D01*
X12159Y435D01*
X12160D01*
X12169Y437D01*
X12178Y440D01*
X12186Y444D01*
X12193Y448D01*
X12199Y452D01*
X12204Y455D01*
X12207Y457D01*
X12207Y458D01*
X12208D01*
X12216Y466D01*
X12223Y474D01*
X12229Y483D01*
X12234Y490D01*
X12238Y497D01*
X12242Y503D01*
X12243Y505D01*
X12244Y507D01*
X12244Y508D01*
Y508D01*
X12247Y515D01*
X12249Y521D01*
X12252Y536D01*
X12255Y552D01*
X12256Y567D01*
X12257Y574D01*
Y580D01*
X12258Y586D01*
X12258Y591D01*
Y601D01*
X12258Y619D01*
X12257Y628D01*
X12256Y636D01*
X12255Y642D01*
X12254Y649D01*
X12253Y656D01*
X12252Y661D01*
X12251Y666D01*
X12249Y671D01*
X12248Y674D01*
X12247Y678D01*
X12246Y680D01*
X12246Y682D01*
X12245Y683D01*
Y683D01*
X12240Y694D01*
X12234Y704D01*
X12228Y713D01*
X12223Y720D01*
X12218Y726D01*
X12214Y730D01*
X12212Y733D01*
X12211Y734D01*
X12202Y740D01*
X12193Y745D01*
X12184Y750D01*
X12176Y753D01*
X12168Y756D01*
X12165Y757D01*
X12162Y758D01*
X12160Y758D01*
X12158Y759D01*
X12157Y759D01*
X12157D01*
X12150Y761D01*
X12143Y762D01*
X12134Y763D01*
X12126Y764D01*
X12108Y765D01*
X12090Y766D01*
X12081Y766D01*
X12074D01*
X12066Y767D01*
X12258D01*
D02*
G37*
%LPD*%
G36*
X12250Y1616D02*
X12105Y1711D01*
X12250Y1806D01*
Y1616D01*
D02*
G37*
G36*
X11930Y1116D02*
X11922Y1115D01*
X11913Y1113D01*
X11905Y1111D01*
X11897Y1108D01*
X11890Y1105D01*
X11884Y1102D01*
X11878Y1098D01*
X11873Y1095D01*
X11868Y1091D01*
X11864Y1088D01*
X11861Y1086D01*
X11858Y1083D01*
X11856Y1081D01*
X11855Y1081D01*
X11855Y1080D01*
X11849Y1073D01*
X11843Y1065D01*
X11839Y1057D01*
X11835Y1049D01*
X11831Y1041D01*
X11829Y1032D01*
X11827Y1025D01*
X11825Y1017D01*
X11824Y1009D01*
X11823Y1002D01*
X11822Y996D01*
X11821Y991D01*
X11821Y986D01*
Y1117D01*
X11940D01*
X11930Y1116D01*
D02*
G37*
%LPC*%
G36*
X6599Y2047D02*
X6171D01*
D01*
X6379D01*
X6368Y2047D01*
X6358Y2046D01*
X6348Y2045D01*
X6340Y2044D01*
X6331Y2043D01*
X6324Y2042D01*
X6317Y2041D01*
X6310Y2039D01*
X6305Y2038D01*
X6300Y2037D01*
X6296Y2036D01*
X6293Y2035D01*
X6291Y2034D01*
X6289Y2033D01*
X6289D01*
X6274Y2027D01*
X6260Y2021D01*
X6248Y2014D01*
X6239Y2008D01*
X6234Y2004D01*
X6230Y2002D01*
X6227Y1999D01*
X6224Y1997D01*
X6222Y1995D01*
X6221Y1994D01*
X6220Y1993D01*
X6219Y1993D01*
X6209Y1982D01*
X6201Y1971D01*
X6194Y1960D01*
X6189Y1950D01*
X6185Y1942D01*
X6183Y1938D01*
X6182Y1935D01*
X6181Y1932D01*
X6180Y1930D01*
X6180Y1929D01*
Y1928D01*
X6178Y1923D01*
X6177Y1917D01*
X6175Y1903D01*
X6173Y1890D01*
X6172Y1877D01*
X6172Y1871D01*
Y1865D01*
X6171Y1860D01*
Y1689D01*
X6599D01*
Y2047D01*
D02*
G37*
G36*
Y1598D02*
X6171D01*
Y1517D01*
X6457D01*
X6171Y1342D01*
Y1258D01*
X6599D01*
Y1598D01*
D02*
G37*
G36*
X6607Y1178D02*
X6164D01*
D01*
X6370D01*
Y992D01*
X6442D01*
Y1091D01*
X6497D01*
X6503Y1083D01*
X6508Y1075D01*
X6512Y1067D01*
X6516Y1059D01*
X6519Y1053D01*
X6521Y1048D01*
X6522Y1046D01*
X6523Y1045D01*
X6523Y1044D01*
Y1043D01*
X6527Y1033D01*
X6529Y1023D01*
X6531Y1014D01*
X6532Y1006D01*
X6533Y999D01*
X6534Y994D01*
Y989D01*
X6533Y979D01*
X6532Y969D01*
X6530Y960D01*
X6528Y952D01*
X6525Y944D01*
X6522Y937D01*
X6518Y930D01*
X6514Y924D01*
X6511Y918D01*
X6507Y914D01*
X6504Y909D01*
X6501Y907D01*
X6499Y904D01*
X6497Y902D01*
X6496Y901D01*
X6495Y900D01*
X6488Y894D01*
X6480Y889D01*
X6471Y885D01*
X6461Y881D01*
X6452Y877D01*
X6442Y875D01*
X6424Y871D01*
X6415Y869D01*
X6407Y868D01*
X6400Y867D01*
X6393Y867D01*
X6389Y866D01*
X6385D01*
X6382D01*
X6381D01*
X6368Y867D01*
X6356Y868D01*
X6345Y869D01*
X6335Y872D01*
X6325Y874D01*
X6316Y877D01*
X6308Y880D01*
X6301Y883D01*
X6295Y886D01*
X6290Y889D01*
X6285Y892D01*
X6281Y895D01*
X6278Y897D01*
X6276Y898D01*
X6275Y899D01*
X6274Y900D01*
X6268Y906D01*
X6262Y913D01*
X6257Y920D01*
X6253Y928D01*
X6250Y935D01*
X6247Y943D01*
X6245Y950D01*
X6243Y957D01*
X6241Y964D01*
X6240Y970D01*
X6239Y976D01*
X6239Y980D01*
X6238Y984D01*
Y990D01*
X6239Y1003D01*
X6241Y1015D01*
X6244Y1026D01*
X6247Y1035D01*
X6250Y1042D01*
X6252Y1045D01*
X6253Y1048D01*
X6255Y1050D01*
X6255Y1051D01*
X6256Y1052D01*
Y1052D01*
X6264Y1061D01*
X6272Y1068D01*
X6280Y1074D01*
X6288Y1079D01*
X6295Y1082D01*
X6301Y1085D01*
X6303Y1086D01*
X6304Y1086D01*
X6305Y1087D01*
X6306D01*
X6290Y1172D01*
X6279Y1169D01*
X6269Y1166D01*
X6260Y1162D01*
X6251Y1158D01*
X6243Y1153D01*
X6235Y1149D01*
X6228Y1144D01*
X6222Y1139D01*
X6216Y1134D01*
X6211Y1129D01*
X6207Y1125D01*
X6204Y1122D01*
X6201Y1119D01*
X6199Y1116D01*
X6198Y1115D01*
X6198Y1114D01*
X6192Y1106D01*
X6187Y1096D01*
X6182Y1086D01*
X6179Y1076D01*
X6175Y1065D01*
X6173Y1055D01*
X6170Y1045D01*
X6168Y1035D01*
X6167Y1026D01*
X6166Y1017D01*
X6165Y1009D01*
X6165Y1003D01*
X6164Y997D01*
Y978D01*
X6165Y968D01*
X6166Y957D01*
X6168Y948D01*
X6169Y939D01*
X6171Y930D01*
X6173Y922D01*
X6175Y915D01*
X6177Y909D01*
X6179Y904D01*
X6181Y899D01*
X6183Y895D01*
X6184Y892D01*
X6185Y889D01*
X6186Y888D01*
X6186Y887D01*
X6192Y877D01*
X6197Y868D01*
X6204Y859D01*
X6210Y852D01*
X6217Y844D01*
X6224Y838D01*
X6230Y831D01*
X6236Y826D01*
X6243Y821D01*
X6248Y817D01*
X6253Y813D01*
X6257Y810D01*
X6261Y808D01*
X6263Y807D01*
X6265Y806D01*
X6266Y805D01*
X6276Y800D01*
X6286Y796D01*
X6296Y792D01*
X6306Y789D01*
X6326Y784D01*
X6336Y782D01*
X6344Y781D01*
X6353Y780D01*
X6361Y779D01*
X6367Y778D01*
X6373Y778D01*
X6378Y777D01*
X6385D01*
X6396Y778D01*
X6407Y778D01*
X6429Y781D01*
X6439Y783D01*
X6448Y785D01*
X6457Y787D01*
X6465Y790D01*
X6472Y792D01*
X6479Y794D01*
X6485Y796D01*
X6490Y798D01*
X6493Y800D01*
X6496Y801D01*
X6498Y802D01*
X6499Y802D01*
X6508Y807D01*
X6517Y812D01*
X6526Y818D01*
X6534Y824D01*
X6541Y831D01*
X6547Y837D01*
X6553Y843D01*
X6559Y849D01*
X6564Y855D01*
X6568Y860D01*
X6572Y865D01*
X6574Y869D01*
X6577Y872D01*
X6578Y875D01*
X6579Y877D01*
X6580Y877D01*
X6585Y887D01*
X6589Y897D01*
X6592Y907D01*
X6595Y917D01*
X6600Y936D01*
X6602Y946D01*
X6604Y955D01*
X6605Y963D01*
X6606Y971D01*
X6606Y977D01*
X6607Y983D01*
X6607Y988D01*
Y995D01*
X6606Y1014D01*
X6604Y1033D01*
X6601Y1051D01*
X6599Y1058D01*
X6597Y1066D01*
X6595Y1073D01*
X6594Y1080D01*
X6592Y1085D01*
X6591Y1090D01*
X6590Y1094D01*
X6589Y1096D01*
X6588Y1098D01*
Y1099D01*
X6584Y1108D01*
X6580Y1117D01*
X6576Y1125D01*
X6572Y1133D01*
X6568Y1140D01*
X6564Y1147D01*
X6561Y1153D01*
X6557Y1157D01*
X6554Y1162D01*
X6551Y1166D01*
X6548Y1170D01*
X6546Y1173D01*
X6544Y1175D01*
X6543Y1176D01*
X6542Y1177D01*
X6542Y1178D01*
X6607D01*
D01*
D02*
G37*
%LPD*%
G36*
X6599Y1851D02*
X6599Y1868D01*
X6598Y1876D01*
X6598Y1884D01*
X6597Y1890D01*
X6596Y1897D01*
X6596Y1902D01*
X6595Y1907D01*
X6594Y1912D01*
X6593Y1916D01*
X6592Y1920D01*
X6592Y1922D01*
X6592Y1925D01*
X6591Y1926D01*
X6591Y1927D01*
Y1928D01*
X6586Y1941D01*
X6580Y1953D01*
X6574Y1964D01*
X6569Y1972D01*
X6564Y1979D01*
X6560Y1985D01*
X6558Y1986D01*
X6557Y1988D01*
X6556Y1988D01*
Y1989D01*
X6545Y1999D01*
X6533Y2008D01*
X6520Y2016D01*
X6508Y2023D01*
X6502Y2025D01*
X6497Y2028D01*
X6492Y2030D01*
X6489Y2031D01*
X6485Y2033D01*
X6483Y2034D01*
X6481Y2034D01*
X6481D01*
X6466Y2039D01*
X6450Y2042D01*
X6435Y2044D01*
X6421Y2046D01*
X6414Y2046D01*
X6408Y2047D01*
X6403D01*
X6398Y2047D01*
X6599D01*
Y1851D01*
D02*
G37*
G36*
X6403Y1958D02*
X6411Y1957D01*
X6419Y1957D01*
X6426Y1956D01*
X6433Y1955D01*
X6439Y1955D01*
X6443Y1954D01*
X6448Y1953D01*
X6452Y1952D01*
X6456Y1951D01*
X6459Y1951D01*
X6461Y1950D01*
X6463Y1950D01*
X6464Y1949D01*
X6464D01*
X6474Y1946D01*
X6483Y1942D01*
X6490Y1939D01*
X6496Y1935D01*
X6500Y1932D01*
X6503Y1929D01*
X6505Y1927D01*
X6506Y1927D01*
X6510Y1921D01*
X6514Y1915D01*
X6517Y1910D01*
X6519Y1904D01*
X6521Y1899D01*
X6522Y1896D01*
X6523Y1893D01*
X6523Y1892D01*
X6525Y1885D01*
X6526Y1877D01*
X6526Y1869D01*
X6527Y1860D01*
X6527Y1852D01*
Y1776D01*
X6244D01*
Y1833D01*
X6244Y1841D01*
Y1848D01*
X6245Y1854D01*
X6245Y1860D01*
X6245Y1865D01*
Y1869D01*
X6246Y1873D01*
X6246Y1877D01*
X6247Y1879D01*
X6247Y1882D01*
Y1883D01*
X6248Y1884D01*
Y1885D01*
X6250Y1894D01*
X6253Y1901D01*
X6256Y1908D01*
X6260Y1914D01*
X6263Y1919D01*
X6266Y1922D01*
X6268Y1924D01*
X6268Y1925D01*
X6274Y1930D01*
X6281Y1935D01*
X6288Y1940D01*
X6295Y1943D01*
X6300Y1946D01*
X6305Y1948D01*
X6307Y1948D01*
X6309Y1949D01*
X6309Y1949D01*
X6310D01*
X6315Y1951D01*
X6321Y1952D01*
X6333Y1954D01*
X6345Y1956D01*
X6357Y1957D01*
X6363Y1958D01*
X6369D01*
X6373D01*
X6378Y1958D01*
X6381D01*
X6384D01*
X6385D01*
X6386D01*
X6394D01*
X6403Y1958D01*
D02*
G37*
G36*
X6599Y1339D02*
X6320D01*
X6599Y1511D01*
Y1339D01*
D02*
G37*
%LPC*%
G36*
X5621Y2151D02*
X5116D01*
Y2057D01*
X5453D01*
X5116Y1851D01*
Y1752D01*
X5621D01*
Y1846D01*
X5291D01*
X5621Y2049D01*
Y2151D01*
D02*
G37*
G36*
Y1654D02*
X5116D01*
Y1552D01*
X5621D01*
Y1654D01*
D02*
G37*
G36*
X5116Y1502D02*
D01*
Y1034D01*
X5621D01*
X5116D01*
X5621Y1213D01*
Y1323D01*
X5116Y1502D01*
D02*
G37*
G36*
X5457Y1012D02*
X5452D01*
X5438Y1012D01*
X5425Y1010D01*
X5412Y1008D01*
X5401Y1005D01*
X5390Y1002D01*
X5380Y998D01*
X5371Y994D01*
X5362Y990D01*
X5355Y985D01*
X5348Y981D01*
X5343Y978D01*
X5338Y974D01*
X5334Y971D01*
X5332Y969D01*
X5330Y968D01*
X5330Y967D01*
X5322Y959D01*
X5314Y950D01*
X5308Y940D01*
X5302Y931D01*
X5298Y922D01*
X5294Y913D01*
X5291Y904D01*
X5288Y896D01*
X5287Y888D01*
X5285Y881D01*
X5284Y875D01*
X5283Y869D01*
Y865D01*
X5282Y861D01*
Y858D01*
X5283Y846D01*
X5285Y834D01*
X5288Y823D01*
X5291Y813D01*
X5294Y804D01*
X5296Y798D01*
X5297Y795D01*
X5298Y794D01*
X5299Y793D01*
Y792D01*
X5213Y808D01*
Y990D01*
X5123D01*
Y994D01*
Y990D01*
Y735D01*
X5385Y685D01*
X5396Y763D01*
X5390Y770D01*
X5384Y776D01*
X5379Y782D01*
X5375Y789D01*
X5371Y795D01*
X5368Y801D01*
X5364Y813D01*
X5361Y823D01*
X5361Y827D01*
X5360Y831D01*
X5359Y834D01*
Y838D01*
X5361Y850D01*
X5363Y861D01*
X5367Y870D01*
X5371Y878D01*
X5376Y884D01*
X5380Y889D01*
X5382Y891D01*
X5383Y892D01*
X5393Y899D01*
X5404Y904D01*
X5416Y908D01*
X5427Y911D01*
X5438Y912D01*
X5442Y912D01*
X5446D01*
X5449Y913D01*
X5451D01*
X5453D01*
X5453D01*
X5463D01*
X5471Y912D01*
X5479Y911D01*
X5486Y910D01*
X5493Y908D01*
X5499Y907D01*
X5505Y904D01*
X5509Y903D01*
X5514Y901D01*
X5517Y898D01*
X5521Y897D01*
X5523Y896D01*
X5527Y893D01*
X5528Y892D01*
X5536Y884D01*
X5542Y875D01*
X5547Y866D01*
X5549Y859D01*
X5551Y851D01*
X5552Y846D01*
X5552Y844D01*
Y841D01*
X5552Y831D01*
X5549Y822D01*
X5547Y814D01*
X5543Y807D01*
X5540Y802D01*
X5537Y797D01*
X5534Y795D01*
X5534Y794D01*
X5526Y787D01*
X5517Y781D01*
X5509Y777D01*
X5501Y774D01*
X5493Y772D01*
X5487Y771D01*
X5484Y770D01*
X5482Y770D01*
X5482D01*
X5481D01*
X5492Y673D01*
X5503Y675D01*
X5514Y678D01*
X5524Y681D01*
X5534Y685D01*
X5543Y689D01*
X5552Y693D01*
X5559Y698D01*
X5566Y703D01*
X5572Y707D01*
X5577Y711D01*
X5582Y715D01*
X5586Y718D01*
X5589Y721D01*
X5591Y724D01*
X5592Y725D01*
X5593Y725D01*
X5599Y734D01*
X5605Y743D01*
X5610Y752D01*
X5614Y762D01*
X5618Y771D01*
X5621Y781D01*
X5625Y799D01*
X5627Y808D01*
X5628Y815D01*
X5629Y822D01*
X5629Y828D01*
X5630Y833D01*
Y846D01*
Y840D01*
X5629Y855D01*
X5627Y870D01*
X5624Y884D01*
X5619Y897D01*
X5615Y910D01*
X5609Y921D01*
X5603Y931D01*
X5597Y940D01*
X5590Y949D01*
X5584Y956D01*
X5579Y962D01*
X5574Y967D01*
X5569Y971D01*
X5566Y974D01*
X5564Y975D01*
X5563Y976D01*
X5554Y982D01*
X5544Y988D01*
X5535Y993D01*
X5525Y997D01*
X5516Y1001D01*
X5506Y1003D01*
X5489Y1008D01*
X5481Y1009D01*
X5474Y1010D01*
X5467Y1011D01*
X5462Y1012D01*
X5457Y1012D01*
D02*
G37*
G36*
X5630Y673D02*
X5123D01*
D01*
X5630D01*
D01*
D02*
G37*
%LPD*%
G36*
X5489Y1271D02*
X5116Y1144D01*
Y1394D01*
X5489Y1271D01*
D02*
G37*
%LPC*%
G36*
X17951Y2432D02*
X17869D01*
X17788Y2227D01*
X17709Y2432D01*
X17811D01*
X17626D01*
X17753Y2138D01*
X17626D01*
X17824D01*
X17951Y2432D01*
D02*
G37*
G36*
X18000Y1943D02*
X17777Y1796D01*
X17572Y1930D01*
Y1943D01*
Y1829D01*
X17700Y1744D01*
X17572Y1660D01*
Y1545D01*
Y1559D01*
X17777Y1693D01*
X18000Y1545D01*
Y1943D01*
D02*
G37*
G36*
Y1542D02*
X17917Y1489D01*
X17908Y1484D01*
X17900Y1478D01*
X17892Y1474D01*
X17885Y1469D01*
X17879Y1465D01*
X17873Y1460D01*
X17868Y1457D01*
X17864Y1453D01*
X17860Y1450D01*
X17857Y1448D01*
X17854Y1446D01*
X17852Y1444D01*
X17850Y1442D01*
X17849Y1441D01*
X17848Y1440D01*
X17840Y1433D01*
X17834Y1426D01*
X17827Y1418D01*
X17822Y1410D01*
X17818Y1404D01*
X17815Y1399D01*
X17813Y1397D01*
X17812Y1395D01*
X17812Y1394D01*
Y1394D01*
X17810Y1404D01*
X17808Y1414D01*
X17805Y1423D01*
X17802Y1431D01*
X17799Y1438D01*
X17795Y1445D01*
X17792Y1452D01*
X17789Y1457D01*
X17785Y1462D01*
X17782Y1467D01*
X17779Y1470D01*
X17777Y1473D01*
X17775Y1476D01*
X17774Y1477D01*
X17773Y1478D01*
X17772Y1478D01*
X17766Y1483D01*
X17760Y1488D01*
X17753Y1492D01*
X17746Y1495D01*
X17739Y1498D01*
X17733Y1500D01*
X17720Y1504D01*
X17715Y1505D01*
X17709Y1506D01*
X17704Y1506D01*
X17700Y1507D01*
X17697Y1507D01*
X17694D01*
X17693D01*
X17692D01*
X17678Y1506D01*
X17666Y1504D01*
X17654Y1501D01*
X17644Y1498D01*
X17640Y1496D01*
X17636Y1494D01*
X17633Y1493D01*
X17630Y1491D01*
X17628Y1490D01*
X17627Y1489D01*
X17626Y1488D01*
X17625D01*
X17615Y1481D01*
X17606Y1473D01*
X17599Y1464D01*
X17593Y1456D01*
X17589Y1449D01*
X17586Y1443D01*
X17585Y1441D01*
X17584Y1440D01*
X17584Y1439D01*
Y1438D01*
X17582Y1432D01*
X17580Y1425D01*
X17579Y1418D01*
X17577Y1410D01*
X17575Y1393D01*
X17574Y1377D01*
X17573Y1369D01*
X17573Y1362D01*
Y1356D01*
X17572Y1350D01*
Y1157D01*
X18000D01*
Y1272D01*
Y1244D01*
X17822D01*
Y1272D01*
X17823Y1280D01*
X17823Y1288D01*
X17824Y1294D01*
X17825Y1298D01*
X17826Y1302D01*
X17826Y1304D01*
Y1304D01*
X17828Y1309D01*
X17831Y1314D01*
X17834Y1319D01*
X17837Y1323D01*
X17840Y1326D01*
X17842Y1329D01*
X17844Y1330D01*
X17844Y1330D01*
X17847Y1333D01*
X17851Y1336D01*
X17855Y1339D01*
X17860Y1343D01*
X17870Y1350D01*
X17880Y1358D01*
X17891Y1365D01*
X17895Y1368D01*
X17899Y1371D01*
X17902Y1373D01*
X17905Y1375D01*
X17907Y1376D01*
X17907Y1376D01*
X18000Y1438D01*
Y1542D01*
D02*
G37*
G36*
Y1083D02*
X17924D01*
D01*
X17830D01*
X17924D01*
Y920D01*
X17916Y926D01*
X17912Y929D01*
X17909Y931D01*
X17906Y933D01*
X17904Y935D01*
X17902Y936D01*
X17902Y937D01*
X17899Y939D01*
X17896Y942D01*
X17889Y949D01*
X17881Y957D01*
X17874Y965D01*
X17866Y973D01*
X17863Y977D01*
X17860Y980D01*
X17858Y982D01*
X17856Y984D01*
X17855Y985D01*
X17854Y986D01*
X17848Y993D01*
X17842Y999D01*
X17836Y1005D01*
X17830Y1011D01*
X17826Y1016D01*
X17822Y1020D01*
X17814Y1028D01*
X17808Y1033D01*
X17803Y1037D01*
X17801Y1039D01*
X17800Y1040D01*
X17789Y1048D01*
X17779Y1055D01*
X17770Y1060D01*
X17762Y1065D01*
X17755Y1069D01*
X17749Y1071D01*
X17747Y1072D01*
X17746Y1073D01*
X17745Y1073D01*
X17745D01*
X17735Y1077D01*
X17725Y1079D01*
X17716Y1081D01*
X17708Y1082D01*
X17700Y1083D01*
X17695Y1083D01*
X17571D01*
Y796D01*
Y947D01*
X17571Y937D01*
X17572Y927D01*
X17574Y917D01*
X17575Y908D01*
X17578Y899D01*
X17580Y891D01*
X17582Y884D01*
X17585Y878D01*
X17588Y872D01*
X17591Y866D01*
X17593Y862D01*
X17596Y858D01*
X17597Y855D01*
X17599Y853D01*
X17600Y851D01*
X17600Y851D01*
X17606Y844D01*
X17613Y838D01*
X17620Y833D01*
X17628Y828D01*
X17636Y823D01*
X17644Y820D01*
X17652Y816D01*
X17660Y814D01*
X17667Y811D01*
X17675Y810D01*
X17680Y808D01*
X17686Y807D01*
X17691Y806D01*
X17694Y806D01*
X17696Y805D01*
X17697D01*
X17705Y887D01*
X17693Y888D01*
X17682Y890D01*
X17674Y893D01*
X17666Y896D01*
X17661Y899D01*
X17657Y902D01*
X17655Y904D01*
X17654Y904D01*
X17649Y910D01*
X17645Y917D01*
X17642Y924D01*
X17640Y931D01*
X17639Y936D01*
X17638Y941D01*
Y945D01*
X17639Y955D01*
X17641Y963D01*
X17643Y970D01*
X17646Y976D01*
X17648Y981D01*
X17651Y984D01*
X17653Y986D01*
X17653Y986D01*
X17659Y991D01*
X17666Y995D01*
X17673Y998D01*
X17680Y999D01*
X17686Y1000D01*
X17691Y1001D01*
X17693D01*
X17695D01*
X17695D01*
X17696D01*
X17705Y1001D01*
X17714Y999D01*
X17723Y996D01*
X17730Y993D01*
X17736Y989D01*
X17741Y987D01*
X17743Y985D01*
X17745Y985D01*
X17745Y984D01*
X17746D01*
X17750Y981D01*
X17754Y978D01*
X17759Y973D01*
X17765Y968D01*
X17776Y957D01*
X17788Y945D01*
X17799Y934D01*
X17803Y930D01*
X17808Y925D01*
X17811Y922D01*
X17814Y919D01*
X17816Y917D01*
X17816Y916D01*
X17828Y904D01*
X17839Y892D01*
X17849Y882D01*
X17859Y873D01*
X17868Y864D01*
X17876Y856D01*
X17884Y850D01*
X17891Y844D01*
X17897Y839D01*
X17903Y834D01*
X17908Y831D01*
X17912Y829D01*
X17915Y826D01*
X17917Y825D01*
X17918Y824D01*
X17919Y824D01*
X17933Y816D01*
X17948Y809D01*
X17961Y805D01*
X17974Y801D01*
X17979Y800D01*
X17984Y798D01*
X17989Y798D01*
X17993Y797D01*
X17996Y796D01*
X17998D01*
X18000Y796D01*
X17571D01*
X18000D01*
Y1083D01*
D02*
G37*
G36*
X18008Y734D02*
X17572D01*
Y647D01*
X17810D01*
X17819D01*
X17827D01*
X17835Y646D01*
X17843D01*
X17849Y646D01*
X17855D01*
X17861Y645D01*
X17866Y645D01*
X17870Y644D01*
X17873D01*
X17876Y644D01*
X17878Y643D01*
X17880D01*
X17882Y643D01*
X17882D01*
X17883D01*
X17891Y641D01*
X17898Y637D01*
X17904Y634D01*
X17909Y630D01*
X17914Y626D01*
X17917Y623D01*
X17919Y621D01*
X17920Y620D01*
X17924Y613D01*
X17928Y604D01*
X17931Y595D01*
X17932Y586D01*
X17933Y578D01*
X17934Y574D01*
Y571D01*
X17934Y569D01*
Y565D01*
X17934Y552D01*
X17932Y541D01*
X17929Y532D01*
X17926Y524D01*
X17924Y517D01*
X17921Y513D01*
X17919Y510D01*
X17919Y509D01*
X17912Y502D01*
X17905Y496D01*
X17898Y491D01*
X17891Y488D01*
X17885Y486D01*
X17881Y484D01*
X17879Y483D01*
X17877D01*
X17877Y483D01*
X17876D01*
X17873Y482D01*
X17869Y482D01*
X17864Y481D01*
X17858D01*
X17847Y480D01*
X17834D01*
X17823Y480D01*
X17818D01*
X17814D01*
X17810D01*
X17807D01*
X17805D01*
X17805D01*
X17572D01*
Y393D01*
X17814D01*
X17826Y393D01*
X17838Y394D01*
X17848Y394D01*
X17858Y395D01*
X17867Y395D01*
X17875Y396D01*
X17882Y397D01*
X17889Y398D01*
X17894Y399D01*
X17899Y399D01*
X17903Y400D01*
X17906Y400D01*
X17908Y401D01*
X17909Y401D01*
X17910D01*
X17919Y404D01*
X17928Y407D01*
X17936Y411D01*
X17943Y415D01*
X17949Y419D01*
X17954Y422D01*
X17957Y424D01*
X17957Y425D01*
X17958D01*
X17966Y433D01*
X17973Y441D01*
X17979Y449D01*
X17984Y457D01*
X17988Y464D01*
X17992Y470D01*
X17993Y472D01*
X17994Y474D01*
X17994Y475D01*
Y475D01*
X17997Y482D01*
X17999Y488D01*
X18002Y503D01*
X18005Y519D01*
X18006Y534D01*
X18007Y540D01*
Y547D01*
X18008Y553D01*
X18008Y558D01*
Y568D01*
X18008Y586D01*
X18007Y594D01*
X18006Y602D01*
X18005Y609D01*
X18004Y616D01*
X18003Y623D01*
X18002Y628D01*
X18001Y633D01*
X17999Y637D01*
X17998Y641D01*
X17997Y644D01*
X17996Y647D01*
X17996Y648D01*
X17995Y649D01*
Y650D01*
X17990Y661D01*
X17984Y671D01*
X17978Y680D01*
X17973Y687D01*
X17968Y693D01*
X17964Y697D01*
X17962Y699D01*
X17961Y700D01*
X17952Y707D01*
X17943Y712D01*
X17934Y717D01*
X17925Y720D01*
X17918Y723D01*
X17915Y724D01*
X17912Y725D01*
X17910Y725D01*
X17908Y726D01*
X17907Y726D01*
X17907D01*
X17900Y728D01*
X17893Y729D01*
X17884Y730D01*
X17876Y731D01*
X17858Y732D01*
X17840Y733D01*
X17831Y733D01*
X17824D01*
X17816Y734D01*
X18008D01*
D02*
G37*
%LPD*%
G36*
X18000Y1649D02*
X17855Y1744D01*
X18000Y1839D01*
Y1649D01*
D02*
G37*
G36*
X17705Y1418D02*
X17711Y1417D01*
X17717Y1415D01*
X17721Y1414D01*
X17725Y1412D01*
X17727Y1411D01*
X17729Y1410D01*
X17730Y1409D01*
X17734Y1406D01*
X17738Y1402D01*
X17741Y1398D01*
X17744Y1394D01*
X17746Y1390D01*
X17747Y1387D01*
X17748Y1385D01*
X17748Y1385D01*
X17749Y1381D01*
X17750Y1377D01*
X17751Y1372D01*
X17751Y1366D01*
X17752Y1354D01*
X17753Y1340D01*
Y1328D01*
X17753Y1322D01*
Y1244D01*
X17644D01*
Y1343D01*
X17645Y1349D01*
Y1362D01*
X17645Y1365D01*
Y1372D01*
X17646Y1374D01*
Y1374D01*
X17648Y1381D01*
X17650Y1388D01*
X17653Y1393D01*
X17656Y1398D01*
X17659Y1402D01*
X17661Y1404D01*
X17663Y1406D01*
X17663Y1406D01*
X17668Y1410D01*
X17674Y1413D01*
X17680Y1415D01*
X17685Y1417D01*
X17690Y1418D01*
X17694Y1418D01*
X17697D01*
X17697D01*
X17698D01*
X17705Y1418D01*
D02*
G37*
G36*
X17680Y1083D02*
X17672Y1082D01*
X17663Y1080D01*
X17655Y1078D01*
X17647Y1075D01*
X17640Y1072D01*
X17634Y1069D01*
X17628Y1065D01*
X17623Y1062D01*
X17618Y1058D01*
X17614Y1055D01*
X17611Y1053D01*
X17608Y1050D01*
X17606Y1048D01*
X17605Y1047D01*
X17605Y1047D01*
X17599Y1040D01*
X17593Y1032D01*
X17589Y1024D01*
X17585Y1016D01*
X17581Y1008D01*
X17579Y999D01*
X17577Y991D01*
X17575Y983D01*
X17574Y976D01*
X17573Y969D01*
X17572Y963D01*
X17571Y958D01*
X17571Y953D01*
Y1083D01*
X17690D01*
X17680Y1083D01*
D02*
G37*
%LPC*%
G36*
X3479Y23191D02*
D01*
Y22897D01*
X3352Y23191D01*
X3154D01*
X3281D01*
X3154Y22897D01*
X3479D01*
Y23191D01*
D02*
G37*
G36*
X3528Y22702D02*
X3305Y22555D01*
X3100Y22689D01*
Y22702D01*
Y22588D01*
X3227Y22503D01*
X3100Y22419D01*
Y22304D01*
Y22318D01*
X3305Y22452D01*
X3528Y22304D01*
Y22702D01*
D02*
G37*
G36*
Y22293D02*
Y22166D01*
X3172D01*
Y22293D01*
X3100D01*
Y21953D01*
X3528D01*
Y22293D01*
D02*
G37*
G36*
Y21842D02*
X3098D01*
Y21775D01*
X3106Y21772D01*
X3112Y21769D01*
X3125Y21761D01*
X3137Y21753D01*
X3147Y21744D01*
X3152Y21740D01*
X3156Y21736D01*
X3159Y21733D01*
X3162Y21730D01*
X3164Y21727D01*
X3165Y21725D01*
X3166Y21724D01*
X3167Y21723D01*
X3177Y21709D01*
X3185Y21697D01*
X3192Y21685D01*
X3198Y21675D01*
X3200Y21670D01*
X3202Y21666D01*
X3203Y21662D01*
X3205Y21659D01*
X3206Y21657D01*
X3206Y21656D01*
X3207Y21655D01*
Y21654D01*
X3281D01*
X3277Y21665D01*
X3272Y21676D01*
X3268Y21686D01*
X3263Y21696D01*
X3258Y21706D01*
X3253Y21714D01*
X3248Y21722D01*
X3242Y21730D01*
X3238Y21737D01*
X3233Y21743D01*
X3229Y21748D01*
X3226Y21752D01*
X3223Y21756D01*
X3221Y21758D01*
X3219Y21759D01*
X3219Y21760D01*
X3528D01*
Y21696D01*
Y21842D01*
D02*
G37*
G36*
X3536Y21559D02*
X3344D01*
D01*
X3536D01*
D02*
G37*
G36*
D02*
D01*
Y21394D01*
X3535Y21411D01*
X3535Y21420D01*
X3534Y21428D01*
X3533Y21435D01*
X3532Y21442D01*
X3530Y21448D01*
X3529Y21454D01*
X3528Y21459D01*
X3527Y21463D01*
X3526Y21466D01*
X3525Y21470D01*
X3524Y21472D01*
X3523Y21474D01*
X3523Y21475D01*
Y21475D01*
X3517Y21487D01*
X3512Y21497D01*
X3506Y21505D01*
X3501Y21512D01*
X3496Y21518D01*
X3492Y21522D01*
X3489Y21525D01*
X3488Y21526D01*
X3479Y21532D01*
X3470Y21538D01*
X3461Y21542D01*
X3453Y21546D01*
X3446Y21549D01*
X3442Y21550D01*
X3440Y21550D01*
X3437Y21551D01*
X3436Y21551D01*
X3435Y21552D01*
X3434D01*
X3428Y21553D01*
X3420Y21554D01*
X3412Y21555D01*
X3404Y21556D01*
X3385Y21557D01*
X3367Y21558D01*
X3359Y21558D01*
X3351D01*
X3344Y21559D01*
X3100D01*
Y21472D01*
X3337D01*
X3347D01*
X3355D01*
X3363Y21472D01*
X3370D01*
X3377Y21471D01*
X3383D01*
X3388Y21471D01*
X3393Y21470D01*
X3397Y21470D01*
X3401D01*
X3404Y21469D01*
X3406Y21469D01*
X3408D01*
X3409Y21468D01*
X3410D01*
X3410D01*
X3418Y21466D01*
X3425Y21463D01*
X3432Y21460D01*
X3437Y21456D01*
X3441Y21452D01*
X3445Y21449D01*
X3447Y21447D01*
X3447Y21446D01*
X3452Y21438D01*
X3456Y21429D01*
X3458Y21420D01*
X3460Y21411D01*
X3461Y21403D01*
X3461Y21400D01*
Y21397D01*
X3462Y21394D01*
Y21391D01*
X3461Y21378D01*
X3459Y21367D01*
X3457Y21357D01*
X3454Y21349D01*
X3451Y21343D01*
X3449Y21338D01*
X3447Y21335D01*
X3446Y21334D01*
X3440Y21327D01*
X3433Y21321D01*
X3426Y21317D01*
X3419Y21313D01*
X3413Y21311D01*
X3408Y21309D01*
X3407Y21309D01*
X3405D01*
X3405Y21308D01*
X3404D01*
X3401Y21308D01*
X3396Y21307D01*
X3391Y21307D01*
X3386D01*
X3374Y21306D01*
X3362D01*
X3351Y21305D01*
X3346D01*
X3341D01*
X3338D01*
X3335D01*
X3333D01*
X3332D01*
X3100D01*
Y21218D01*
X3536D01*
Y21559D01*
D02*
G37*
%LPD*%
G36*
X3397Y22897D02*
X3236D01*
X3316Y23102D01*
X3397Y22897D01*
D02*
G37*
G36*
X3528Y22408D02*
X3383Y22503D01*
X3528Y22599D01*
Y22408D01*
D02*
G37*
G36*
Y21953D02*
X3172D01*
Y22080D01*
X3528D01*
Y21953D01*
D02*
G37*
G36*
X3536Y21218D02*
X3342D01*
X3354Y21219D01*
X3365Y21219D01*
X3376Y21220D01*
X3386Y21220D01*
X3395Y21221D01*
X3403Y21222D01*
X3410Y21223D01*
X3416Y21223D01*
X3422Y21224D01*
X3426Y21225D01*
X3430Y21225D01*
X3433Y21226D01*
X3436Y21226D01*
X3437Y21227D01*
X3437D01*
X3447Y21229D01*
X3456Y21233D01*
X3463Y21237D01*
X3471Y21241D01*
X3477Y21245D01*
X3481Y21248D01*
X3484Y21250D01*
X3485Y21251D01*
X3485D01*
X3493Y21258D01*
X3501Y21266D01*
X3507Y21275D01*
X3512Y21283D01*
X3516Y21290D01*
X3519Y21296D01*
X3520Y21298D01*
X3521Y21299D01*
X3522Y21300D01*
Y21301D01*
X3524Y21307D01*
X3526Y21313D01*
X3530Y21328D01*
X3532Y21344D01*
X3534Y21359D01*
X3535Y21366D01*
Y21372D01*
X3535Y21378D01*
X3536Y21384D01*
Y21218D01*
D02*
G37*
%LPC*%
G36*
X19024Y2160D02*
Y1930D01*
X19024Y1949D01*
X19023Y1959D01*
X19022Y1967D01*
X19022Y1975D01*
X19021Y1983D01*
X19020Y1990D01*
X19019Y1995D01*
X19018Y2001D01*
X19017Y2006D01*
X19016Y2010D01*
X19015Y2013D01*
X19015Y2016D01*
X19014Y2018D01*
X19014Y2019D01*
Y2019D01*
X19008Y2035D01*
X19001Y2050D01*
X18994Y2062D01*
X18988Y2072D01*
X18982Y2080D01*
X18978Y2086D01*
X18976Y2088D01*
X18975Y2090D01*
X18973Y2090D01*
Y2091D01*
X18960Y2103D01*
X18945Y2114D01*
X18930Y2124D01*
X18916Y2131D01*
X18909Y2134D01*
X18903Y2137D01*
X18898Y2139D01*
X18894Y2141D01*
X18889Y2143D01*
X18887Y2144D01*
X18885Y2145D01*
X18884D01*
X18867Y2150D01*
X18849Y2154D01*
X18831Y2156D01*
X18814Y2159D01*
X18806Y2159D01*
X18799Y2160D01*
X18793D01*
X18787Y2160D01*
X18761D01*
X18764D01*
X18751Y2160D01*
X18740Y2159D01*
X18729Y2158D01*
X18718Y2156D01*
X18708Y2155D01*
X18699Y2153D01*
X18691Y2152D01*
X18684Y2150D01*
X18677Y2149D01*
X18671Y2148D01*
X18667Y2146D01*
X18663Y2145D01*
X18660Y2144D01*
X18659Y2143D01*
X18658D01*
X18641Y2136D01*
X18625Y2129D01*
X18611Y2121D01*
X18599Y2114D01*
X18594Y2110D01*
X18589Y2107D01*
X18586Y2103D01*
X18582Y2101D01*
X18580Y2099D01*
X18578Y2097D01*
X18577Y2096D01*
X18576Y2096D01*
X18565Y2083D01*
X18555Y2071D01*
X18547Y2058D01*
X18540Y2046D01*
X18536Y2036D01*
X18534Y2031D01*
X18532Y2027D01*
X18531Y2024D01*
X18530Y2022D01*
X18530Y2020D01*
Y2020D01*
X18528Y2013D01*
X18526Y2006D01*
X18524Y1991D01*
X18522Y1975D01*
X18521Y1959D01*
X18520Y1952D01*
Y1945D01*
X18520Y1939D01*
Y1940D01*
Y1738D01*
X19024D01*
Y2160D01*
D02*
G37*
G36*
Y1630D02*
X18520D01*
Y1536D01*
X18857D01*
X18520Y1330D01*
Y1231D01*
X19024D01*
Y1326D01*
X18695D01*
X19024Y1528D01*
Y1630D01*
D02*
G37*
G36*
X19033Y1136D02*
Y920D01*
X19032Y943D01*
X19030Y966D01*
X19026Y986D01*
X19024Y996D01*
X19022Y1005D01*
X19019Y1013D01*
X19018Y1021D01*
X19015Y1027D01*
X19014Y1032D01*
X19012Y1037D01*
X19011Y1040D01*
X19010Y1042D01*
Y1043D01*
X19005Y1054D01*
X19001Y1064D01*
X18997Y1074D01*
X18992Y1083D01*
X18987Y1092D01*
X18983Y1099D01*
X18979Y1106D01*
X18974Y1112D01*
X18971Y1118D01*
X18967Y1123D01*
X18964Y1127D01*
X18961Y1130D01*
X18959Y1133D01*
X18957Y1134D01*
X18957Y1135D01*
X18956Y1136D01*
X18754D01*
Y917D01*
X18839D01*
Y1033D01*
X18904D01*
X18910Y1024D01*
X18916Y1015D01*
X18922Y1005D01*
X18926Y997D01*
X18929Y989D01*
X18932Y983D01*
X18933Y980D01*
X18934Y979D01*
X18934Y978D01*
Y977D01*
X18938Y966D01*
X18941Y954D01*
X18944Y943D01*
X18945Y934D01*
X18946Y926D01*
X18947Y919D01*
Y914D01*
X18946Y902D01*
X18945Y891D01*
X18943Y880D01*
X18940Y870D01*
X18936Y861D01*
X18933Y852D01*
X18929Y845D01*
X18924Y837D01*
X18920Y831D01*
X18916Y825D01*
X18912Y820D01*
X18909Y817D01*
X18906Y813D01*
X18903Y811D01*
X18902Y810D01*
X18902Y809D01*
X18893Y802D01*
X18883Y796D01*
X18873Y791D01*
X18861Y786D01*
X18850Y782D01*
X18839Y779D01*
X18818Y775D01*
X18807Y773D01*
X18798Y772D01*
X18789Y771D01*
X18782Y770D01*
X18776Y769D01*
X18771D01*
X18768D01*
X18767D01*
X18752Y770D01*
X18738Y771D01*
X18724Y773D01*
X18712Y776D01*
X18701Y779D01*
X18691Y782D01*
X18681Y785D01*
X18673Y789D01*
X18666Y793D01*
X18659Y796D01*
X18653Y799D01*
X18649Y803D01*
X18646Y805D01*
X18643Y807D01*
X18642Y808D01*
X18641Y808D01*
X18634Y816D01*
X18627Y824D01*
X18621Y833D01*
X18617Y842D01*
X18613Y850D01*
X18609Y860D01*
X18606Y868D01*
X18604Y877D01*
X18602Y884D01*
X18601Y891D01*
X18600Y898D01*
X18599Y903D01*
X18599Y908D01*
Y915D01*
X18600Y930D01*
X18602Y945D01*
X18606Y957D01*
X18609Y968D01*
X18613Y976D01*
X18615Y980D01*
X18617Y983D01*
X18618Y985D01*
X18619Y987D01*
X18620Y987D01*
Y988D01*
X18629Y998D01*
X18638Y1007D01*
X18648Y1014D01*
X18657Y1019D01*
X18666Y1024D01*
X18673Y1026D01*
X18675Y1028D01*
X18677Y1028D01*
X18678Y1029D01*
X18678D01*
X18660Y1130D01*
X18647Y1126D01*
X18635Y1123D01*
X18624Y1118D01*
X18614Y1113D01*
X18604Y1107D01*
X18595Y1102D01*
X18587Y1096D01*
X18579Y1090D01*
X18573Y1084D01*
X18567Y1079D01*
X18562Y1074D01*
X18558Y1070D01*
X18555Y1067D01*
X18553Y1064D01*
X18552Y1062D01*
X18551Y1061D01*
X18544Y1051D01*
X18539Y1040D01*
X18533Y1028D01*
X18529Y1016D01*
X18525Y1004D01*
X18522Y991D01*
X18519Y980D01*
X18516Y968D01*
X18515Y957D01*
X18514Y947D01*
X18513Y938D01*
X18512Y930D01*
X18512Y923D01*
Y901D01*
X18513Y889D01*
X18514Y877D01*
X18516Y865D01*
X18518Y854D01*
X18520Y845D01*
X18522Y835D01*
X18525Y827D01*
X18527Y819D01*
X18529Y813D01*
X18532Y807D01*
X18533Y803D01*
X18535Y799D01*
X18536Y796D01*
X18537Y794D01*
X18537Y794D01*
X18544Y782D01*
X18551Y772D01*
X18558Y761D01*
X18566Y752D01*
X18573Y743D01*
X18582Y736D01*
X18589Y728D01*
X18596Y722D01*
X18604Y716D01*
X18610Y711D01*
X18616Y707D01*
X18621Y703D01*
X18625Y701D01*
X18628Y699D01*
X18631Y698D01*
X18631Y697D01*
X18643Y691D01*
X18655Y687D01*
X18667Y682D01*
X18679Y678D01*
X18702Y673D01*
X18713Y670D01*
X18724Y668D01*
X18734Y667D01*
X18743Y666D01*
X18751Y666D01*
X18758Y665D01*
X18764Y664D01*
X18512D01*
X19033D01*
Y1136D01*
D02*
G37*
%LPD*%
G36*
X18793Y2055D02*
X18803Y2054D01*
X18811Y2054D01*
X18820Y2053D01*
X18828Y2052D01*
X18835Y2051D01*
X18840Y2050D01*
X18846Y2049D01*
X18851Y2048D01*
X18855Y2047D01*
X18859Y2047D01*
X18861Y2046D01*
X18863Y2046D01*
X18864Y2045D01*
X18865D01*
X18877Y2041D01*
X18887Y2036D01*
X18895Y2032D01*
X18902Y2027D01*
X18908Y2024D01*
X18911Y2021D01*
X18913Y2019D01*
X18914Y2018D01*
X18919Y2012D01*
X18923Y2005D01*
X18927Y1998D01*
X18930Y1992D01*
X18931Y1986D01*
X18933Y1981D01*
X18934Y1978D01*
X18934Y1977D01*
X18936Y1969D01*
X18937Y1960D01*
X18938Y1950D01*
X18938Y1940D01*
X18939Y1931D01*
Y1840D01*
X18605D01*
Y1907D01*
X18606Y1917D01*
Y1925D01*
X18606Y1932D01*
X18607Y1939D01*
X18607Y1945D01*
Y1951D01*
X18608Y1955D01*
X18608Y1959D01*
X18609Y1962D01*
X18610Y1965D01*
Y1967D01*
X18610Y1968D01*
Y1969D01*
X18613Y1980D01*
X18617Y1988D01*
X18620Y1997D01*
X18624Y2003D01*
X18628Y2009D01*
X18631Y2012D01*
X18634Y2015D01*
X18634Y2016D01*
X18641Y2022D01*
X18649Y2028D01*
X18657Y2033D01*
X18665Y2037D01*
X18672Y2041D01*
X18678Y2043D01*
X18680Y2044D01*
X18682Y2044D01*
X18683Y2045D01*
X18683D01*
X18689Y2047D01*
X18696Y2048D01*
X18710Y2051D01*
X18725Y2053D01*
X18739Y2054D01*
X18746Y2055D01*
X18752D01*
X18758D01*
X18763Y2055D01*
X18766D01*
X18770D01*
X18772D01*
X18772D01*
X18783D01*
X18793Y2055D01*
D02*
G37*
G36*
X19033Y664D02*
X18771D01*
X18785Y665D01*
X18798Y666D01*
X18823Y669D01*
X18835Y671D01*
X18846Y674D01*
X18856Y676D01*
X18866Y679D01*
X18874Y682D01*
X18882Y684D01*
X18889Y687D01*
X18895Y689D01*
X18899Y691D01*
X18903Y692D01*
X18905Y693D01*
X18906Y694D01*
X18917Y699D01*
X18927Y706D01*
X18937Y713D01*
X18947Y720D01*
X18955Y727D01*
X18963Y735D01*
X18970Y742D01*
X18976Y749D01*
X18982Y756D01*
X18987Y762D01*
X18991Y768D01*
X18994Y772D01*
X18997Y776D01*
X18999Y780D01*
X19000Y782D01*
X19001Y782D01*
X19007Y793D01*
X19011Y805D01*
X19016Y817D01*
X19019Y829D01*
X19025Y852D01*
X19028Y863D01*
X19029Y873D01*
X19031Y883D01*
X19032Y892D01*
X19032Y900D01*
X19033Y907D01*
X19033Y913D01*
Y664D01*
D02*
G37*
%LPC*%
G36*
X15520Y1830D02*
D01*
Y1361D01*
X16024D01*
X15520D01*
X16024Y1540D01*
Y1651D01*
X15520Y1830D01*
D02*
G37*
G36*
X15877Y1330D02*
X15866D01*
X15857Y1329D01*
X15842Y1326D01*
X15829Y1322D01*
X15818Y1318D01*
X15813Y1315D01*
X15808Y1312D01*
X15805Y1310D01*
X15802Y1308D01*
X15800Y1307D01*
X15797Y1305D01*
X15797Y1305D01*
X15796Y1304D01*
X15785Y1294D01*
X15776Y1283D01*
X15769Y1271D01*
X15763Y1261D01*
X15759Y1251D01*
X15757Y1247D01*
X15756Y1242D01*
X15755Y1240D01*
X15755Y1237D01*
X15754Y1236D01*
Y1235D01*
X15747Y1248D01*
X15738Y1259D01*
X15730Y1269D01*
X15721Y1277D01*
X15712Y1284D01*
X15703Y1291D01*
X15695Y1296D01*
X15686Y1299D01*
X15678Y1303D01*
X15671Y1304D01*
X15664Y1306D01*
X15659Y1307D01*
X15655Y1308D01*
X15651Y1308D01*
X15649D01*
X15648D01*
X15639Y1308D01*
X15631Y1307D01*
X15623Y1305D01*
X15615Y1303D01*
X15601Y1297D01*
X15589Y1291D01*
X15583Y1287D01*
X15578Y1284D01*
X15574Y1281D01*
X15571Y1279D01*
X15568Y1276D01*
X15566Y1275D01*
X15565Y1273D01*
X15564Y1273D01*
X15556Y1265D01*
X15549Y1255D01*
X15543Y1246D01*
X15537Y1237D01*
X15533Y1227D01*
X15529Y1217D01*
X15526Y1208D01*
X15524Y1199D01*
X15522Y1191D01*
X15520Y1183D01*
X15519Y1176D01*
X15519Y1170D01*
X15518Y1165D01*
Y1330D01*
D01*
Y995D01*
Y1158D01*
X15519Y1143D01*
X15520Y1128D01*
X15523Y1115D01*
X15526Y1104D01*
X15529Y1095D01*
X15530Y1091D01*
X15532Y1088D01*
X15532Y1086D01*
X15533Y1084D01*
X15534Y1083D01*
Y1082D01*
X15540Y1070D01*
X15547Y1060D01*
X15555Y1051D01*
X15562Y1044D01*
X15568Y1037D01*
X15573Y1033D01*
X15576Y1031D01*
X15577Y1030D01*
X15578D01*
X15589Y1023D01*
X15600Y1017D01*
X15613Y1013D01*
X15624Y1009D01*
X15635Y1006D01*
X15639Y1005D01*
X15643Y1004D01*
X15646Y1003D01*
X15649Y1003D01*
X15650Y1002D01*
X15650D01*
X15666Y1091D01*
X15654Y1093D01*
X15644Y1096D01*
X15635Y1100D01*
X15628Y1103D01*
X15622Y1107D01*
X15619Y1110D01*
X15616Y1112D01*
X15615Y1112D01*
X15610Y1119D01*
X15606Y1127D01*
X15602Y1134D01*
X15600Y1141D01*
X15599Y1147D01*
X15598Y1152D01*
Y1156D01*
X15599Y1164D01*
X15600Y1173D01*
X15603Y1179D01*
X15606Y1185D01*
X15608Y1190D01*
X15611Y1193D01*
X15613Y1195D01*
X15614Y1196D01*
X15620Y1201D01*
X15627Y1205D01*
X15633Y1207D01*
X15639Y1210D01*
X15645Y1211D01*
X15650Y1212D01*
X15653D01*
X15653D01*
X15654D01*
X15664Y1210D01*
X15674Y1208D01*
X15682Y1205D01*
X15689Y1201D01*
X15695Y1197D01*
X15699Y1194D01*
X15702Y1192D01*
X15702Y1191D01*
X15708Y1182D01*
X15713Y1173D01*
X15716Y1162D01*
X15717Y1153D01*
X15719Y1143D01*
Y1140D01*
X15719Y1136D01*
Y1130D01*
X15798Y1119D01*
X15796Y1129D01*
X15793Y1137D01*
X15792Y1145D01*
X15792Y1152D01*
X15791Y1157D01*
X15790Y1160D01*
Y1164D01*
X15792Y1174D01*
X15794Y1183D01*
X15797Y1191D01*
X15801Y1198D01*
X15805Y1204D01*
X15808Y1208D01*
X15811Y1210D01*
X15812Y1212D01*
X15821Y1218D01*
X15830Y1223D01*
X15840Y1227D01*
X15849Y1229D01*
X15857Y1230D01*
X15864Y1231D01*
X15866D01*
X15868D01*
X15869D01*
X15870D01*
X15884Y1230D01*
X15896Y1228D01*
X15906Y1225D01*
X15915Y1221D01*
X15922Y1217D01*
X15927Y1214D01*
X15930Y1212D01*
X15931Y1210D01*
X15939Y1202D01*
X15944Y1194D01*
X15948Y1185D01*
X15951Y1178D01*
X15952Y1171D01*
X15953Y1165D01*
X15954Y1161D01*
Y1160D01*
X15953Y1150D01*
X15951Y1141D01*
X15948Y1133D01*
X15944Y1126D01*
X15941Y1120D01*
X15938Y1116D01*
X15936Y1114D01*
X15935Y1112D01*
X15927Y1106D01*
X15919Y1100D01*
X15909Y1096D01*
X15901Y1093D01*
X15892Y1091D01*
X15886Y1090D01*
X15884Y1089D01*
X15882Y1089D01*
X15881D01*
X15880D01*
X15892Y995D01*
X15518D01*
X16033D01*
D01*
X15892D01*
X15903Y997D01*
X15915Y999D01*
X15925Y1003D01*
X15934Y1006D01*
X15944Y1010D01*
X15952Y1015D01*
X15960Y1019D01*
X15967Y1024D01*
X15973Y1028D01*
X15979Y1033D01*
X15983Y1037D01*
X15987Y1040D01*
X15990Y1043D01*
X15993Y1045D01*
X15994Y1047D01*
X15994Y1047D01*
X16001Y1056D01*
X16007Y1065D01*
X16012Y1075D01*
X16017Y1084D01*
X16021Y1094D01*
X16024Y1103D01*
X16029Y1121D01*
X16030Y1129D01*
X16031Y1137D01*
X16032Y1144D01*
X16033Y1150D01*
X16033Y1154D01*
Y1161D01*
X16033Y1174D01*
X16032Y1187D01*
X16029Y1199D01*
X16026Y1210D01*
X16022Y1221D01*
X16019Y1231D01*
X16014Y1240D01*
X16010Y1248D01*
X16006Y1256D01*
X16001Y1262D01*
X15998Y1268D01*
X15994Y1273D01*
X15991Y1277D01*
X15989Y1279D01*
X15987Y1281D01*
X15987Y1282D01*
X15978Y1290D01*
X15969Y1298D01*
X15959Y1304D01*
X15950Y1310D01*
X15940Y1315D01*
X15930Y1319D01*
X15922Y1322D01*
X15913Y1325D01*
X15905Y1326D01*
X15897Y1328D01*
X15891Y1329D01*
X15885Y1330D01*
X15880D01*
X15877Y1330D01*
D02*
G37*
%LPD*%
G36*
X15893Y1598D02*
X15520Y1471D01*
Y1721D01*
X15893Y1598D01*
D02*
G37*
%LPC*%
G36*
X5920Y23224D02*
D01*
Y22931D01*
X5793D01*
X5920Y23224D01*
X5837D01*
X5756Y23019D01*
X5678Y23224D01*
X5595D01*
D01*
X5722Y22931D01*
X5920D01*
Y23224D01*
D02*
G37*
G36*
X5969Y22736D02*
X5745Y22588D01*
X5541Y22722D01*
Y22736D01*
Y22621D01*
X5668Y22537D01*
X5541Y22452D01*
Y22338D01*
Y22351D01*
X5745Y22486D01*
X5969Y22338D01*
Y22736D01*
D02*
G37*
G36*
Y22334D02*
D01*
X5886Y22282D01*
X5877Y22276D01*
X5868Y22271D01*
X5861Y22266D01*
X5853Y22261D01*
X5847Y22257D01*
X5842Y22252D01*
X5837Y22249D01*
X5832Y22246D01*
X5828Y22243D01*
X5825Y22240D01*
X5822Y22238D01*
X5820Y22236D01*
X5818Y22235D01*
X5817Y22234D01*
X5816Y22233D01*
X5809Y22225D01*
X5802Y22218D01*
X5796Y22210D01*
X5791Y22202D01*
X5787Y22196D01*
X5783Y22191D01*
X5782Y22189D01*
X5781Y22188D01*
X5780Y22187D01*
Y22186D01*
X5778Y22197D01*
X5776Y22206D01*
X5773Y22215D01*
X5770Y22223D01*
X5767Y22231D01*
X5764Y22238D01*
X5760Y22244D01*
X5757Y22250D01*
X5754Y22254D01*
X5751Y22259D01*
X5748Y22262D01*
X5745Y22265D01*
X5744Y22268D01*
X5742Y22269D01*
X5741Y22270D01*
X5741Y22271D01*
X5735Y22276D01*
X5728Y22280D01*
X5721Y22284D01*
X5715Y22288D01*
X5708Y22290D01*
X5701Y22293D01*
X5689Y22296D01*
X5683Y22297D01*
X5678Y22298D01*
X5673Y22299D01*
X5669Y22299D01*
X5665Y22300D01*
X5663D01*
X5661D01*
X5661D01*
X5647Y22299D01*
X5634Y22297D01*
X5623Y22294D01*
X5613Y22290D01*
X5608Y22288D01*
X5605Y22287D01*
X5601Y22285D01*
X5598Y22284D01*
X5597Y22283D01*
X5595Y22282D01*
X5594Y22281D01*
X5594D01*
X5583Y22273D01*
X5575Y22265D01*
X5567Y22256D01*
X5562Y22249D01*
X5557Y22242D01*
X5554Y22236D01*
X5553Y22234D01*
X5553Y22232D01*
X5552Y22231D01*
Y22231D01*
X5550Y22224D01*
X5548Y22217D01*
X5547Y22210D01*
X5546Y22202D01*
X5544Y22186D01*
X5542Y22169D01*
X5542Y22161D01*
X5541Y22154D01*
Y22148D01*
X5541Y22143D01*
Y21950D01*
X5969D01*
Y22334D01*
D02*
G37*
G36*
Y21809D02*
X5539D01*
Y21742D01*
X5547Y21739D01*
X5553Y21736D01*
X5566Y21728D01*
X5578Y21720D01*
X5588Y21711D01*
X5593Y21707D01*
X5597Y21703D01*
X5600Y21700D01*
X5602Y21697D01*
X5605Y21694D01*
X5606Y21692D01*
X5607Y21691D01*
X5608Y21690D01*
X5618Y21676D01*
X5626Y21663D01*
X5633Y21652D01*
X5639Y21642D01*
X5641Y21637D01*
X5643Y21633D01*
X5644Y21629D01*
X5646Y21626D01*
X5646Y21624D01*
X5647Y21622D01*
X5647Y21621D01*
Y21621D01*
X5722D01*
X5718Y21632D01*
X5713Y21643D01*
X5709Y21653D01*
X5704Y21663D01*
X5698Y21672D01*
X5694Y21681D01*
X5689Y21689D01*
X5683Y21697D01*
X5679Y21704D01*
X5674Y21709D01*
X5670Y21714D01*
X5667Y21719D01*
X5664Y21722D01*
X5662Y21725D01*
X5660Y21726D01*
X5660Y21727D01*
X5969D01*
Y21663D01*
Y21809D01*
D02*
G37*
G36*
X5977Y21526D02*
X5785D01*
D01*
X5977D01*
D02*
G37*
G36*
D02*
D01*
Y21360D01*
X5976Y21378D01*
X5976Y21387D01*
X5975Y21395D01*
X5974Y21402D01*
X5973Y21409D01*
X5971Y21415D01*
X5970Y21420D01*
X5969Y21425D01*
X5968Y21430D01*
X5967Y21433D01*
X5966Y21437D01*
X5965Y21439D01*
X5964Y21441D01*
X5964Y21442D01*
Y21442D01*
X5958Y21454D01*
X5953Y21463D01*
X5947Y21472D01*
X5942Y21479D01*
X5937Y21485D01*
X5933Y21489D01*
X5930Y21492D01*
X5929Y21493D01*
X5920Y21499D01*
X5911Y21505D01*
X5902Y21509D01*
X5894Y21512D01*
X5887Y21515D01*
X5883Y21516D01*
X5881Y21517D01*
X5878Y21517D01*
X5877Y21518D01*
X5876Y21518D01*
X5875D01*
X5869Y21520D01*
X5861Y21521D01*
X5853Y21522D01*
X5845Y21523D01*
X5826Y21524D01*
X5808Y21525D01*
X5800Y21525D01*
X5792D01*
X5785Y21526D01*
X5541D01*
Y21439D01*
X5778D01*
X5788D01*
X5796D01*
X5804Y21439D01*
X5811D01*
X5818Y21438D01*
X5824D01*
X5829Y21438D01*
X5834Y21437D01*
X5838Y21437D01*
X5842D01*
X5845Y21436D01*
X5847Y21436D01*
X5849D01*
X5850Y21435D01*
X5851D01*
X5851D01*
X5859Y21433D01*
X5866Y21430D01*
X5873Y21426D01*
X5878Y21422D01*
X5882Y21418D01*
X5886Y21415D01*
X5888Y21413D01*
X5888Y21412D01*
X5893Y21405D01*
X5896Y21396D01*
X5899Y21387D01*
X5901Y21378D01*
X5902Y21370D01*
X5902Y21366D01*
Y21363D01*
X5903Y21361D01*
Y21358D01*
X5902Y21345D01*
X5900Y21334D01*
X5898Y21324D01*
X5895Y21316D01*
X5892Y21310D01*
X5890Y21305D01*
X5888Y21302D01*
X5887Y21301D01*
X5881Y21294D01*
X5874Y21288D01*
X5867Y21284D01*
X5860Y21280D01*
X5854Y21278D01*
X5849Y21276D01*
X5847Y21275D01*
X5846D01*
X5845Y21275D01*
X5845D01*
X5842Y21274D01*
X5837Y21274D01*
X5832Y21273D01*
X5827D01*
X5815Y21272D01*
X5803D01*
X5792Y21272D01*
X5787D01*
X5782D01*
X5779D01*
X5776D01*
X5774D01*
X5773D01*
X5541D01*
Y21185D01*
X5977D01*
Y21526D01*
D02*
G37*
%LPD*%
G36*
X5969Y22442D02*
X5824Y22537D01*
X5969Y22632D01*
Y22442D01*
D02*
G37*
G36*
Y22036D02*
X5790D01*
Y22064D01*
X5791Y22073D01*
X5792Y22080D01*
X5793Y22086D01*
X5794Y22091D01*
X5794Y22094D01*
X5795Y22096D01*
Y22097D01*
X5797Y22102D01*
X5800Y22106D01*
X5803Y22111D01*
X5806Y22115D01*
X5808Y22118D01*
X5811Y22121D01*
X5812Y22122D01*
X5813Y22123D01*
X5816Y22125D01*
X5819Y22128D01*
X5823Y22132D01*
X5828Y22135D01*
X5839Y22143D01*
X5849Y22150D01*
X5859Y22157D01*
X5864Y22160D01*
X5868Y22163D01*
X5871Y22165D01*
X5874Y22167D01*
X5875Y22168D01*
X5876Y22168D01*
X5969Y22231D01*
Y22036D01*
D02*
G37*
G36*
X5673Y22210D02*
X5680Y22209D01*
X5685Y22207D01*
X5690Y22206D01*
X5694Y22204D01*
X5696Y22203D01*
X5698Y22202D01*
X5698Y22202D01*
X5703Y22198D01*
X5707Y22194D01*
X5710Y22190D01*
X5712Y22186D01*
X5714Y22183D01*
X5716Y22180D01*
X5716Y22178D01*
X5717Y22177D01*
X5718Y22174D01*
X5718Y22169D01*
X5719Y22164D01*
X5720Y22158D01*
X5721Y22146D01*
X5721Y22133D01*
Y22120D01*
X5722Y22114D01*
Y22036D01*
X5613D01*
Y22135D01*
X5613Y22141D01*
Y22154D01*
X5614Y22157D01*
Y22164D01*
X5614Y22166D01*
Y22166D01*
X5616Y22174D01*
X5619Y22180D01*
X5622Y22186D01*
X5624Y22190D01*
X5627Y22194D01*
X5630Y22197D01*
X5631Y22198D01*
X5632Y22199D01*
X5637Y22202D01*
X5643Y22205D01*
X5648Y22207D01*
X5654Y22209D01*
X5659Y22210D01*
X5663Y22210D01*
X5665D01*
X5666D01*
X5666D01*
X5673Y22210D01*
D02*
G37*
G36*
X5977Y21185D02*
X5783D01*
X5795Y21186D01*
X5806Y21186D01*
X5817Y21187D01*
X5827Y21187D01*
X5836Y21188D01*
X5844Y21189D01*
X5851Y21190D01*
X5857Y21190D01*
X5863Y21191D01*
X5867Y21192D01*
X5871Y21192D01*
X5874Y21193D01*
X5877Y21193D01*
X5878Y21194D01*
X5878D01*
X5888Y21196D01*
X5896Y21200D01*
X5904Y21204D01*
X5912Y21208D01*
X5918Y21212D01*
X5922Y21214D01*
X5925Y21216D01*
X5926Y21217D01*
X5926D01*
X5934Y21225D01*
X5942Y21233D01*
X5947Y21242D01*
X5953Y21250D01*
X5957Y21257D01*
X5960Y21262D01*
X5961Y21264D01*
X5962Y21266D01*
X5963Y21267D01*
Y21267D01*
X5965Y21274D01*
X5967Y21280D01*
X5971Y21295D01*
X5973Y21311D01*
X5975Y21326D01*
X5976Y21333D01*
Y21339D01*
X5976Y21345D01*
X5977Y21351D01*
Y21185D01*
D02*
G37*
%LPC*%
G36*
X19952Y17681D02*
X19754D01*
X19734Y17680D01*
X19716Y17678D01*
X19707Y17677D01*
X19700Y17675D01*
X19693Y17674D01*
X19686Y17673D01*
X19680Y17671D01*
X19675Y17669D01*
X19670Y17668D01*
X19666Y17667D01*
X19663Y17665D01*
X19661Y17664D01*
X19660Y17664D01*
X19659D01*
X19645Y17657D01*
X19634Y17649D01*
X19623Y17641D01*
X19615Y17633D01*
X19608Y17626D01*
X19603Y17621D01*
X19602Y17618D01*
X19601Y17617D01*
X19599Y17616D01*
Y17615D01*
X19593Y17603D01*
X19588Y17591D01*
X19584Y17580D01*
X19582Y17569D01*
X19580Y17560D01*
X19580Y17556D01*
Y17553D01*
X19579Y17550D01*
Y17549D01*
Y17547D01*
Y17547D01*
X19580Y17536D01*
X19581Y17526D01*
X19583Y17517D01*
X19586Y17508D01*
X19589Y17499D01*
X19593Y17492D01*
X19597Y17484D01*
X19601Y17477D01*
X19605Y17472D01*
X19609Y17466D01*
X19613Y17462D01*
X19616Y17458D01*
X19619Y17454D01*
X19621Y17452D01*
X19622Y17451D01*
X19623Y17451D01*
X19629Y17446D01*
X19637Y17441D01*
X19644Y17436D01*
X19653Y17431D01*
X19671Y17423D01*
X19689Y17416D01*
X19698Y17413D01*
X19706Y17411D01*
X19714Y17408D01*
X19720Y17406D01*
X19725Y17405D01*
X19729Y17404D01*
X19731Y17403D01*
X19732D01*
X19743Y17400D01*
X19753Y17398D01*
X19762Y17396D01*
X19770Y17393D01*
X19777Y17391D01*
X19783Y17390D01*
X19789Y17388D01*
X19794Y17387D01*
X19798Y17386D01*
X19801Y17385D01*
X19804Y17384D01*
X19806Y17383D01*
X19808Y17383D01*
X19809D01*
X19810Y17382D01*
X19818Y17379D01*
X19825Y17375D01*
X19832Y17372D01*
X19837Y17369D01*
X19840Y17366D01*
X19843Y17364D01*
X19844Y17362D01*
X19844Y17361D01*
X19848Y17357D01*
X19850Y17352D01*
X19852Y17347D01*
X19854Y17342D01*
X19854Y17339D01*
X19855Y17335D01*
Y17333D01*
Y17333D01*
Y17328D01*
X19854Y17323D01*
X19851Y17314D01*
X19847Y17306D01*
X19843Y17299D01*
X19839Y17294D01*
X19835Y17289D01*
X19832Y17287D01*
X19832Y17286D01*
X19831D01*
X19821Y17279D01*
X19810Y17275D01*
X19798Y17272D01*
X19787Y17269D01*
X19776Y17268D01*
X19772Y17267D01*
X19768D01*
X19765Y17267D01*
X19760D01*
X19745Y17268D01*
X19730Y17270D01*
X19719Y17274D01*
X19709Y17278D01*
X19700Y17282D01*
X19697Y17284D01*
X19695Y17285D01*
X19693Y17287D01*
X19691Y17288D01*
X19690Y17289D01*
X19690D01*
X19685Y17293D01*
X19681Y17298D01*
X19674Y17309D01*
X19668Y17320D01*
X19663Y17332D01*
X19659Y17342D01*
X19658Y17347D01*
X19657Y17351D01*
X19657Y17354D01*
X19656Y17356D01*
X19655Y17358D01*
Y17359D01*
X19561Y17349D01*
X19563Y17335D01*
X19566Y17321D01*
X19570Y17308D01*
X19575Y17296D01*
X19579Y17285D01*
X19584Y17275D01*
X19589Y17266D01*
X19594Y17258D01*
X19599Y17251D01*
X19603Y17244D01*
X19608Y17239D01*
X19612Y17234D01*
X19615Y17231D01*
X19617Y17229D01*
X19619Y17227D01*
X19619Y17227D01*
X19629Y17220D01*
X19639Y17213D01*
X19650Y17207D01*
X19662Y17203D01*
X19673Y17198D01*
X19685Y17195D01*
X19696Y17192D01*
X19707Y17190D01*
X19718Y17188D01*
X19728Y17187D01*
X19736Y17186D01*
X19744Y17186D01*
X19750D01*
X19755Y17185D01*
X19759D01*
X19782Y17186D01*
X19792Y17187D01*
X19802Y17188D01*
X19811Y17189D01*
X19819Y17191D01*
X19828Y17192D01*
X19835Y17194D01*
X19842Y17195D01*
X19847Y17197D01*
X19852Y17198D01*
X19856Y17200D01*
X19859Y17201D01*
X19862Y17202D01*
X19863Y17202D01*
X19864D01*
X19879Y17210D01*
X19891Y17218D01*
X19902Y17227D01*
X19912Y17236D01*
X19919Y17243D01*
X19924Y17250D01*
X19926Y17252D01*
X19927Y17254D01*
X19929Y17255D01*
Y17256D01*
X19936Y17269D01*
X19942Y17283D01*
X19946Y17296D01*
X19949Y17308D01*
X19950Y17313D01*
X19951Y17318D01*
X19951Y17323D01*
Y17326D01*
X19952Y17329D01*
Y17194D01*
Y17377D01*
Y17333D01*
X19951Y17349D01*
X19949Y17364D01*
X19946Y17377D01*
X19942Y17388D01*
X19940Y17393D01*
X19939Y17397D01*
X19937Y17401D01*
X19936Y17403D01*
X19934Y17406D01*
X19934Y17408D01*
X19932Y17408D01*
Y17409D01*
X19925Y17420D01*
X19916Y17429D01*
X19907Y17438D01*
X19899Y17445D01*
X19891Y17451D01*
X19885Y17454D01*
X19883Y17456D01*
X19881Y17457D01*
X19880Y17458D01*
X19879D01*
X19873Y17461D01*
X19865Y17464D01*
X19849Y17470D01*
X19831Y17477D01*
X19814Y17482D01*
X19806Y17484D01*
X19799Y17486D01*
X19792Y17488D01*
X19786Y17489D01*
X19781Y17490D01*
X19778Y17492D01*
X19775Y17492D01*
X19775D01*
X19762Y17495D01*
X19751Y17498D01*
X19740Y17501D01*
X19731Y17504D01*
X19723Y17507D01*
X19716Y17510D01*
X19709Y17512D01*
X19704Y17514D01*
X19699Y17516D01*
X19695Y17519D01*
X19693Y17520D01*
X19690Y17521D01*
X19688Y17523D01*
X19687Y17524D01*
X19686Y17524D01*
X19681Y17529D01*
X19678Y17534D01*
X19675Y17539D01*
X19673Y17544D01*
X19672Y17547D01*
X19671Y17551D01*
Y17553D01*
Y17554D01*
X19672Y17560D01*
X19674Y17566D01*
X19676Y17571D01*
X19679Y17575D01*
X19681Y17579D01*
X19684Y17581D01*
X19686Y17582D01*
X19686Y17583D01*
X19696Y17589D01*
X19707Y17593D01*
X19718Y17596D01*
X19729Y17598D01*
X19738Y17600D01*
X19742Y17600D01*
X19746Y17601D01*
X19753D01*
X19767Y17600D01*
X19780Y17598D01*
X19790Y17596D01*
X19798Y17592D01*
X19805Y17590D01*
X19810Y17587D01*
X19813Y17585D01*
X19814Y17584D01*
X19821Y17577D01*
X19827Y17569D01*
X19832Y17560D01*
X19835Y17552D01*
X19838Y17544D01*
X19840Y17537D01*
X19840Y17535D01*
Y17533D01*
X19841Y17532D01*
Y17531D01*
X19938Y17535D01*
X19937Y17547D01*
X19935Y17559D01*
X19932Y17569D01*
X19929Y17580D01*
X19926Y17589D01*
X19921Y17598D01*
X19917Y17606D01*
X19913Y17613D01*
X19909Y17619D01*
X19904Y17625D01*
X19900Y17630D01*
X19897Y17634D01*
X19894Y17637D01*
X19892Y17639D01*
X19890Y17641D01*
X19890Y17641D01*
X19881Y17648D01*
X19871Y17654D01*
X19860Y17659D01*
X19849Y17664D01*
X19838Y17668D01*
X19827Y17671D01*
X19816Y17674D01*
X19805Y17676D01*
X19794Y17678D01*
X19785Y17679D01*
X19776Y17680D01*
X19769Y17680D01*
X19763Y17681D01*
X19952D01*
D02*
G37*
G36*
X21779D02*
X21315D01*
D01*
X21546D01*
X21525Y17680D01*
X21505Y17678D01*
X21496Y17677D01*
X21487Y17675D01*
X21480Y17673D01*
X21473Y17672D01*
X21466Y17669D01*
X21460Y17668D01*
X21455Y17666D01*
X21450Y17665D01*
X21447Y17663D01*
X21445Y17663D01*
X21443Y17662D01*
X21443D01*
X21430Y17656D01*
X21419Y17649D01*
X21409Y17642D01*
X21399Y17635D01*
X21392Y17628D01*
X21386Y17623D01*
X21384Y17621D01*
X21382Y17619D01*
X21382Y17619D01*
X21381Y17618D01*
X21371Y17607D01*
X21362Y17596D01*
X21355Y17585D01*
X21348Y17575D01*
X21343Y17566D01*
X21341Y17562D01*
X21340Y17559D01*
X21338Y17556D01*
X21337Y17555D01*
X21336Y17554D01*
Y17553D01*
X21329Y17534D01*
X21324Y17513D01*
X21320Y17492D01*
X21319Y17482D01*
X21317Y17473D01*
X21316Y17464D01*
X21316Y17456D01*
X21315Y17448D01*
Y17442D01*
X21315Y17437D01*
Y17448D01*
Y17430D01*
X21315Y17409D01*
X21317Y17390D01*
X21320Y17371D01*
X21325Y17354D01*
X21329Y17338D01*
X21335Y17323D01*
X21340Y17309D01*
X21346Y17297D01*
X21352Y17286D01*
X21357Y17277D01*
X21363Y17269D01*
X21367Y17262D01*
X21372Y17257D01*
X21374Y17253D01*
X21377Y17251D01*
X21377Y17250D01*
X21389Y17238D01*
X21403Y17228D01*
X21417Y17220D01*
X21430Y17212D01*
X21445Y17206D01*
X21459Y17201D01*
X21473Y17197D01*
X21486Y17193D01*
X21499Y17191D01*
X21510Y17188D01*
X21521Y17187D01*
X21530Y17186D01*
X21537Y17186D01*
X21543Y17185D01*
X21547D01*
X21567Y17186D01*
X21585Y17188D01*
X21602Y17191D01*
X21618Y17195D01*
X21633Y17200D01*
X21647Y17206D01*
X21660Y17212D01*
X21671Y17218D01*
X21682Y17224D01*
X21691Y17230D01*
X21699Y17236D01*
X21705Y17241D01*
X21710Y17244D01*
X21714Y17248D01*
X21716Y17250D01*
X21716Y17251D01*
X21727Y17263D01*
X21737Y17277D01*
X21746Y17292D01*
X21753Y17306D01*
X21759Y17321D01*
X21764Y17337D01*
X21768Y17351D01*
X21772Y17366D01*
X21774Y17380D01*
X21776Y17392D01*
X21778Y17403D01*
X21778Y17413D01*
X21779Y17421D01*
X21779Y17424D01*
Y17432D01*
X21779Y17454D01*
X21777Y17474D01*
X21773Y17493D01*
X21769Y17510D01*
X21764Y17526D01*
X21760Y17541D01*
X21753Y17555D01*
X21748Y17567D01*
X21742Y17579D01*
X21736Y17588D01*
X21731Y17596D01*
X21726Y17603D01*
X21722Y17608D01*
X21719Y17612D01*
X21716Y17615D01*
X21716Y17615D01*
X21704Y17627D01*
X21690Y17637D01*
X21676Y17646D01*
X21663Y17653D01*
X21648Y17659D01*
X21634Y17665D01*
X21620Y17669D01*
X21607Y17673D01*
X21594Y17675D01*
X21583Y17678D01*
X21573Y17679D01*
X21564Y17680D01*
X21556Y17680D01*
X21551Y17681D01*
X21779D01*
D01*
D02*
G37*
G36*
X21242Y17673D02*
X21145D01*
Y17194D01*
X21242D01*
Y17673D01*
D02*
G37*
G36*
X21066D02*
X20665D01*
Y17194D01*
X20847D01*
X20865Y17195D01*
X20874Y17195D01*
X20883Y17196D01*
X20890Y17196D01*
X20897Y17197D01*
X20904Y17198D01*
X20909Y17199D01*
X20914Y17200D01*
X20919Y17201D01*
X20923Y17202D01*
X20926Y17202D01*
X20928Y17203D01*
X20930Y17203D01*
X20931Y17204D01*
X20932D01*
X20947Y17210D01*
X20961Y17216D01*
X20972Y17222D01*
X20982Y17228D01*
X20989Y17234D01*
X20996Y17238D01*
X20997Y17240D01*
X20999Y17241D01*
X20999Y17242D01*
X21000D01*
X21012Y17255D01*
X21022Y17269D01*
X21031Y17283D01*
X21038Y17297D01*
X21041Y17303D01*
X21044Y17309D01*
X21046Y17314D01*
X21048Y17318D01*
X21049Y17322D01*
X21050Y17325D01*
X21051Y17326D01*
Y17327D01*
X21056Y17344D01*
X21060Y17361D01*
X21062Y17378D01*
X21064Y17394D01*
X21065Y17401D01*
X21065Y17408D01*
Y17414D01*
X21066Y17419D01*
Y17441D01*
X21065Y17453D01*
X21064Y17464D01*
X21064Y17475D01*
X21062Y17485D01*
X21061Y17494D01*
X21059Y17503D01*
X21058Y17510D01*
X21056Y17518D01*
X21055Y17524D01*
X21054Y17529D01*
X21053Y17534D01*
X21051Y17537D01*
X21050Y17540D01*
X21050Y17541D01*
Y17542D01*
X21043Y17559D01*
X21036Y17574D01*
X21029Y17587D01*
X21022Y17598D01*
X21018Y17603D01*
X21015Y17607D01*
X21012Y17611D01*
X21009Y17614D01*
X21007Y17616D01*
X21006Y17618D01*
X21005Y17619D01*
X21004Y17619D01*
X20993Y17631D01*
X20981Y17640D01*
X20968Y17648D01*
X20957Y17654D01*
X20947Y17658D01*
X20943Y17660D01*
X20940Y17662D01*
X20936Y17663D01*
X20934Y17663D01*
X20933Y17664D01*
X20932D01*
X20926Y17665D01*
X20920Y17667D01*
X20905Y17669D01*
X20890Y17671D01*
X20875Y17672D01*
X20868Y17673D01*
X20861D01*
X20856Y17673D01*
X21066D01*
D01*
D02*
G37*
G36*
X20615D02*
X19987D01*
D01*
X20100Y17194D01*
X20206D01*
X20301Y17552D01*
X20396Y17194D01*
X20499D01*
X20615Y17673D01*
D01*
D02*
G37*
%LPD*%
G36*
X21558Y17598D02*
X21568Y17597D01*
X21578Y17595D01*
X21588Y17592D01*
X21596Y17589D01*
X21604Y17586D01*
X21611Y17582D01*
X21618Y17578D01*
X21624Y17574D01*
X21629Y17570D01*
X21633Y17567D01*
X21637Y17564D01*
X21639Y17561D01*
X21641Y17559D01*
X21643Y17558D01*
X21643Y17557D01*
X21650Y17550D01*
X21655Y17541D01*
X21660Y17531D01*
X21664Y17521D01*
X21668Y17511D01*
X21671Y17501D01*
X21675Y17481D01*
X21677Y17472D01*
X21678Y17463D01*
X21679Y17455D01*
X21679Y17448D01*
X21680Y17442D01*
Y17438D01*
Y17436D01*
Y17434D01*
X21679Y17420D01*
X21678Y17405D01*
X21676Y17392D01*
X21674Y17380D01*
X21671Y17369D01*
X21668Y17358D01*
X21664Y17349D01*
X21661Y17340D01*
X21658Y17333D01*
X21654Y17327D01*
X21651Y17321D01*
X21648Y17317D01*
X21645Y17314D01*
X21644Y17311D01*
X21643Y17310D01*
X21642Y17309D01*
X21635Y17302D01*
X21627Y17295D01*
X21619Y17290D01*
X21612Y17285D01*
X21604Y17281D01*
X21596Y17278D01*
X21588Y17275D01*
X21581Y17273D01*
X21574Y17271D01*
X21567Y17270D01*
X21562Y17269D01*
X21557Y17268D01*
X21553D01*
X21550Y17268D01*
X21547D01*
X21537Y17268D01*
X21526Y17269D01*
X21517Y17272D01*
X21508Y17274D01*
X21499Y17277D01*
X21491Y17281D01*
X21484Y17285D01*
X21478Y17289D01*
X21471Y17293D01*
X21466Y17296D01*
X21462Y17300D01*
X21458Y17303D01*
X21455Y17305D01*
X21453Y17308D01*
X21452Y17309D01*
X21451Y17309D01*
X21445Y17318D01*
X21439Y17326D01*
X21434Y17336D01*
X21430Y17346D01*
X21427Y17357D01*
X21423Y17367D01*
X21419Y17387D01*
X21418Y17396D01*
X21417Y17405D01*
X21415Y17413D01*
X21415Y17420D01*
X21414Y17426D01*
Y17430D01*
Y17432D01*
Y17433D01*
X21415Y17448D01*
X21416Y17462D01*
X21418Y17475D01*
X21420Y17488D01*
X21423Y17499D01*
X21426Y17509D01*
X21429Y17518D01*
X21433Y17526D01*
X21436Y17533D01*
X21439Y17540D01*
X21443Y17545D01*
X21445Y17549D01*
X21448Y17552D01*
X21449Y17555D01*
X21450Y17556D01*
X21451Y17557D01*
X21458Y17564D01*
X21465Y17571D01*
X21474Y17576D01*
X21481Y17581D01*
X21490Y17585D01*
X21497Y17588D01*
X21505Y17591D01*
X21513Y17593D01*
X21520Y17595D01*
X21526Y17596D01*
X21532Y17597D01*
X21537Y17598D01*
X21542Y17598D01*
X21547D01*
X21558Y17598D01*
D02*
G37*
G36*
X20834Y17592D02*
X20842D01*
X20849Y17591D01*
X20856Y17591D01*
X20861Y17590D01*
X20866D01*
X20871Y17590D01*
X20875Y17589D01*
X20878Y17588D01*
X20880Y17588D01*
X20882D01*
X20883Y17587D01*
X20884D01*
X20894Y17585D01*
X20902Y17581D01*
X20910Y17578D01*
X20916Y17574D01*
X20922Y17570D01*
X20925Y17567D01*
X20928Y17565D01*
X20928Y17565D01*
X20935Y17558D01*
X20940Y17550D01*
X20945Y17542D01*
X20949Y17535D01*
X20952Y17529D01*
X20955Y17523D01*
X20955Y17521D01*
X20956Y17519D01*
X20956Y17519D01*
Y17518D01*
X20958Y17513D01*
X20960Y17506D01*
X20962Y17493D01*
X20964Y17478D01*
X20965Y17465D01*
X20966Y17458D01*
Y17452D01*
Y17447D01*
X20966Y17442D01*
Y17439D01*
Y17436D01*
Y17434D01*
Y17433D01*
Y17423D01*
X20966Y17413D01*
X20965Y17405D01*
X20965Y17396D01*
X20964Y17388D01*
X20963Y17381D01*
X20962Y17374D01*
X20961Y17369D01*
X20960Y17363D01*
X20960Y17359D01*
X20958Y17355D01*
X20958Y17351D01*
X20957Y17349D01*
X20957Y17347D01*
X20956Y17346D01*
Y17345D01*
X20952Y17334D01*
X20948Y17324D01*
X20944Y17316D01*
X20940Y17310D01*
X20936Y17305D01*
X20933Y17301D01*
X20931Y17299D01*
X20931Y17299D01*
X20925Y17294D01*
X20918Y17290D01*
X20912Y17287D01*
X20906Y17284D01*
X20900Y17282D01*
X20896Y17280D01*
X20893Y17280D01*
X20892Y17279D01*
X20884Y17278D01*
X20875Y17277D01*
X20866Y17276D01*
X20856Y17275D01*
X20848Y17275D01*
X20762D01*
Y17592D01*
X20825D01*
X20834Y17592D01*
D02*
G37*
G36*
X20158Y17344D02*
X20086Y17673D01*
X20245D01*
X20158Y17344D01*
D02*
G37*
G36*
X20444Y17338D02*
X20360Y17673D01*
X20517D01*
X20444Y17338D01*
D02*
G37*
%LPC*%
G36*
X19944Y18655D02*
X19595D01*
X19768D01*
X19750Y18654D01*
X19734Y18652D01*
X19726Y18651D01*
X19719Y18650D01*
X19713Y18648D01*
X19707Y18647D01*
X19701Y18646D01*
X19697Y18644D01*
X19693Y18643D01*
X19689Y18642D01*
X19686Y18641D01*
X19684Y18640D01*
X19684Y18639D01*
X19683D01*
X19671Y18633D01*
X19660Y18626D01*
X19651Y18619D01*
X19643Y18612D01*
X19637Y18606D01*
X19633Y18601D01*
X19632Y18599D01*
X19631Y18597D01*
X19630Y18596D01*
Y18596D01*
X19624Y18585D01*
X19619Y18574D01*
X19616Y18564D01*
X19614Y18555D01*
X19612Y18547D01*
X19612Y18543D01*
Y18540D01*
X19611Y18538D01*
Y18536D01*
Y18535D01*
Y18535D01*
X19612Y18525D01*
X19613Y18516D01*
X19615Y18508D01*
X19617Y18500D01*
X19620Y18492D01*
X19624Y18485D01*
X19627Y18478D01*
X19631Y18472D01*
X19634Y18467D01*
X19638Y18463D01*
X19641Y18459D01*
X19644Y18455D01*
X19647Y18452D01*
X19649Y18450D01*
X19650Y18449D01*
X19650Y18449D01*
X19656Y18444D01*
X19663Y18440D01*
X19670Y18435D01*
X19678Y18431D01*
X19694Y18424D01*
X19710Y18418D01*
X19718Y18415D01*
X19725Y18413D01*
X19732Y18411D01*
X19737Y18409D01*
X19742Y18408D01*
X19745Y18407D01*
X19747Y18406D01*
X19748D01*
X19758Y18404D01*
X19767Y18402D01*
X19775Y18400D01*
X19782Y18398D01*
X19788Y18396D01*
X19794Y18394D01*
X19799Y18393D01*
X19803Y18392D01*
X19807Y18391D01*
X19810Y18390D01*
X19813Y18389D01*
X19814Y18389D01*
X19816Y18388D01*
X19817D01*
X19818Y18388D01*
X19825Y18385D01*
X19832Y18381D01*
X19837Y18378D01*
X19841Y18375D01*
X19844Y18373D01*
X19847Y18371D01*
X19848Y18369D01*
X19848Y18369D01*
X19851Y18365D01*
X19854Y18361D01*
X19855Y18356D01*
X19857Y18352D01*
X19857Y18349D01*
X19858Y18346D01*
Y18344D01*
Y18343D01*
Y18339D01*
X19857Y18335D01*
X19854Y18327D01*
X19851Y18319D01*
X19847Y18314D01*
X19843Y18309D01*
X19840Y18305D01*
X19837Y18303D01*
X19837Y18302D01*
X19836D01*
X19828Y18296D01*
X19818Y18292D01*
X19807Y18289D01*
X19797Y18286D01*
X19787Y18285D01*
X19783Y18285D01*
X19780D01*
X19777Y18284D01*
X19773D01*
X19759Y18285D01*
X19746Y18287D01*
X19736Y18291D01*
X19727Y18294D01*
X19720Y18298D01*
X19717Y18300D01*
X19715Y18301D01*
X19713Y18302D01*
X19711Y18303D01*
X19711Y18304D01*
X19710D01*
X19706Y18308D01*
X19702Y18313D01*
X19696Y18322D01*
X19690Y18332D01*
X19686Y18343D01*
X19683Y18352D01*
X19682Y18356D01*
X19681Y18360D01*
X19681Y18363D01*
X19680Y18365D01*
X19680Y18366D01*
Y18366D01*
X19595Y18358D01*
X19597Y18345D01*
X19600Y18333D01*
X19603Y18321D01*
X19607Y18311D01*
X19611Y18301D01*
X19616Y18292D01*
X19620Y18284D01*
X19625Y18276D01*
X19629Y18270D01*
X19633Y18265D01*
X19637Y18260D01*
X19640Y18256D01*
X19643Y18253D01*
X19645Y18251D01*
X19647Y18249D01*
X19647Y18249D01*
X19656Y18242D01*
X19665Y18236D01*
X19675Y18231D01*
X19685Y18227D01*
X19695Y18223D01*
X19706Y18220D01*
X19716Y18218D01*
X19726Y18216D01*
X19735Y18215D01*
X19744Y18214D01*
X19752Y18213D01*
X19759Y18212D01*
X19764D01*
X19769Y18212D01*
X19772D01*
X19792Y18212D01*
X19801Y18213D01*
X19810Y18214D01*
X19819Y18215D01*
X19826Y18217D01*
X19833Y18218D01*
X19840Y18219D01*
X19846Y18220D01*
X19851Y18222D01*
X19855Y18223D01*
X19859Y18224D01*
X19862Y18225D01*
X19864Y18226D01*
X19865Y18227D01*
X19866D01*
X19879Y18233D01*
X19890Y18241D01*
X19900Y18249D01*
X19909Y18257D01*
X19915Y18264D01*
X19920Y18269D01*
X19922Y18271D01*
X19923Y18273D01*
X19924Y18274D01*
Y18274D01*
X19931Y18287D01*
X19935Y18299D01*
X19939Y18311D01*
X19942Y18321D01*
X19943Y18326D01*
X19943Y18330D01*
X19944Y18334D01*
Y18337D01*
X19944Y18340D01*
Y18344D01*
X19944Y18358D01*
X19942Y18371D01*
X19939Y18383D01*
X19936Y18393D01*
X19934Y18397D01*
X19932Y18401D01*
X19931Y18404D01*
X19930Y18407D01*
X19929Y18409D01*
X19928Y18411D01*
X19927Y18411D01*
Y18412D01*
X19920Y18421D01*
X19912Y18430D01*
X19904Y18437D01*
X19897Y18444D01*
X19890Y18449D01*
X19884Y18452D01*
X19882Y18454D01*
X19881Y18455D01*
X19880Y18455D01*
X19880D01*
X19874Y18458D01*
X19867Y18461D01*
X19852Y18466D01*
X19836Y18472D01*
X19822Y18476D01*
X19814Y18478D01*
X19808Y18480D01*
X19802Y18482D01*
X19796Y18483D01*
X19792Y18484D01*
X19789Y18485D01*
X19786Y18486D01*
X19786D01*
X19775Y18489D01*
X19765Y18491D01*
X19755Y18494D01*
X19747Y18497D01*
X19740Y18499D01*
X19734Y18502D01*
X19728Y18504D01*
X19723Y18506D01*
X19719Y18508D01*
X19715Y18510D01*
X19713Y18511D01*
X19710Y18512D01*
X19709Y18513D01*
X19708Y18514D01*
X19707Y18514D01*
X19702Y18519D01*
X19699Y18523D01*
X19697Y18527D01*
X19695Y18532D01*
X19694Y18535D01*
X19694Y18538D01*
Y18540D01*
Y18541D01*
X19694Y18547D01*
X19696Y18552D01*
X19698Y18556D01*
X19701Y18560D01*
X19703Y18563D01*
X19705Y18565D01*
X19707Y18566D01*
X19707Y18567D01*
X19716Y18572D01*
X19726Y18576D01*
X19735Y18579D01*
X19745Y18581D01*
X19753Y18582D01*
X19757Y18582D01*
X19760Y18583D01*
X19767D01*
X19780Y18582D01*
X19790Y18580D01*
X19800Y18578D01*
X19807Y18575D01*
X19813Y18573D01*
X19818Y18570D01*
X19820Y18568D01*
X19821Y18568D01*
X19828Y18562D01*
X19832Y18555D01*
X19837Y18547D01*
X19840Y18539D01*
X19842Y18532D01*
X19844Y18526D01*
X19845Y18524D01*
Y18522D01*
X19845Y18521D01*
Y18521D01*
X19932Y18524D01*
X19931Y18535D01*
X19930Y18545D01*
X19927Y18555D01*
X19924Y18564D01*
X19921Y18572D01*
X19917Y18580D01*
X19914Y18587D01*
X19910Y18594D01*
X19906Y18600D01*
X19902Y18605D01*
X19898Y18609D01*
X19895Y18613D01*
X19893Y18615D01*
X19891Y18617D01*
X19889Y18618D01*
X19889Y18619D01*
X19881Y18625D01*
X19872Y18631D01*
X19863Y18635D01*
X19853Y18640D01*
X19843Y18643D01*
X19832Y18646D01*
X19823Y18648D01*
X19813Y18650D01*
X19804Y18652D01*
X19795Y18653D01*
X19787Y18654D01*
X19781Y18654D01*
X19776Y18655D01*
X19944D01*
D01*
D02*
G37*
G36*
X20770D02*
X20566D01*
X20766D01*
X20750Y18654D01*
X20734Y18652D01*
X20720Y18649D01*
X20706Y18645D01*
X20693Y18641D01*
X20681Y18636D01*
X20670Y18630D01*
X20660Y18625D01*
X20651Y18619D01*
X20643Y18614D01*
X20637Y18609D01*
X20631Y18605D01*
X20627Y18601D01*
X20624Y18598D01*
X20622Y18596D01*
X20621Y18595D01*
X20611Y18584D01*
X20603Y18571D01*
X20596Y18558D01*
X20589Y18544D01*
X20584Y18531D01*
X20579Y18517D01*
X20576Y18503D01*
X20573Y18490D01*
X20571Y18478D01*
X20569Y18466D01*
X20568Y18456D01*
X20567Y18447D01*
X20567Y18440D01*
X20566Y18437D01*
Y18429D01*
X20567Y18411D01*
X20569Y18394D01*
X20571Y18377D01*
X20575Y18362D01*
X20579Y18348D01*
X20583Y18335D01*
X20588Y18322D01*
X20593Y18312D01*
X20598Y18302D01*
X20603Y18294D01*
X20608Y18287D01*
X20612Y18281D01*
X20616Y18276D01*
X20618Y18273D01*
X20620Y18270D01*
X20621Y18270D01*
X20631Y18260D01*
X20642Y18251D01*
X20654Y18243D01*
X20666Y18236D01*
X20677Y18231D01*
X20689Y18226D01*
X20700Y18222D01*
X20711Y18219D01*
X20722Y18217D01*
X20731Y18215D01*
X20739Y18214D01*
X20746Y18213D01*
X20752Y18213D01*
X20757Y18212D01*
X20566D01*
X20761D01*
X20773Y18213D01*
X20785Y18214D01*
X20797Y18215D01*
X20808Y18218D01*
X20818Y18220D01*
X20827Y18223D01*
X20836Y18226D01*
X20844Y18229D01*
X20851Y18232D01*
X20857Y18235D01*
X20862Y18238D01*
X20867Y18240D01*
X20870Y18243D01*
X20872Y18244D01*
X20874Y18245D01*
X20874Y18246D01*
X20882Y18253D01*
X20890Y18260D01*
X20897Y18268D01*
X20904Y18276D01*
X20910Y18285D01*
X20915Y18294D01*
X20920Y18303D01*
X20923Y18311D01*
X20927Y18319D01*
X20930Y18326D01*
X20933Y18333D01*
X20935Y18339D01*
X20937Y18344D01*
X20938Y18348D01*
X20939Y18350D01*
Y18351D01*
X20855Y18377D01*
X20853Y18368D01*
X20851Y18360D01*
X20848Y18353D01*
X20845Y18346D01*
X20842Y18340D01*
X20839Y18334D01*
X20836Y18329D01*
X20833Y18324D01*
X20830Y18320D01*
X20827Y18317D01*
X20825Y18314D01*
X20823Y18312D01*
X20822Y18310D01*
X20820Y18309D01*
X20820Y18308D01*
X20819Y18308D01*
X20814Y18304D01*
X20810Y18301D01*
X20799Y18295D01*
X20789Y18291D01*
X20780Y18289D01*
X20773Y18287D01*
X20769Y18286D01*
X20766D01*
X20764Y18286D01*
X20760D01*
X20752Y18286D01*
X20743Y18287D01*
X20736Y18289D01*
X20728Y18291D01*
X20722Y18294D01*
X20716Y18297D01*
X20710Y18300D01*
X20704Y18303D01*
X20700Y18306D01*
X20696Y18309D01*
X20692Y18312D01*
X20689Y18315D01*
X20687Y18317D01*
X20685Y18318D01*
X20684Y18319D01*
X20684Y18320D01*
X20679Y18327D01*
X20674Y18335D01*
X20671Y18344D01*
X20668Y18353D01*
X20665Y18362D01*
X20662Y18372D01*
X20659Y18391D01*
X20658Y18400D01*
X20657Y18408D01*
X20656Y18416D01*
X20656Y18422D01*
X20655Y18428D01*
Y18432D01*
Y18435D01*
Y18436D01*
X20656Y18450D01*
X20657Y18463D01*
X20658Y18474D01*
X20660Y18485D01*
X20662Y18495D01*
X20665Y18504D01*
X20667Y18513D01*
X20670Y18519D01*
X20673Y18526D01*
X20675Y18531D01*
X20677Y18536D01*
X20680Y18540D01*
X20682Y18543D01*
X20683Y18545D01*
X20684Y18546D01*
X20684Y18546D01*
X20690Y18552D01*
X20696Y18558D01*
X20703Y18562D01*
X20709Y18566D01*
X20716Y18569D01*
X20722Y18572D01*
X20728Y18575D01*
X20734Y18576D01*
X20740Y18578D01*
X20745Y18579D01*
X20750Y18580D01*
X20754Y18580D01*
X20757Y18581D01*
X20762D01*
X20774Y18580D01*
X20785Y18578D01*
X20795Y18575D01*
X20804Y18571D01*
X20811Y18567D01*
X20816Y18564D01*
X20818Y18563D01*
X20819Y18563D01*
X20820Y18562D01*
X20820D01*
X20828Y18554D01*
X20835Y18545D01*
X20841Y18536D01*
X20845Y18528D01*
X20848Y18520D01*
X20850Y18517D01*
X20851Y18514D01*
X20851Y18512D01*
X20852Y18511D01*
X20852Y18510D01*
Y18509D01*
X20938Y18529D01*
X20935Y18539D01*
X20932Y18547D01*
X20928Y18556D01*
X20924Y18563D01*
X20921Y18570D01*
X20918Y18577D01*
X20914Y18582D01*
X20910Y18588D01*
X20907Y18593D01*
X20904Y18597D01*
X20901Y18600D01*
X20899Y18603D01*
X20897Y18605D01*
X20895Y18607D01*
X20894Y18608D01*
X20894Y18608D01*
X20884Y18616D01*
X20874Y18623D01*
X20864Y18630D01*
X20853Y18635D01*
X20842Y18639D01*
X20832Y18643D01*
X20822Y18646D01*
X20812Y18649D01*
X20802Y18651D01*
X20794Y18652D01*
X20786Y18653D01*
X20779Y18654D01*
X20773D01*
X20770Y18655D01*
D02*
G37*
G36*
X21765Y18648D02*
X21379D01*
Y18219D01*
X21466D01*
Y18349D01*
X21535Y18420D01*
X21653Y18219D01*
X21765D01*
X21595Y18481D01*
X21757Y18648D01*
X21765D01*
D01*
D02*
G37*
G36*
X21317Y18644D02*
X21016D01*
Y18219D01*
X21317D01*
Y18292D01*
X21102D01*
Y18644D01*
X21317D01*
D01*
D02*
G37*
G36*
X20537Y18648D02*
X19976D01*
D01*
X20077Y18219D01*
X20172D01*
X20256Y18539D01*
X20341Y18219D01*
X20433D01*
X20537Y18648D01*
D02*
G37*
%LPD*%
G36*
X21466Y18458D02*
Y18648D01*
X21640D01*
X21466Y18458D01*
D02*
G37*
G36*
X20129Y18353D02*
X20064Y18648D01*
X20206D01*
X20129Y18353D01*
D02*
G37*
G36*
X20384Y18348D02*
X20309Y18648D01*
X20450D01*
X20384Y18348D01*
D02*
G37*
%LPC*%
G36*
X20148Y19686D02*
X19879D01*
X20054D01*
Y19349D01*
X19848Y19686D01*
X19749D01*
Y19182D01*
X19981D01*
X19843D01*
Y19511D01*
X20046Y19182D01*
X20148D01*
Y19686D01*
D02*
G37*
G36*
X21149Y19694D02*
X20941D01*
X20920Y19693D01*
X20900Y19691D01*
X20892Y19690D01*
X20884Y19688D01*
X20876Y19686D01*
X20869Y19685D01*
X20863Y19683D01*
X20857Y19682D01*
X20853Y19680D01*
X20849Y19679D01*
X20845Y19678D01*
X20843Y19676D01*
X20842Y19676D01*
X20841D01*
X20826Y19669D01*
X20814Y19661D01*
X20803Y19652D01*
X20794Y19644D01*
X20787Y19636D01*
X20782Y19630D01*
X20780Y19628D01*
X20779Y19626D01*
X20778Y19625D01*
Y19625D01*
X20771Y19612D01*
X20766Y19600D01*
X20762Y19587D01*
X20759Y19576D01*
X20758Y19567D01*
X20757Y19563D01*
Y19559D01*
X20756Y19556D01*
Y19555D01*
Y19553D01*
Y19553D01*
X20757Y19542D01*
X20758Y19531D01*
X20761Y19521D01*
X20763Y19511D01*
X20767Y19503D01*
X20771Y19495D01*
X20775Y19486D01*
X20780Y19479D01*
X20784Y19474D01*
X20788Y19468D01*
X20792Y19463D01*
X20795Y19459D01*
X20798Y19456D01*
X20801Y19453D01*
X20802Y19452D01*
X20802Y19451D01*
X20809Y19446D01*
X20817Y19441D01*
X20825Y19436D01*
X20835Y19431D01*
X20854Y19422D01*
X20872Y19415D01*
X20882Y19412D01*
X20890Y19409D01*
X20898Y19407D01*
X20905Y19405D01*
X20910Y19404D01*
X20914Y19402D01*
X20917Y19401D01*
X20918D01*
X20930Y19398D01*
X20939Y19396D01*
X20949Y19394D01*
X20958Y19391D01*
X20965Y19389D01*
X20972Y19387D01*
X20977Y19386D01*
X20983Y19384D01*
X20987Y19383D01*
X20990Y19383D01*
X20994Y19381D01*
X20995Y19381D01*
X20997Y19380D01*
X20998D01*
X21000Y19380D01*
X21008Y19376D01*
X21016Y19372D01*
X21022Y19369D01*
X21028Y19365D01*
X21031Y19362D01*
X21034Y19360D01*
X21035Y19358D01*
X21036Y19358D01*
X21039Y19353D01*
X21042Y19348D01*
X21044Y19342D01*
X21046Y19338D01*
X21046Y19334D01*
X21047Y19330D01*
Y19328D01*
Y19327D01*
Y19322D01*
X21046Y19317D01*
X21043Y19308D01*
X21039Y19299D01*
X21035Y19292D01*
X21030Y19286D01*
X21026Y19282D01*
X21023Y19279D01*
X21022Y19278D01*
X21022D01*
X21011Y19271D01*
X21000Y19267D01*
X20987Y19263D01*
X20975Y19260D01*
X20964Y19259D01*
X20959Y19258D01*
X20955D01*
X20952Y19258D01*
X20947D01*
X20931Y19259D01*
X20916Y19261D01*
X20903Y19265D01*
X20893Y19270D01*
X20884Y19274D01*
X20881Y19276D01*
X20878Y19278D01*
X20876Y19279D01*
X20874Y19280D01*
X20874Y19281D01*
X20873D01*
X20868Y19286D01*
X20864Y19291D01*
X20856Y19303D01*
X20850Y19314D01*
X20844Y19327D01*
X20841Y19338D01*
X20840Y19342D01*
X20839Y19346D01*
X20838Y19350D01*
X20837Y19352D01*
X20837Y19354D01*
Y19355D01*
X20738Y19345D01*
X20740Y19330D01*
X20743Y19315D01*
X20747Y19302D01*
X20752Y19289D01*
X20756Y19278D01*
X20762Y19267D01*
X20767Y19257D01*
X20772Y19249D01*
X20777Y19241D01*
X20782Y19235D01*
X20787Y19229D01*
X20791Y19224D01*
X20794Y19221D01*
X20797Y19218D01*
X20798Y19216D01*
X20799Y19216D01*
X20809Y19208D01*
X20820Y19201D01*
X20832Y19195D01*
X20844Y19191D01*
X20856Y19186D01*
X20868Y19183D01*
X20880Y19180D01*
X20892Y19177D01*
X20903Y19176D01*
X20913Y19175D01*
X20922Y19173D01*
X20930Y19173D01*
X20937D01*
X20942Y19172D01*
X20738D01*
X20946D01*
X20970Y19173D01*
X20980Y19174D01*
X20991Y19175D01*
X21001Y19176D01*
X21009Y19178D01*
X21018Y19180D01*
X21026Y19182D01*
X21033Y19183D01*
X21039Y19184D01*
X21044Y19186D01*
X21048Y19187D01*
X21051Y19188D01*
X21054Y19190D01*
X21055Y19190D01*
X21056D01*
X21072Y19198D01*
X21085Y19207D01*
X21097Y19216D01*
X21107Y19225D01*
X21114Y19233D01*
X21120Y19240D01*
X21122Y19243D01*
X21123Y19244D01*
X21124Y19246D01*
Y19246D01*
X21132Y19261D01*
X21138Y19275D01*
X21143Y19289D01*
X21146Y19301D01*
X21147Y19307D01*
X21148Y19312D01*
X21148Y19317D01*
Y19320D01*
X21149Y19324D01*
Y19182D01*
Y19694D01*
D02*
G37*
G36*
X21599Y19686D02*
X21199D01*
Y19182D01*
Y19601D01*
X21349D01*
Y19182D01*
X21599D01*
X21451D01*
Y19601D01*
X21599D01*
Y19686D01*
D02*
G37*
G36*
X20484D02*
X20256D01*
Y19182D01*
X20709D01*
X20647Y19279D01*
X20641Y19290D01*
X20635Y19300D01*
X20629Y19309D01*
X20623Y19317D01*
X20618Y19324D01*
X20613Y19331D01*
X20609Y19337D01*
X20605Y19342D01*
X20601Y19347D01*
X20598Y19351D01*
X20596Y19354D01*
X20594Y19356D01*
X20592Y19359D01*
X20591Y19360D01*
X20590Y19361D01*
X20581Y19370D01*
X20572Y19377D01*
X20563Y19385D01*
X20554Y19391D01*
X20547Y19396D01*
X20541Y19400D01*
X20538Y19402D01*
X20537Y19403D01*
X20535Y19404D01*
X20535D01*
X20547Y19406D01*
X20558Y19408D01*
X20569Y19412D01*
X20579Y19415D01*
X20587Y19419D01*
X20596Y19423D01*
X20603Y19427D01*
X20610Y19430D01*
X20615Y19435D01*
X20621Y19438D01*
X20625Y19442D01*
X20628Y19444D01*
X20631Y19447D01*
X20633Y19449D01*
X20634Y19450D01*
X20635Y19450D01*
X20640Y19457D01*
X20646Y19465D01*
X20650Y19473D01*
X20654Y19481D01*
X20657Y19489D01*
X20660Y19496D01*
X20664Y19511D01*
X20665Y19518D01*
X20667Y19524D01*
X20667Y19530D01*
X20668Y19535D01*
X20668Y19539D01*
Y19542D01*
Y19544D01*
Y19544D01*
X20667Y19560D01*
X20665Y19576D01*
X20661Y19589D01*
X20657Y19601D01*
X20655Y19606D01*
X20653Y19610D01*
X20651Y19614D01*
X20650Y19618D01*
X20649Y19620D01*
X20647Y19622D01*
X20646Y19623D01*
Y19623D01*
X20637Y19636D01*
X20628Y19646D01*
X20618Y19654D01*
X20608Y19661D01*
X20600Y19666D01*
X20593Y19669D01*
X20591Y19671D01*
X20589Y19671D01*
X20588Y19672D01*
X20587D01*
X20580Y19674D01*
X20572Y19676D01*
X20563Y19678D01*
X20554Y19680D01*
X20534Y19682D01*
X20515Y19684D01*
X20506Y19685D01*
X20498Y19685D01*
X20490D01*
X20484Y19686D01*
D02*
G37*
%LPD*%
G36*
X21149Y19328D02*
X21148Y19345D01*
X21146Y19360D01*
X21142Y19374D01*
X21139Y19386D01*
X21137Y19391D01*
X21135Y19395D01*
X21133Y19399D01*
X21132Y19402D01*
X21130Y19404D01*
X21130Y19407D01*
X21128Y19407D01*
Y19408D01*
X21120Y19419D01*
X21111Y19429D01*
X21102Y19438D01*
X21093Y19446D01*
X21085Y19451D01*
X21078Y19456D01*
X21076Y19457D01*
X21074Y19458D01*
X21073Y19459D01*
X21072D01*
X21065Y19463D01*
X21057Y19466D01*
X21040Y19472D01*
X21022Y19479D01*
X21004Y19484D01*
X20995Y19486D01*
X20988Y19489D01*
X20981Y19490D01*
X20974Y19492D01*
X20969Y19493D01*
X20966Y19495D01*
X20963Y19495D01*
X20962D01*
X20949Y19499D01*
X20937Y19502D01*
X20926Y19505D01*
X20916Y19508D01*
X20908Y19511D01*
X20900Y19514D01*
X20893Y19516D01*
X20888Y19518D01*
X20883Y19521D01*
X20879Y19523D01*
X20876Y19525D01*
X20873Y19526D01*
X20871Y19527D01*
X20870Y19528D01*
X20869Y19529D01*
X20864Y19534D01*
X20860Y19539D01*
X20857Y19544D01*
X20856Y19549D01*
X20854Y19553D01*
X20854Y19557D01*
Y19559D01*
Y19560D01*
X20854Y19567D01*
X20856Y19573D01*
X20859Y19578D01*
X20862Y19583D01*
X20864Y19586D01*
X20867Y19588D01*
X20869Y19590D01*
X20870Y19591D01*
X20880Y19597D01*
X20891Y19602D01*
X20903Y19605D01*
X20914Y19607D01*
X20924Y19608D01*
X20928Y19609D01*
X20932Y19609D01*
X20939D01*
X20955Y19609D01*
X20967Y19607D01*
X20979Y19604D01*
X20987Y19601D01*
X20994Y19598D01*
X21000Y19595D01*
X21002Y19593D01*
X21004Y19592D01*
X21011Y19585D01*
X21017Y19576D01*
X21022Y19567D01*
X21026Y19558D01*
X21029Y19549D01*
X21031Y19543D01*
X21032Y19540D01*
Y19538D01*
X21032Y19537D01*
Y19537D01*
X21134Y19540D01*
X21133Y19553D01*
X21131Y19565D01*
X21128Y19576D01*
X21125Y19587D01*
X21121Y19597D01*
X21117Y19607D01*
X21113Y19615D01*
X21108Y19622D01*
X21103Y19629D01*
X21099Y19635D01*
X21095Y19640D01*
X21091Y19644D01*
X21088Y19648D01*
X21086Y19650D01*
X21084Y19651D01*
X21083Y19652D01*
X21074Y19660D01*
X21064Y19666D01*
X21053Y19671D01*
X21041Y19676D01*
X21029Y19681D01*
X21017Y19683D01*
X21005Y19686D01*
X20994Y19689D01*
X20983Y19690D01*
X20973Y19692D01*
X20964Y19693D01*
X20956Y19693D01*
X20950Y19694D01*
X21149D01*
Y19328D01*
D02*
G37*
G36*
X20482Y19600D02*
X20498D01*
X20501Y19600D01*
X20509D01*
X20511Y19599D01*
X20512D01*
X20520Y19597D01*
X20528Y19594D01*
X20534Y19590D01*
X20540Y19587D01*
X20544Y19584D01*
X20547Y19581D01*
X20549Y19579D01*
X20549Y19579D01*
X20554Y19573D01*
X20558Y19566D01*
X20560Y19559D01*
X20562Y19552D01*
X20563Y19546D01*
X20563Y19542D01*
Y19539D01*
Y19538D01*
Y19538D01*
X20563Y19530D01*
X20562Y19522D01*
X20560Y19516D01*
X20558Y19510D01*
X20556Y19506D01*
X20555Y19503D01*
X20554Y19500D01*
X20553Y19500D01*
X20549Y19495D01*
X20544Y19490D01*
X20540Y19486D01*
X20535Y19483D01*
X20531Y19481D01*
X20527Y19479D01*
X20525Y19479D01*
X20524Y19478D01*
X20520Y19477D01*
X20515Y19476D01*
X20509Y19475D01*
X20502Y19475D01*
X20488Y19474D01*
X20472Y19473D01*
X20457D01*
X20450Y19472D01*
X20358D01*
Y19601D01*
X20475D01*
X20482Y19600D01*
D02*
G37*
G36*
X20401Y19391D02*
X20410Y19390D01*
X20417Y19389D01*
X20422Y19388D01*
X20426Y19387D01*
X20429Y19386D01*
X20429D01*
X20435Y19384D01*
X20441Y19380D01*
X20446Y19377D01*
X20451Y19373D01*
X20455Y19370D01*
X20458Y19367D01*
X20460Y19366D01*
X20460Y19365D01*
X20463Y19362D01*
X20467Y19358D01*
X20471Y19353D01*
X20475Y19347D01*
X20484Y19335D01*
X20492Y19323D01*
X20501Y19310D01*
X20505Y19305D01*
X20507Y19300D01*
X20510Y19297D01*
X20512Y19293D01*
X20513Y19292D01*
X20514Y19291D01*
X20587Y19182D01*
X20358D01*
Y19392D01*
X20391D01*
X20401Y19391D01*
D02*
G37*
%LPC*%
G36*
X14274Y2160D02*
Y1930D01*
X14274Y1949D01*
X14273Y1959D01*
X14272Y1967D01*
X14272Y1975D01*
X14271Y1983D01*
X14270Y1990D01*
X14269Y1995D01*
X14268Y2001D01*
X14267Y2006D01*
X14266Y2010D01*
X14265Y2013D01*
X14265Y2016D01*
X14264Y2018D01*
X14264Y2019D01*
Y2019D01*
X14258Y2035D01*
X14251Y2050D01*
X14244Y2062D01*
X14238Y2072D01*
X14232Y2080D01*
X14227Y2086D01*
X14226Y2088D01*
X14225Y2090D01*
X14223Y2090D01*
Y2091D01*
X14210Y2103D01*
X14195Y2114D01*
X14180Y2124D01*
X14166Y2131D01*
X14159Y2134D01*
X14153Y2137D01*
X14148Y2139D01*
X14144Y2141D01*
X14139Y2143D01*
X14137Y2144D01*
X14135Y2145D01*
X14134D01*
X14117Y2150D01*
X14099Y2154D01*
X14081Y2156D01*
X14064Y2159D01*
X14056Y2159D01*
X14049Y2160D01*
X14043D01*
X14037Y2160D01*
X14011D01*
X14014D01*
X14001Y2160D01*
X13990Y2159D01*
X13979Y2158D01*
X13968Y2156D01*
X13958Y2155D01*
X13949Y2153D01*
X13941Y2152D01*
X13934Y2150D01*
X13927Y2149D01*
X13921Y2148D01*
X13917Y2146D01*
X13913Y2145D01*
X13910Y2144D01*
X13909Y2143D01*
X13908D01*
X13891Y2136D01*
X13875Y2129D01*
X13861Y2121D01*
X13849Y2114D01*
X13844Y2110D01*
X13839Y2107D01*
X13836Y2103D01*
X13832Y2101D01*
X13830Y2099D01*
X13828Y2097D01*
X13827Y2096D01*
X13826Y2096D01*
X13815Y2083D01*
X13805Y2071D01*
X13797Y2058D01*
X13790Y2046D01*
X13786Y2036D01*
X13784Y2031D01*
X13782Y2027D01*
X13781Y2024D01*
X13780Y2022D01*
X13780Y2020D01*
Y2020D01*
X13778Y2013D01*
X13776Y2006D01*
X13774Y1991D01*
X13772Y1975D01*
X13771Y1959D01*
X13770Y1952D01*
Y1945D01*
X13770Y1939D01*
Y1940D01*
Y1738D01*
X14274D01*
Y2160D01*
D02*
G37*
G36*
Y1630D02*
X13770D01*
Y1536D01*
X14107D01*
X13770Y1330D01*
Y1231D01*
X14274D01*
Y1326D01*
X13945D01*
X14274Y1528D01*
Y1630D01*
D02*
G37*
G36*
X14283Y1136D02*
Y920D01*
X14282Y943D01*
X14280Y966D01*
X14276Y986D01*
X14274Y996D01*
X14272Y1005D01*
X14269Y1013D01*
X14268Y1021D01*
X14265Y1027D01*
X14264Y1032D01*
X14262Y1037D01*
X14261Y1040D01*
X14260Y1042D01*
Y1043D01*
X14255Y1054D01*
X14251Y1064D01*
X14247Y1074D01*
X14242Y1083D01*
X14237Y1092D01*
X14233Y1099D01*
X14229Y1106D01*
X14224Y1112D01*
X14220Y1118D01*
X14217Y1123D01*
X14214Y1127D01*
X14211Y1130D01*
X14209Y1133D01*
X14207Y1134D01*
X14207Y1135D01*
X14206Y1136D01*
X14004D01*
Y917D01*
X14089D01*
Y1033D01*
X14154D01*
X14160Y1024D01*
X14166Y1015D01*
X14172Y1005D01*
X14176Y997D01*
X14179Y989D01*
X14182Y983D01*
X14183Y980D01*
X14184Y979D01*
X14184Y978D01*
Y977D01*
X14188Y966D01*
X14191Y954D01*
X14194Y943D01*
X14195Y934D01*
X14196Y926D01*
X14197Y919D01*
Y914D01*
X14196Y902D01*
X14195Y891D01*
X14193Y880D01*
X14190Y870D01*
X14186Y861D01*
X14183Y852D01*
X14179Y845D01*
X14174Y837D01*
X14170Y831D01*
X14166Y825D01*
X14162Y820D01*
X14159Y817D01*
X14156Y813D01*
X14153Y811D01*
X14152Y810D01*
X14152Y809D01*
X14143Y802D01*
X14133Y796D01*
X14123Y791D01*
X14111Y786D01*
X14100Y782D01*
X14089Y779D01*
X14068Y775D01*
X14057Y773D01*
X14048Y772D01*
X14039Y771D01*
X14032Y770D01*
X14026Y769D01*
X14021D01*
X14018D01*
X14017D01*
X14002Y770D01*
X13988Y771D01*
X13974Y773D01*
X13962Y776D01*
X13951Y779D01*
X13941Y782D01*
X13931Y785D01*
X13923Y789D01*
X13916Y793D01*
X13909Y796D01*
X13903Y799D01*
X13899Y803D01*
X13896Y805D01*
X13893Y807D01*
X13892Y808D01*
X13891Y808D01*
X13884Y816D01*
X13877Y824D01*
X13871Y833D01*
X13867Y842D01*
X13863Y850D01*
X13859Y860D01*
X13856Y868D01*
X13854Y877D01*
X13852Y884D01*
X13851Y891D01*
X13850Y898D01*
X13849Y903D01*
X13849Y908D01*
Y915D01*
X13850Y930D01*
X13852Y945D01*
X13856Y957D01*
X13859Y968D01*
X13863Y976D01*
X13865Y980D01*
X13867Y983D01*
X13868Y985D01*
X13869Y987D01*
X13870Y987D01*
Y988D01*
X13879Y998D01*
X13888Y1007D01*
X13898Y1014D01*
X13907Y1019D01*
X13916Y1024D01*
X13923Y1026D01*
X13925Y1028D01*
X13927Y1028D01*
X13928Y1029D01*
X13928D01*
X13910Y1130D01*
X13897Y1126D01*
X13885Y1123D01*
X13874Y1118D01*
X13864Y1113D01*
X13854Y1107D01*
X13845Y1102D01*
X13837Y1096D01*
X13829Y1090D01*
X13823Y1084D01*
X13817Y1079D01*
X13812Y1074D01*
X13808Y1070D01*
X13805Y1067D01*
X13803Y1064D01*
X13802Y1062D01*
X13801Y1061D01*
X13794Y1051D01*
X13788Y1040D01*
X13783Y1028D01*
X13779Y1016D01*
X13775Y1004D01*
X13772Y991D01*
X13769Y980D01*
X13766Y968D01*
X13765Y957D01*
X13764Y947D01*
X13763Y938D01*
X13762Y930D01*
X13762Y923D01*
Y901D01*
X13763Y889D01*
X13764Y877D01*
X13766Y865D01*
X13768Y854D01*
X13770Y845D01*
X13772Y835D01*
X13775Y827D01*
X13777Y819D01*
X13779Y813D01*
X13781Y807D01*
X13783Y803D01*
X13785Y799D01*
X13786Y796D01*
X13787Y794D01*
X13787Y794D01*
X13794Y782D01*
X13801Y772D01*
X13808Y761D01*
X13816Y752D01*
X13823Y743D01*
X13832Y736D01*
X13839Y728D01*
X13846Y722D01*
X13854Y716D01*
X13860Y711D01*
X13866Y707D01*
X13871Y703D01*
X13875Y701D01*
X13878Y699D01*
X13881Y698D01*
X13881Y697D01*
X13893Y691D01*
X13905Y687D01*
X13917Y682D01*
X13929Y678D01*
X13952Y673D01*
X13963Y670D01*
X13974Y668D01*
X13984Y667D01*
X13993Y666D01*
X14001Y666D01*
X14008Y665D01*
X14014Y664D01*
X13762D01*
X14283D01*
Y1136D01*
D02*
G37*
%LPD*%
G36*
X14043Y2055D02*
X14053Y2054D01*
X14061Y2054D01*
X14070Y2053D01*
X14078Y2052D01*
X14085Y2051D01*
X14090Y2050D01*
X14096Y2049D01*
X14101Y2048D01*
X14105Y2047D01*
X14109Y2047D01*
X14111Y2046D01*
X14113Y2046D01*
X14114Y2045D01*
X14115D01*
X14127Y2041D01*
X14137Y2036D01*
X14145Y2032D01*
X14152Y2027D01*
X14158Y2024D01*
X14161Y2021D01*
X14163Y2019D01*
X14164Y2018D01*
X14169Y2012D01*
X14173Y2005D01*
X14177Y1998D01*
X14180Y1992D01*
X14181Y1986D01*
X14183Y1981D01*
X14184Y1978D01*
X14184Y1977D01*
X14186Y1969D01*
X14187Y1960D01*
X14188Y1950D01*
X14188Y1940D01*
X14189Y1931D01*
Y1840D01*
X13855D01*
Y1907D01*
X13856Y1917D01*
Y1925D01*
X13856Y1932D01*
X13857Y1939D01*
X13857Y1945D01*
Y1951D01*
X13858Y1955D01*
X13858Y1959D01*
X13859Y1962D01*
X13860Y1965D01*
Y1967D01*
X13860Y1968D01*
Y1969D01*
X13863Y1980D01*
X13867Y1988D01*
X13870Y1997D01*
X13874Y2003D01*
X13878Y2009D01*
X13881Y2012D01*
X13884Y2015D01*
X13884Y2016D01*
X13891Y2022D01*
X13899Y2028D01*
X13907Y2033D01*
X13915Y2037D01*
X13922Y2041D01*
X13928Y2043D01*
X13930Y2044D01*
X13932Y2044D01*
X13932Y2045D01*
X13933D01*
X13939Y2047D01*
X13946Y2048D01*
X13960Y2051D01*
X13975Y2053D01*
X13989Y2054D01*
X13996Y2055D01*
X14002D01*
X14008D01*
X14013Y2055D01*
X14016D01*
X14020D01*
X14022D01*
X14022D01*
X14033D01*
X14043Y2055D01*
D02*
G37*
G36*
X14283Y664D02*
X14021D01*
X14035Y665D01*
X14048Y666D01*
X14073Y669D01*
X14085Y671D01*
X14096Y674D01*
X14106Y676D01*
X14116Y679D01*
X14124Y682D01*
X14132Y684D01*
X14139Y687D01*
X14145Y689D01*
X14149Y691D01*
X14153Y692D01*
X14155Y693D01*
X14156Y694D01*
X14167Y699D01*
X14177Y706D01*
X14187Y713D01*
X14197Y720D01*
X14205Y727D01*
X14213Y735D01*
X14220Y742D01*
X14226Y749D01*
X14232Y756D01*
X14237Y762D01*
X14241Y768D01*
X14244Y772D01*
X14247Y776D01*
X14249Y780D01*
X14250Y782D01*
X14251Y782D01*
X14257Y793D01*
X14261Y805D01*
X14266Y817D01*
X14269Y829D01*
X14275Y852D01*
X14278Y863D01*
X14279Y873D01*
X14281Y883D01*
X14282Y892D01*
X14282Y900D01*
X14283Y907D01*
X14283Y913D01*
Y664D01*
D02*
G37*
%LPC*%
G36*
X8466Y2502D02*
X8383Y2450D01*
X8374Y2444D01*
X8366Y2439D01*
X8359Y2434D01*
X8351Y2429D01*
X8345Y2425D01*
X8339Y2420D01*
X8334Y2417D01*
X8330Y2414D01*
X8326Y2411D01*
X8323Y2408D01*
X8320Y2406D01*
X8318Y2404D01*
X8316Y2403D01*
X8315Y2402D01*
X8314Y2401D01*
X8307Y2393D01*
X8300Y2386D01*
X8294Y2378D01*
X8288Y2370D01*
X8284Y2364D01*
X8281Y2359D01*
X8279Y2357D01*
X8278Y2356D01*
X8278Y2355D01*
Y2354D01*
X8276Y2365D01*
X8274Y2374D01*
X8271Y2383D01*
X8268Y2391D01*
X8265Y2399D01*
X8262Y2406D01*
X8258Y2412D01*
X8255Y2418D01*
X8252Y2422D01*
X8249Y2427D01*
X8246Y2430D01*
X8243Y2433D01*
X8241Y2436D01*
X8240Y2437D01*
X8239Y2438D01*
X8238Y2439D01*
X8232Y2444D01*
X8226Y2448D01*
X8219Y2452D01*
X8213Y2456D01*
X8206Y2458D01*
X8199Y2461D01*
X8186Y2464D01*
X8181Y2465D01*
X8175Y2466D01*
X8170Y2466D01*
X8167Y2467D01*
X8163Y2467D01*
X8161D01*
X8159D01*
X8159D01*
X8145Y2466D01*
X8132Y2465D01*
X8120Y2462D01*
X8111Y2458D01*
X8106Y2456D01*
X8103Y2455D01*
X8099Y2453D01*
X8096Y2452D01*
X8094Y2451D01*
X8093Y2450D01*
X8092Y2449D01*
X8091D01*
X8081Y2441D01*
X8072Y2433D01*
X8065Y2424D01*
X8060Y2417D01*
X8055Y2410D01*
X8052Y2404D01*
X8051Y2402D01*
X8051Y2400D01*
X8050Y2399D01*
Y2399D01*
X8048Y2392D01*
X8046Y2385D01*
X8045Y2378D01*
X8043Y2370D01*
X8041Y2354D01*
X8040Y2337D01*
X8039Y2329D01*
X8039Y2322D01*
Y2316D01*
X8038Y2311D01*
Y2502D01*
D01*
Y2118D01*
X8466D01*
Y2204D01*
X8288D01*
Y2232D01*
X8289Y2241D01*
X8289Y2248D01*
X8290Y2254D01*
X8291Y2259D01*
X8292Y2262D01*
X8293Y2264D01*
Y2265D01*
X8295Y2269D01*
X8298Y2274D01*
X8301Y2279D01*
X8304Y2283D01*
X8306Y2286D01*
X8309Y2289D01*
X8310Y2290D01*
X8311Y2291D01*
X8314Y2293D01*
X8317Y2296D01*
X8321Y2300D01*
X8326Y2303D01*
X8336Y2311D01*
X8347Y2318D01*
X8357Y2325D01*
X8362Y2328D01*
X8366Y2331D01*
X8368Y2333D01*
X8371Y2335D01*
X8373Y2336D01*
X8373Y2336D01*
X8466Y2399D01*
Y2502D01*
D02*
G37*
G36*
X8261Y2050D02*
X8254D01*
X8234Y2050D01*
X8217Y2048D01*
X8200Y2045D01*
X8184Y2041D01*
X8169Y2037D01*
X8156Y2032D01*
X8144Y2027D01*
X8133Y2022D01*
X8123Y2017D01*
X8115Y2011D01*
X8107Y2007D01*
X8101Y2002D01*
X8096Y1999D01*
X8093Y1996D01*
X8091Y1994D01*
X8090Y1993D01*
X8080Y1982D01*
X8071Y1971D01*
X8063Y1958D01*
X8056Y1946D01*
X8051Y1933D01*
X8046Y1921D01*
X8042Y1908D01*
X8039Y1896D01*
X8036Y1885D01*
X8034Y1875D01*
X8033Y1866D01*
X8032Y1858D01*
X8032Y1851D01*
X8031Y1846D01*
Y2050D01*
D01*
Y1635D01*
D01*
Y1842D01*
X8032Y1823D01*
X8034Y1805D01*
X8035Y1797D01*
X8037Y1789D01*
X8038Y1782D01*
X8040Y1776D01*
X8042Y1770D01*
X8043Y1765D01*
X8045Y1760D01*
X8046Y1756D01*
X8047Y1753D01*
X8048Y1751D01*
X8049Y1750D01*
Y1749D01*
X8054Y1738D01*
X8060Y1728D01*
X8067Y1719D01*
X8072Y1711D01*
X8078Y1704D01*
X8083Y1699D01*
X8085Y1697D01*
X8086Y1695D01*
X8087Y1695D01*
X8087Y1694D01*
X8097Y1685D01*
X8107Y1677D01*
X8117Y1671D01*
X8126Y1665D01*
X8134Y1660D01*
X8137Y1659D01*
X8140Y1657D01*
X8143Y1656D01*
X8144Y1655D01*
X8145Y1654D01*
X8146D01*
X8163Y1648D01*
X8182Y1643D01*
X8200Y1640D01*
X8209Y1638D01*
X8218Y1637D01*
X8225Y1636D01*
X8232Y1636D01*
X8239Y1635D01*
X8245D01*
X8249Y1635D01*
X8031D01*
X8474D01*
D01*
X8256D01*
X8274Y1635D01*
X8292Y1637D01*
X8309Y1640D01*
X8324Y1644D01*
X8338Y1648D01*
X8352Y1653D01*
X8364Y1658D01*
X8374Y1663D01*
X8384Y1668D01*
X8393Y1673D01*
X8400Y1678D01*
X8406Y1682D01*
X8411Y1686D01*
X8414Y1688D01*
X8416Y1690D01*
X8417Y1691D01*
X8427Y1702D01*
X8436Y1714D01*
X8443Y1726D01*
X8450Y1738D01*
X8456Y1751D01*
X8460Y1764D01*
X8464Y1776D01*
X8467Y1788D01*
X8469Y1799D01*
X8471Y1810D01*
X8472Y1819D01*
X8473Y1827D01*
X8474Y1833D01*
X8474Y1839D01*
Y1843D01*
X8474Y1860D01*
X8472Y1876D01*
X8469Y1892D01*
X8465Y1906D01*
X8461Y1920D01*
X8456Y1932D01*
X8451Y1943D01*
X8445Y1954D01*
X8440Y1963D01*
X8434Y1971D01*
X8429Y1978D01*
X8425Y1983D01*
X8421Y1988D01*
X8418Y1991D01*
X8417Y1993D01*
X8416Y1994D01*
X8405Y2004D01*
X8392Y2013D01*
X8379Y2020D01*
X8366Y2026D01*
X8353Y2032D01*
X8339Y2036D01*
X8326Y2040D01*
X8313Y2043D01*
X8301Y2045D01*
X8290Y2047D01*
X8279Y2049D01*
X8271Y2049D01*
X8264Y2050D01*
X8261Y2050D01*
D02*
G37*
G36*
X8111Y1597D02*
X8038D01*
Y1257D01*
X8466D01*
X8111D01*
Y1384D01*
X8466D01*
Y1471D01*
X8111D01*
Y1597D01*
D02*
G37*
G36*
X8261Y1220D02*
X8254D01*
X8234Y1219D01*
X8217Y1217D01*
X8200Y1214D01*
X8184Y1211D01*
X8169Y1206D01*
X8156Y1202D01*
X8144Y1196D01*
X8133Y1191D01*
X8123Y1186D01*
X8115Y1180D01*
X8107Y1176D01*
X8101Y1172D01*
X8096Y1168D01*
X8093Y1165D01*
X8091Y1163D01*
X8090Y1163D01*
X8080Y1152D01*
X8071Y1140D01*
X8063Y1128D01*
X8056Y1115D01*
X8051Y1102D01*
X8046Y1090D01*
X8042Y1078D01*
X8039Y1066D01*
X8036Y1054D01*
X8034Y1044D01*
X8033Y1035D01*
X8032Y1027D01*
X8032Y1020D01*
X8031Y1015D01*
Y804D01*
Y1011D01*
X8032Y992D01*
X8034Y975D01*
X8035Y967D01*
X8037Y959D01*
X8038Y952D01*
X8040Y945D01*
X8042Y939D01*
X8043Y934D01*
X8045Y930D01*
X8046Y926D01*
X8047Y923D01*
X8048Y921D01*
X8049Y919D01*
Y919D01*
X8054Y908D01*
X8060Y897D01*
X8067Y888D01*
X8072Y880D01*
X8078Y873D01*
X8083Y868D01*
X8085Y866D01*
X8086Y865D01*
X8087Y864D01*
X8087Y864D01*
X8097Y855D01*
X8107Y847D01*
X8117Y840D01*
X8126Y834D01*
X8134Y830D01*
X8137Y828D01*
X8140Y827D01*
X8143Y825D01*
X8144Y824D01*
X8145Y824D01*
X8146D01*
X8163Y817D01*
X8182Y812D01*
X8200Y809D01*
X8209Y808D01*
X8218Y807D01*
X8225Y806D01*
X8232Y805D01*
X8239Y805D01*
X8245D01*
X8249Y804D01*
X8031D01*
X8474D01*
D01*
X8256D01*
X8274Y805D01*
X8292Y807D01*
X8309Y809D01*
X8324Y813D01*
X8338Y817D01*
X8352Y822D01*
X8364Y827D01*
X8374Y833D01*
X8384Y837D01*
X8393Y842D01*
X8400Y847D01*
X8406Y851D01*
X8411Y855D01*
X8414Y858D01*
X8416Y860D01*
X8417Y860D01*
X8427Y871D01*
X8436Y883D01*
X8443Y895D01*
X8450Y908D01*
X8456Y921D01*
X8460Y933D01*
X8464Y945D01*
X8467Y957D01*
X8469Y969D01*
X8471Y979D01*
X8472Y988D01*
X8473Y996D01*
X8474Y1003D01*
X8474Y1008D01*
Y1012D01*
X8474Y1030D01*
X8472Y1046D01*
X8469Y1061D01*
X8465Y1076D01*
X8461Y1089D01*
X8456Y1101D01*
X8451Y1113D01*
X8445Y1123D01*
X8440Y1132D01*
X8434Y1140D01*
X8429Y1147D01*
X8425Y1153D01*
X8421Y1157D01*
X8418Y1161D01*
X8417Y1163D01*
X8416Y1163D01*
X8405Y1173D01*
X8392Y1182D01*
X8379Y1189D01*
X8366Y1196D01*
X8353Y1201D01*
X8339Y1206D01*
X8326Y1210D01*
X8313Y1213D01*
X8301Y1215D01*
X8290Y1217D01*
X8279Y1218D01*
X8271Y1219D01*
X8264Y1219D01*
X8261Y1220D01*
D02*
G37*
G36*
X8466Y736D02*
X8038D01*
Y323D01*
X8466D01*
Y571D01*
X8130Y655D01*
X8466Y656D01*
Y736D01*
D02*
G37*
%LPD*%
G36*
X8171Y2378D02*
X8177Y2377D01*
X8183Y2375D01*
X8187Y2374D01*
X8191Y2372D01*
X8194Y2371D01*
X8196Y2370D01*
X8196Y2369D01*
X8201Y2366D01*
X8205Y2362D01*
X8208Y2358D01*
X8210Y2354D01*
X8212Y2351D01*
X8214Y2348D01*
X8214Y2346D01*
X8215Y2345D01*
X8216Y2342D01*
X8216Y2337D01*
X8217Y2332D01*
X8218Y2326D01*
X8219Y2314D01*
X8219Y2301D01*
Y2288D01*
X8219Y2282D01*
Y2204D01*
X8111D01*
Y2303D01*
X8111Y2309D01*
Y2322D01*
X8112Y2325D01*
Y2332D01*
X8112Y2334D01*
Y2334D01*
X8114Y2342D01*
X8117Y2348D01*
X8120Y2354D01*
X8122Y2358D01*
X8125Y2362D01*
X8127Y2365D01*
X8129Y2366D01*
X8129Y2367D01*
X8134Y2370D01*
X8140Y2373D01*
X8146Y2375D01*
X8152Y2377D01*
X8157Y2378D01*
X8161Y2378D01*
X8163D01*
X8164D01*
X8164D01*
X8171Y2378D01*
D02*
G37*
G36*
X8265Y1961D02*
X8278Y1960D01*
X8290Y1958D01*
X8301Y1956D01*
X8311Y1953D01*
X8320Y1951D01*
X8328Y1947D01*
X8336Y1944D01*
X8342Y1941D01*
X8348Y1938D01*
X8353Y1935D01*
X8357Y1933D01*
X8360Y1930D01*
X8362Y1929D01*
X8363Y1928D01*
X8364Y1927D01*
X8370Y1921D01*
X8376Y1914D01*
X8381Y1907D01*
X8385Y1900D01*
X8389Y1893D01*
X8392Y1886D01*
X8394Y1879D01*
X8396Y1873D01*
X8398Y1867D01*
X8399Y1861D01*
X8400Y1856D01*
X8400Y1851D01*
Y1848D01*
X8401Y1845D01*
Y1843D01*
X8400Y1833D01*
X8399Y1824D01*
X8397Y1816D01*
X8395Y1808D01*
X8392Y1800D01*
X8389Y1793D01*
X8385Y1786D01*
X8382Y1780D01*
X8378Y1775D01*
X8375Y1771D01*
X8372Y1767D01*
X8369Y1763D01*
X8367Y1761D01*
X8365Y1759D01*
X8364Y1758D01*
X8364Y1757D01*
X8356Y1751D01*
X8348Y1746D01*
X8339Y1742D01*
X8330Y1738D01*
X8321Y1735D01*
X8312Y1732D01*
X8294Y1728D01*
X8286Y1727D01*
X8278Y1726D01*
X8271Y1725D01*
X8265Y1725D01*
X8260Y1724D01*
X8256D01*
X8254D01*
X8253D01*
X8239Y1725D01*
X8227Y1725D01*
X8215Y1727D01*
X8204Y1729D01*
X8194Y1731D01*
X8185Y1734D01*
X8177Y1737D01*
X8170Y1740D01*
X8164Y1743D01*
X8158Y1746D01*
X8153Y1749D01*
X8149Y1752D01*
X8146Y1754D01*
X8144Y1755D01*
X8143Y1756D01*
X8142Y1757D01*
X8136Y1763D01*
X8130Y1770D01*
X8125Y1777D01*
X8121Y1784D01*
X8117Y1791D01*
X8114Y1798D01*
X8112Y1805D01*
X8110Y1812D01*
X8108Y1819D01*
X8107Y1824D01*
X8106Y1829D01*
X8106Y1834D01*
X8105Y1838D01*
Y1843D01*
X8106Y1853D01*
X8107Y1862D01*
X8109Y1871D01*
X8111Y1879D01*
X8114Y1886D01*
X8117Y1893D01*
X8120Y1900D01*
X8123Y1906D01*
X8127Y1911D01*
X8130Y1916D01*
X8133Y1920D01*
X8136Y1922D01*
X8138Y1925D01*
X8140Y1927D01*
X8141Y1928D01*
X8142Y1928D01*
X8149Y1934D01*
X8157Y1939D01*
X8166Y1944D01*
X8174Y1947D01*
X8183Y1951D01*
X8192Y1953D01*
X8210Y1957D01*
X8219Y1959D01*
X8226Y1960D01*
X8233Y1960D01*
X8240Y1961D01*
X8245Y1961D01*
X8248D01*
X8251D01*
X8252D01*
X8265Y1961D01*
D02*
G37*
G36*
Y1130D02*
X8278Y1129D01*
X8290Y1128D01*
X8301Y1125D01*
X8311Y1123D01*
X8320Y1120D01*
X8328Y1117D01*
X8336Y1114D01*
X8342Y1111D01*
X8348Y1108D01*
X8353Y1105D01*
X8357Y1102D01*
X8360Y1100D01*
X8362Y1098D01*
X8363Y1097D01*
X8364Y1097D01*
X8370Y1090D01*
X8376Y1083D01*
X8381Y1077D01*
X8385Y1070D01*
X8389Y1063D01*
X8392Y1055D01*
X8394Y1049D01*
X8396Y1042D01*
X8398Y1036D01*
X8399Y1030D01*
X8400Y1025D01*
X8400Y1021D01*
Y1017D01*
X8401Y1015D01*
Y1012D01*
X8400Y1003D01*
X8399Y993D01*
X8397Y985D01*
X8395Y977D01*
X8392Y969D01*
X8389Y962D01*
X8385Y956D01*
X8382Y950D01*
X8378Y944D01*
X8375Y940D01*
X8372Y936D01*
X8369Y932D01*
X8367Y930D01*
X8365Y928D01*
X8364Y927D01*
X8364Y927D01*
X8356Y921D01*
X8348Y916D01*
X8339Y911D01*
X8330Y907D01*
X8321Y904D01*
X8312Y901D01*
X8294Y897D01*
X8286Y896D01*
X8278Y895D01*
X8271Y894D01*
X8265Y894D01*
X8260Y893D01*
X8256D01*
X8254D01*
X8253D01*
X8239Y894D01*
X8227Y895D01*
X8215Y896D01*
X8204Y898D01*
X8194Y901D01*
X8185Y904D01*
X8177Y907D01*
X8170Y910D01*
X8164Y913D01*
X8158Y916D01*
X8153Y919D01*
X8149Y921D01*
X8146Y923D01*
X8144Y925D01*
X8143Y926D01*
X8142Y926D01*
X8136Y932D01*
X8130Y939D01*
X8125Y946D01*
X8121Y953D01*
X8117Y961D01*
X8114Y968D01*
X8112Y975D01*
X8110Y981D01*
X8108Y988D01*
X8107Y993D01*
X8106Y999D01*
X8106Y1003D01*
X8105Y1007D01*
Y1012D01*
X8106Y1022D01*
X8107Y1031D01*
X8109Y1040D01*
X8111Y1048D01*
X8114Y1056D01*
X8117Y1063D01*
X8120Y1069D01*
X8123Y1075D01*
X8127Y1081D01*
X8130Y1085D01*
X8133Y1089D01*
X8136Y1092D01*
X8138Y1094D01*
X8140Y1096D01*
X8141Y1097D01*
X8142Y1098D01*
X8149Y1104D01*
X8157Y1109D01*
X8166Y1113D01*
X8174Y1117D01*
X8183Y1120D01*
X8192Y1123D01*
X8210Y1127D01*
X8219Y1128D01*
X8226Y1129D01*
X8233Y1130D01*
X8240Y1130D01*
X8245Y1130D01*
X8248D01*
X8251D01*
X8252D01*
X8265Y1130D01*
D02*
G37*
G36*
X8331Y530D02*
X8038Y452D01*
Y606D01*
X8331Y530D01*
D02*
G37*
G36*
X8466Y403D02*
X8130D01*
X8466Y487D01*
Y403D01*
D02*
G37*
%LPC*%
G36*
X21064Y16550D02*
X20964D01*
X20895Y16364D01*
X20891Y16352D01*
X20889Y16347D01*
X20888Y16342D01*
X20886Y16338D01*
X20885Y16335D01*
X20885Y16333D01*
Y16332D01*
X20883Y16329D01*
X20882Y16324D01*
X20879Y16314D01*
X20878Y16309D01*
X20876Y16305D01*
X20875Y16302D01*
X20875Y16301D01*
X20855Y16364D01*
X20786Y16550D01*
X20685D01*
X20832Y16185D01*
X20685D01*
X21064D01*
X20918D01*
X21064Y16550D01*
D02*
G37*
G36*
X20260Y16609D02*
X20039D01*
Y16478D01*
X19907D01*
Y16257D01*
Y16388D01*
X20039D01*
Y16257D01*
X19907D01*
X20127D01*
Y16388D01*
X20260D01*
Y16609D01*
D02*
G37*
G36*
X20650Y16691D02*
X20315D01*
X20478D01*
X20463Y16690D01*
X20448Y16688D01*
X20435Y16686D01*
X20424Y16683D01*
X20415Y16680D01*
X20411Y16679D01*
X20408Y16677D01*
X20405Y16677D01*
X20404Y16676D01*
X20402Y16675D01*
X20402D01*
X20390Y16669D01*
X20380Y16662D01*
X20371Y16654D01*
X20363Y16647D01*
X20357Y16641D01*
X20353Y16636D01*
X20351Y16632D01*
X20349Y16632D01*
Y16631D01*
X20343Y16620D01*
X20337Y16609D01*
X20332Y16596D01*
X20329Y16585D01*
X20326Y16574D01*
X20324Y16570D01*
X20324Y16566D01*
X20323Y16563D01*
X20323Y16560D01*
X20322Y16559D01*
Y16558D01*
X20411Y16543D01*
X20413Y16555D01*
X20416Y16565D01*
X20419Y16574D01*
X20423Y16581D01*
X20426Y16586D01*
X20429Y16590D01*
X20432Y16593D01*
X20432Y16593D01*
X20439Y16599D01*
X20447Y16603D01*
X20454Y16607D01*
X20461Y16609D01*
X20467Y16610D01*
X20471Y16611D01*
X20475D01*
X20484Y16610D01*
X20492Y16609D01*
X20499Y16606D01*
X20505Y16603D01*
X20510Y16600D01*
X20513Y16597D01*
X20515Y16596D01*
X20516Y16595D01*
X20521Y16589D01*
X20525Y16582D01*
X20527Y16576D01*
X20530Y16569D01*
X20531Y16564D01*
X20531Y16559D01*
Y16556D01*
Y16556D01*
Y16555D01*
X20530Y16544D01*
X20528Y16535D01*
X20525Y16526D01*
X20521Y16519D01*
X20517Y16514D01*
X20514Y16510D01*
X20511Y16507D01*
X20510Y16507D01*
X20502Y16501D01*
X20492Y16496D01*
X20482Y16493D01*
X20472Y16491D01*
X20463Y16490D01*
X20460D01*
X20456Y16490D01*
X20450D01*
X20439Y16411D01*
X20449Y16413D01*
X20457Y16416D01*
X20464Y16417D01*
X20471Y16417D01*
X20476Y16418D01*
X20480Y16418D01*
X20483D01*
X20493Y16417D01*
X20503Y16415D01*
X20511Y16411D01*
X20518Y16408D01*
X20524Y16404D01*
X20528Y16400D01*
X20530Y16398D01*
X20531Y16397D01*
X20538Y16388D01*
X20543Y16379D01*
X20546Y16369D01*
X20549Y16360D01*
X20550Y16352D01*
X20551Y16345D01*
Y16343D01*
Y16341D01*
Y16340D01*
Y16339D01*
X20550Y16325D01*
X20548Y16313D01*
X20545Y16302D01*
X20541Y16294D01*
X20537Y16287D01*
X20534Y16281D01*
X20531Y16279D01*
X20530Y16277D01*
X20522Y16270D01*
X20514Y16265D01*
X20505Y16260D01*
X20497Y16258D01*
X20490Y16256D01*
X20485Y16256D01*
X20481Y16255D01*
X20480D01*
X20470Y16256D01*
X20461Y16258D01*
X20453Y16261D01*
X20446Y16265D01*
X20440Y16268D01*
X20436Y16271D01*
X20433Y16273D01*
X20432Y16274D01*
X20426Y16281D01*
X20420Y16290D01*
X20416Y16300D01*
X20413Y16308D01*
X20411Y16316D01*
X20409Y16323D01*
X20409Y16325D01*
X20408Y16327D01*
Y16328D01*
Y16329D01*
X20315Y16317D01*
D01*
X20317Y16305D01*
X20319Y16294D01*
X20323Y16284D01*
X20326Y16274D01*
X20330Y16265D01*
X20334Y16256D01*
X20339Y16249D01*
X20344Y16242D01*
X20348Y16235D01*
X20352Y16230D01*
X20356Y16226D01*
X20360Y16221D01*
X20363Y16219D01*
X20365Y16216D01*
X20366Y16215D01*
X20367Y16214D01*
X20376Y16207D01*
X20385Y16202D01*
X20394Y16196D01*
X20404Y16192D01*
X20414Y16188D01*
X20423Y16185D01*
X20441Y16180D01*
X20449Y16179D01*
X20457Y16178D01*
X20464Y16177D01*
X20470Y16176D01*
X20474Y16175D01*
X20481D01*
X20494Y16176D01*
X20507Y16177D01*
X20518Y16179D01*
X20530Y16183D01*
X20541Y16186D01*
X20551Y16190D01*
X20560Y16195D01*
X20568Y16199D01*
X20576Y16203D01*
X20582Y16207D01*
X20588Y16211D01*
X20593Y16215D01*
X20597Y16218D01*
X20599Y16220D01*
X20601Y16221D01*
X20601Y16222D01*
X20610Y16231D01*
X20618Y16240D01*
X20624Y16250D01*
X20630Y16259D01*
X20634Y16269D01*
X20639Y16279D01*
X20641Y16287D01*
X20644Y16296D01*
X20646Y16304D01*
X20648Y16312D01*
X20648Y16318D01*
X20650Y16324D01*
Y16329D01*
X20650Y16332D01*
Y16256D01*
Y16343D01*
X20649Y16351D01*
X20646Y16367D01*
X20642Y16379D01*
X20637Y16391D01*
X20634Y16396D01*
X20632Y16400D01*
X20630Y16404D01*
X20628Y16407D01*
X20626Y16409D01*
X20625Y16411D01*
X20625Y16412D01*
X20624Y16413D01*
X20614Y16424D01*
X20602Y16433D01*
X20591Y16440D01*
X20580Y16446D01*
X20570Y16450D01*
X20566Y16452D01*
X20562Y16453D01*
X20559Y16453D01*
X20557Y16454D01*
X20556Y16455D01*
X20555D01*
X20568Y16462D01*
X20579Y16470D01*
X20589Y16479D01*
X20597Y16488D01*
X20604Y16497D01*
X20611Y16506D01*
X20615Y16514D01*
X20619Y16523D01*
X20622Y16530D01*
X20624Y16537D01*
X20626Y16544D01*
X20627Y16550D01*
X20627Y16554D01*
X20628Y16558D01*
Y16560D01*
Y16561D01*
X20627Y16569D01*
X20626Y16578D01*
X20625Y16586D01*
X20623Y16593D01*
X20617Y16608D01*
X20611Y16620D01*
X20607Y16625D01*
X20604Y16631D01*
X20601Y16635D01*
X20598Y16638D01*
X20596Y16641D01*
X20594Y16643D01*
X20593Y16644D01*
X20593Y16645D01*
X20584Y16653D01*
X20575Y16660D01*
X20566Y16666D01*
X20556Y16672D01*
X20547Y16676D01*
X20537Y16680D01*
X20528Y16683D01*
X20519Y16685D01*
X20510Y16687D01*
X20503Y16688D01*
X20496Y16690D01*
X20489Y16690D01*
X20485Y16691D01*
X20650D01*
D02*
G37*
G36*
X21434D02*
X21099D01*
X21261D01*
X21246Y16690D01*
X21231Y16688D01*
X21219Y16686D01*
X21208Y16683D01*
X21198Y16680D01*
X21195Y16679D01*
X21191Y16677D01*
X21189Y16677D01*
X21187Y16676D01*
X21186Y16675D01*
X21185D01*
X21174Y16669D01*
X21163Y16662D01*
X21155Y16654D01*
X21147Y16647D01*
X21141Y16641D01*
X21136Y16636D01*
X21134Y16632D01*
X21133Y16632D01*
Y16631D01*
X21127Y16620D01*
X21121Y16609D01*
X21116Y16596D01*
X21113Y16585D01*
X21109Y16574D01*
X21108Y16570D01*
X21107Y16566D01*
X21107Y16563D01*
X21106Y16560D01*
X21106Y16559D01*
Y16558D01*
X21195Y16543D01*
X21196Y16555D01*
X21199Y16565D01*
X21203Y16574D01*
X21206Y16581D01*
X21210Y16586D01*
X21213Y16590D01*
X21215Y16593D01*
X21216Y16593D01*
X21223Y16599D01*
X21230Y16603D01*
X21237Y16607D01*
X21244Y16609D01*
X21250Y16610D01*
X21255Y16611D01*
X21259D01*
X21268Y16610D01*
X21276Y16609D01*
X21283Y16606D01*
X21289Y16603D01*
X21293Y16600D01*
X21296Y16597D01*
X21299Y16596D01*
X21299Y16595D01*
X21304Y16589D01*
X21308Y16582D01*
X21311Y16576D01*
X21313Y16569D01*
X21314Y16564D01*
X21315Y16559D01*
Y16556D01*
Y16556D01*
Y16555D01*
X21314Y16544D01*
X21311Y16535D01*
X21308Y16526D01*
X21304Y16519D01*
X21300Y16514D01*
X21297Y16510D01*
X21295Y16507D01*
X21294Y16507D01*
X21285Y16501D01*
X21276Y16496D01*
X21265Y16493D01*
X21256Y16491D01*
X21247Y16490D01*
X21243D01*
X21240Y16490D01*
X21233D01*
X21223Y16411D01*
X21232Y16413D01*
X21240Y16416D01*
X21248Y16417D01*
X21255Y16417D01*
X21260Y16418D01*
X21264Y16418D01*
X21267D01*
X21277Y16417D01*
X21286Y16415D01*
X21294Y16411D01*
X21301Y16408D01*
X21307Y16404D01*
X21311Y16400D01*
X21314Y16398D01*
X21315Y16397D01*
X21321Y16388D01*
X21327Y16379D01*
X21330Y16369D01*
X21332Y16360D01*
X21333Y16352D01*
X21335Y16345D01*
Y16343D01*
Y16341D01*
Y16340D01*
Y16339D01*
X21333Y16325D01*
X21331Y16313D01*
X21328Y16302D01*
X21324Y16294D01*
X21320Y16287D01*
X21317Y16281D01*
X21315Y16279D01*
X21314Y16277D01*
X21306Y16270D01*
X21297Y16265D01*
X21289Y16260D01*
X21281Y16258D01*
X21274Y16256D01*
X21269Y16256D01*
X21265Y16255D01*
X21264D01*
X21254Y16256D01*
X21244Y16258D01*
X21236Y16261D01*
X21229Y16265D01*
X21223Y16268D01*
X21219Y16271D01*
X21217Y16273D01*
X21216Y16274D01*
X21209Y16281D01*
X21203Y16290D01*
X21199Y16300D01*
X21196Y16308D01*
X21194Y16316D01*
X21193Y16323D01*
X21192Y16325D01*
X21192Y16327D01*
Y16328D01*
Y16329D01*
X21099Y16317D01*
D01*
X21100Y16305D01*
X21103Y16294D01*
X21106Y16284D01*
X21110Y16274D01*
X21114Y16265D01*
X21118Y16256D01*
X21122Y16249D01*
X21127Y16242D01*
X21132Y16235D01*
X21136Y16230D01*
X21140Y16226D01*
X21143Y16221D01*
X21146Y16219D01*
X21149Y16216D01*
X21150Y16215D01*
X21150Y16214D01*
X21159Y16207D01*
X21169Y16202D01*
X21178Y16196D01*
X21187Y16192D01*
X21197Y16188D01*
X21206Y16185D01*
X21224Y16180D01*
X21233Y16179D01*
X21240Y16178D01*
X21247Y16177D01*
X21253Y16176D01*
X21258Y16175D01*
X21264D01*
X21278Y16176D01*
X21290Y16177D01*
X21302Y16179D01*
X21314Y16183D01*
X21324Y16186D01*
X21334Y16190D01*
X21343Y16195D01*
X21352Y16199D01*
X21359Y16203D01*
X21366Y16207D01*
X21371Y16211D01*
X21376Y16215D01*
X21380Y16218D01*
X21382Y16220D01*
X21384Y16221D01*
X21385Y16222D01*
X21394Y16231D01*
X21401Y16240D01*
X21408Y16250D01*
X21413Y16259D01*
X21418Y16269D01*
X21422Y16279D01*
X21425Y16287D01*
X21428Y16296D01*
X21430Y16304D01*
X21431Y16312D01*
X21432Y16318D01*
X21433Y16324D01*
Y16329D01*
X21434Y16332D01*
Y16216D01*
Y16343D01*
X21433Y16351D01*
X21430Y16367D01*
X21426Y16379D01*
X21421Y16391D01*
X21418Y16396D01*
X21416Y16400D01*
X21413Y16404D01*
X21412Y16407D01*
X21410Y16409D01*
X21409Y16411D01*
X21408Y16412D01*
X21408Y16413D01*
X21397Y16424D01*
X21386Y16433D01*
X21374Y16440D01*
X21364Y16446D01*
X21354Y16450D01*
X21350Y16452D01*
X21346Y16453D01*
X21343Y16453D01*
X21340Y16454D01*
X21339Y16455D01*
X21339D01*
X21352Y16462D01*
X21363Y16470D01*
X21373Y16479D01*
X21381Y16488D01*
X21388Y16497D01*
X21394Y16506D01*
X21399Y16514D01*
X21402Y16523D01*
X21406Y16530D01*
X21408Y16537D01*
X21409Y16544D01*
X21410Y16550D01*
X21411Y16554D01*
X21412Y16558D01*
Y16560D01*
Y16561D01*
X21411Y16569D01*
X21410Y16578D01*
X21408Y16586D01*
X21406Y16593D01*
X21401Y16608D01*
X21394Y16620D01*
X21391Y16625D01*
X21387Y16631D01*
X21384Y16635D01*
X21382Y16638D01*
X21380Y16641D01*
X21378Y16643D01*
X21377Y16644D01*
X21376Y16645D01*
X21368Y16653D01*
X21359Y16660D01*
X21349Y16666D01*
X21340Y16672D01*
X21331Y16676D01*
X21321Y16680D01*
X21311Y16683D01*
X21303Y16685D01*
X21294Y16687D01*
X21286Y16688D01*
X21279Y16690D01*
X21273Y16690D01*
X21268Y16691D01*
X21434D01*
D02*
G37*
%LPD*%
G36*
X20260Y16478D02*
X20127D01*
Y16609D01*
X20260D01*
Y16478D01*
D02*
G37*
%LPC*%
G36*
X13201Y2432D02*
X13119D01*
X13038Y2227D01*
X12959Y2432D01*
X13061D01*
X12876D01*
D01*
X13003Y2138D01*
X12876D01*
X13074D01*
X13201Y2432D01*
D02*
G37*
G36*
D02*
D01*
Y2138D01*
X13201D01*
X13201D01*
Y2432D01*
D02*
G37*
G36*
X13250Y1943D02*
X13027Y1796D01*
X12822Y1930D01*
Y1943D01*
Y1829D01*
X12950Y1744D01*
X12822Y1660D01*
Y1545D01*
Y1559D01*
X13027Y1693D01*
X13250Y1545D01*
Y1943D01*
D02*
G37*
G36*
Y1542D02*
D01*
X13167Y1489D01*
X13158Y1484D01*
X13150Y1478D01*
X13142Y1474D01*
X13135Y1469D01*
X13129Y1465D01*
X13123Y1460D01*
X13118Y1457D01*
X13114Y1453D01*
X13110Y1450D01*
X13107Y1448D01*
X13104Y1446D01*
X13102Y1444D01*
X13100Y1442D01*
X13099Y1441D01*
X13098Y1440D01*
X13090Y1433D01*
X13084Y1426D01*
X13077Y1418D01*
X13072Y1410D01*
X13068Y1404D01*
X13065Y1399D01*
X13063Y1397D01*
X13062Y1395D01*
X13062Y1394D01*
Y1394D01*
X13060Y1404D01*
X13058Y1414D01*
X13055Y1423D01*
X13052Y1431D01*
X13049Y1438D01*
X13045Y1445D01*
X13042Y1452D01*
X13039Y1457D01*
X13035Y1462D01*
X13032Y1467D01*
X13029Y1470D01*
X13027Y1473D01*
X13025Y1476D01*
X13024Y1477D01*
X13023Y1478D01*
X13022Y1478D01*
X13016Y1483D01*
X13010Y1488D01*
X13003Y1492D01*
X12996Y1495D01*
X12989Y1498D01*
X12983Y1500D01*
X12970Y1504D01*
X12965Y1505D01*
X12959Y1506D01*
X12954Y1506D01*
X12950Y1507D01*
X12947Y1507D01*
X12944D01*
X12943D01*
X12942D01*
X12928Y1506D01*
X12916Y1504D01*
X12904Y1501D01*
X12894Y1498D01*
X12890Y1496D01*
X12886Y1494D01*
X12883Y1493D01*
X12880Y1491D01*
X12878Y1490D01*
X12877Y1489D01*
X12876Y1488D01*
X12875D01*
X12865Y1481D01*
X12856Y1473D01*
X12849Y1464D01*
X12843Y1456D01*
X12839Y1449D01*
X12836Y1443D01*
X12835Y1441D01*
X12834Y1440D01*
X12834Y1439D01*
Y1438D01*
X12832Y1432D01*
X12830Y1425D01*
X12829Y1418D01*
X12827Y1410D01*
X12825Y1393D01*
X12824Y1377D01*
X12823Y1369D01*
X12823Y1362D01*
Y1356D01*
X12822Y1350D01*
Y1157D01*
X13250D01*
Y1542D01*
D02*
G37*
G36*
Y1083D02*
X13174D01*
D01*
X13080D01*
X13174D01*
Y920D01*
X13166Y926D01*
X13162Y929D01*
X13159Y931D01*
X13156Y933D01*
X13154Y935D01*
X13152Y936D01*
X13152Y937D01*
X13149Y939D01*
X13146Y942D01*
X13139Y949D01*
X13131Y957D01*
X13124Y965D01*
X13116Y973D01*
X13113Y977D01*
X13110Y980D01*
X13108Y982D01*
X13106Y984D01*
X13105Y985D01*
X13104Y986D01*
X13098Y993D01*
X13092Y999D01*
X13086Y1005D01*
X13080Y1011D01*
X13076Y1016D01*
X13072Y1020D01*
X13064Y1028D01*
X13058Y1033D01*
X13053Y1037D01*
X13051Y1039D01*
X13050Y1040D01*
X13039Y1048D01*
X13029Y1055D01*
X13020Y1060D01*
X13012Y1065D01*
X13005Y1069D01*
X12999Y1071D01*
X12997Y1072D01*
X12996Y1073D01*
X12995Y1073D01*
X12995D01*
X12985Y1077D01*
X12975Y1079D01*
X12966Y1081D01*
X12958Y1082D01*
X12950Y1083D01*
X12945Y1083D01*
X12821D01*
X12940D01*
X12930Y1083D01*
X12922Y1082D01*
X12913Y1080D01*
X12905Y1078D01*
X12897Y1075D01*
X12890Y1072D01*
X12884Y1069D01*
X12878Y1065D01*
X12873Y1062D01*
X12868Y1058D01*
X12864Y1055D01*
X12861Y1053D01*
X12858Y1050D01*
X12856Y1048D01*
X12855Y1047D01*
X12855Y1047D01*
X12849Y1040D01*
X12843Y1032D01*
X12839Y1024D01*
X12835Y1016D01*
X12831Y1008D01*
X12829Y999D01*
X12827Y991D01*
X12825Y983D01*
X12824Y976D01*
X12823Y969D01*
X12822Y963D01*
X12821Y958D01*
X12821Y953D01*
Y970D01*
Y953D01*
Y947D01*
X12821Y937D01*
X12822Y927D01*
X12824Y917D01*
X12825Y908D01*
X12828Y899D01*
X12830Y891D01*
X12832Y884D01*
X12835Y878D01*
X12838Y872D01*
X12841Y866D01*
X12843Y862D01*
X12846Y858D01*
X12847Y855D01*
X12849Y853D01*
X12850Y851D01*
X12850Y851D01*
X12856Y844D01*
X12863Y838D01*
X12870Y833D01*
X12878Y828D01*
X12886Y823D01*
X12894Y820D01*
X12902Y816D01*
X12910Y814D01*
X12917Y811D01*
X12925Y810D01*
X12930Y808D01*
X12936Y807D01*
X12941Y806D01*
X12944Y806D01*
X12946Y805D01*
X12947D01*
X12955Y887D01*
X12943Y888D01*
X12932Y890D01*
X12924Y893D01*
X12916Y896D01*
X12911Y899D01*
X12907Y902D01*
X12905Y904D01*
X12904Y904D01*
X12899Y910D01*
X12895Y917D01*
X12892Y924D01*
X12890Y931D01*
X12889Y936D01*
X12888Y941D01*
Y945D01*
X12889Y955D01*
X12891Y963D01*
X12893Y970D01*
X12896Y976D01*
X12898Y981D01*
X12901Y984D01*
X12903Y986D01*
X12903Y986D01*
X12909Y991D01*
X12916Y995D01*
X12923Y998D01*
X12930Y999D01*
X12936Y1000D01*
X12941Y1001D01*
X12943D01*
X12945D01*
X12945D01*
X12946D01*
X12955Y1001D01*
X12964Y999D01*
X12973Y996D01*
X12980Y993D01*
X12986Y989D01*
X12991Y987D01*
X12993Y985D01*
X12995Y985D01*
X12995Y984D01*
X12996D01*
X13000Y981D01*
X13004Y978D01*
X13009Y973D01*
X13015Y968D01*
X13026Y957D01*
X13038Y945D01*
X13049Y934D01*
X13053Y930D01*
X13058Y925D01*
X13061Y922D01*
X13064Y919D01*
X13066Y917D01*
X13066Y916D01*
X13078Y904D01*
X13089Y892D01*
X13099Y882D01*
X13109Y873D01*
X13118Y864D01*
X13126Y856D01*
X13134Y850D01*
X13141Y844D01*
X13147Y839D01*
X13153Y834D01*
X13158Y831D01*
X13162Y829D01*
X13165Y826D01*
X13167Y825D01*
X13168Y824D01*
X13169Y824D01*
X13183Y816D01*
X13198Y809D01*
X13211Y805D01*
X13224Y801D01*
X13229Y800D01*
X13234Y798D01*
X13239Y798D01*
X13243Y797D01*
X13246Y796D01*
X13248D01*
X13250Y796D01*
X12821D01*
X13250D01*
Y1083D01*
D02*
G37*
G36*
X13258Y734D02*
D01*
Y568D01*
X13258Y586D01*
X13257Y594D01*
X13256Y602D01*
X13255Y609D01*
X13254Y616D01*
X13253Y623D01*
X13252Y628D01*
X13251Y633D01*
X13249Y637D01*
X13248Y641D01*
X13247Y644D01*
X13246Y647D01*
X13246Y648D01*
X13245Y649D01*
Y650D01*
X13240Y661D01*
X13234Y671D01*
X13228Y680D01*
X13223Y687D01*
X13218Y693D01*
X13214Y697D01*
X13212Y699D01*
X13211Y700D01*
X13202Y707D01*
X13193Y712D01*
X13184Y717D01*
X13175Y720D01*
X13168Y723D01*
X13165Y724D01*
X13162Y725D01*
X13160Y725D01*
X13158Y726D01*
X13157Y726D01*
X13157D01*
X13150Y728D01*
X13143Y729D01*
X13134Y730D01*
X13126Y731D01*
X13108Y732D01*
X13090Y733D01*
X13081Y733D01*
X13074D01*
X13066Y734D01*
X13258D01*
X12822D01*
Y647D01*
X13060D01*
X13069D01*
X13077D01*
X13085Y646D01*
X13093D01*
X13099Y646D01*
X13105D01*
X13111Y645D01*
X13116Y645D01*
X13120Y644D01*
X13123D01*
X13126Y644D01*
X13128Y643D01*
X13130D01*
X13132Y643D01*
X13132D01*
X13133D01*
X13141Y641D01*
X13148Y637D01*
X13154Y634D01*
X13159Y630D01*
X13164Y626D01*
X13167Y623D01*
X13169Y621D01*
X13170Y620D01*
X13175Y613D01*
X13178Y604D01*
X13181Y595D01*
X13182Y586D01*
X13183Y578D01*
X13184Y574D01*
Y571D01*
X13184Y569D01*
Y565D01*
X13184Y552D01*
X13182Y541D01*
X13179Y532D01*
X13176Y524D01*
X13174Y517D01*
X13171Y513D01*
X13169Y510D01*
X13169Y509D01*
X13162Y502D01*
X13155Y496D01*
X13148Y491D01*
X13141Y488D01*
X13135Y486D01*
X13131Y484D01*
X13129Y483D01*
X13127D01*
X13127Y483D01*
X13126D01*
X13123Y482D01*
X13119Y482D01*
X13114Y481D01*
X13108D01*
X13097Y480D01*
X13084D01*
X13073Y480D01*
X13068D01*
X13064D01*
X13060D01*
X13057D01*
X13055D01*
X13055D01*
X12822D01*
Y393D01*
X13064D01*
X13076Y393D01*
X13088Y394D01*
X13098Y394D01*
X13108Y395D01*
X13117Y395D01*
X13125Y396D01*
X13132Y397D01*
X13139Y398D01*
X13144Y399D01*
X13149Y399D01*
X13153Y400D01*
X13156Y400D01*
X13158Y401D01*
X13159Y401D01*
X13160D01*
X13169Y404D01*
X13178Y407D01*
X13186Y411D01*
X13193Y415D01*
X13199Y419D01*
X13204Y422D01*
X13207Y424D01*
X13207Y425D01*
X13208D01*
X13216Y433D01*
X13223Y441D01*
X13229Y449D01*
X13234Y457D01*
X13238Y464D01*
X13242Y470D01*
X13243Y472D01*
X13244Y474D01*
X13244Y475D01*
Y475D01*
X13247Y482D01*
X13249Y488D01*
X13252Y503D01*
X13255Y519D01*
X13256Y534D01*
X13257Y540D01*
Y547D01*
X13258Y553D01*
X13258Y558D01*
Y393D01*
D01*
Y734D01*
D02*
G37*
%LPD*%
G36*
X13250Y1649D02*
X13105Y1744D01*
X13250Y1839D01*
Y1649D01*
D02*
G37*
G36*
Y1244D02*
X13072D01*
Y1272D01*
X13073Y1280D01*
X13073Y1288D01*
X13074Y1294D01*
X13075Y1298D01*
X13076Y1302D01*
X13076Y1304D01*
Y1304D01*
X13078Y1309D01*
X13081Y1314D01*
X13084Y1319D01*
X13087Y1323D01*
X13090Y1326D01*
X13092Y1329D01*
X13094Y1330D01*
X13094Y1330D01*
X13097Y1333D01*
X13101Y1336D01*
X13105Y1339D01*
X13110Y1343D01*
X13120Y1350D01*
X13130Y1358D01*
X13141Y1365D01*
X13145Y1368D01*
X13149Y1371D01*
X13152Y1373D01*
X13155Y1375D01*
X13157Y1376D01*
X13157Y1376D01*
X13250Y1438D01*
Y1244D01*
D02*
G37*
G36*
X12955Y1418D02*
X12961Y1417D01*
X12967Y1415D01*
X12971Y1414D01*
X12975Y1412D01*
X12977Y1411D01*
X12979Y1410D01*
X12980Y1409D01*
X12984Y1406D01*
X12988Y1402D01*
X12991Y1398D01*
X12994Y1394D01*
X12996Y1390D01*
X12997Y1387D01*
X12998Y1385D01*
X12998Y1385D01*
X12999Y1381D01*
X13000Y1377D01*
X13001Y1372D01*
X13001Y1366D01*
X13002Y1354D01*
X13003Y1340D01*
Y1328D01*
X13003Y1322D01*
Y1244D01*
X12894D01*
Y1343D01*
X12895Y1349D01*
Y1362D01*
X12895Y1365D01*
Y1372D01*
X12896Y1374D01*
Y1374D01*
X12898Y1381D01*
X12900Y1388D01*
X12903Y1393D01*
X12906Y1398D01*
X12909Y1402D01*
X12911Y1404D01*
X12913Y1406D01*
X12913Y1406D01*
X12918Y1410D01*
X12924Y1413D01*
X12930Y1415D01*
X12935Y1417D01*
X12940Y1418D01*
X12944Y1418D01*
X12947D01*
X12947D01*
X12948D01*
X12955Y1418D01*
D02*
G37*
%LPC*%
G36*
X10770Y1830D02*
D01*
Y1361D01*
X11274D01*
X10770D01*
X11274Y1540D01*
Y1651D01*
X10770Y1830D01*
D02*
G37*
G36*
X11283Y1330D02*
Y1161D01*
X11283Y1174D01*
X11282Y1187D01*
X11279Y1199D01*
X11276Y1210D01*
X11272Y1221D01*
X11269Y1231D01*
X11264Y1240D01*
X11260Y1248D01*
X11256Y1256D01*
X11251Y1262D01*
X11248Y1268D01*
X11244Y1273D01*
X11241Y1277D01*
X11239Y1279D01*
X11237Y1281D01*
X11237Y1282D01*
X11228Y1290D01*
X11219Y1298D01*
X11209Y1304D01*
X11200Y1310D01*
X11190Y1315D01*
X11180Y1319D01*
X11172Y1322D01*
X11163Y1325D01*
X11155Y1326D01*
X11147Y1328D01*
X11141Y1329D01*
X11135Y1330D01*
X11130D01*
X11127Y1330D01*
X11116D01*
X11107Y1329D01*
X11092Y1326D01*
X11079Y1322D01*
X11068Y1318D01*
X11063Y1315D01*
X11058Y1312D01*
X11055Y1310D01*
X11052Y1308D01*
X11050Y1307D01*
X11047Y1305D01*
X11047Y1305D01*
X11046Y1304D01*
X11035Y1294D01*
X11026Y1283D01*
X11019Y1271D01*
X11013Y1261D01*
X11009Y1251D01*
X11007Y1247D01*
X11006Y1242D01*
X11005Y1240D01*
X11005Y1237D01*
X11004Y1236D01*
Y1235D01*
X10997Y1248D01*
X10988Y1259D01*
X10980Y1269D01*
X10971Y1277D01*
X10962Y1284D01*
X10953Y1291D01*
X10945Y1296D01*
X10936Y1299D01*
X10928Y1303D01*
X10921Y1304D01*
X10914Y1306D01*
X10909Y1307D01*
X10905Y1308D01*
X10901Y1308D01*
X10899D01*
X10898D01*
X10889Y1308D01*
X10881Y1307D01*
X10873Y1305D01*
X10865Y1303D01*
X10851Y1297D01*
X10839Y1291D01*
X10833Y1287D01*
X10828Y1284D01*
X10824Y1281D01*
X10821Y1279D01*
X10818Y1276D01*
X10816Y1275D01*
X10815Y1273D01*
X10814Y1273D01*
X10806Y1265D01*
X10799Y1255D01*
X10793Y1246D01*
X10787Y1237D01*
X10783Y1227D01*
X10779Y1217D01*
X10776Y1208D01*
X10774Y1199D01*
X10772Y1191D01*
X10770Y1183D01*
X10769Y1176D01*
X10769Y1170D01*
X10768Y1165D01*
Y1173D01*
Y1158D01*
X10769Y1143D01*
X10770Y1128D01*
X10773Y1115D01*
X10776Y1104D01*
X10779Y1095D01*
X10780Y1091D01*
X10782Y1088D01*
X10782Y1086D01*
X10783Y1084D01*
X10784Y1083D01*
Y1082D01*
X10790Y1070D01*
X10797Y1060D01*
X10805Y1051D01*
X10812Y1044D01*
X10818Y1037D01*
X10823Y1033D01*
X10826Y1031D01*
X10827Y1030D01*
X10828D01*
X10839Y1023D01*
X10850Y1017D01*
X10863Y1013D01*
X10874Y1009D01*
X10885Y1006D01*
X10889Y1005D01*
X10893Y1004D01*
X10896Y1003D01*
X10899Y1003D01*
X10900Y1002D01*
X10900D01*
X10916Y1091D01*
X10904Y1093D01*
X10894Y1096D01*
X10885Y1100D01*
X10878Y1103D01*
X10872Y1107D01*
X10869Y1110D01*
X10866Y1112D01*
X10865Y1112D01*
X10860Y1119D01*
X10856Y1127D01*
X10852Y1134D01*
X10850Y1141D01*
X10849Y1147D01*
X10848Y1152D01*
Y1156D01*
X10849Y1164D01*
X10850Y1173D01*
X10853Y1179D01*
X10856Y1185D01*
X10858Y1190D01*
X10861Y1193D01*
X10863Y1195D01*
X10864Y1196D01*
X10870Y1201D01*
X10877Y1205D01*
X10883Y1207D01*
X10889Y1210D01*
X10895Y1211D01*
X10900Y1212D01*
X10903D01*
X10903D01*
X10904D01*
X10914Y1210D01*
X10924Y1208D01*
X10933Y1205D01*
X10940Y1201D01*
X10945Y1197D01*
X10949Y1194D01*
X10952Y1192D01*
X10952Y1191D01*
X10958Y1182D01*
X10963Y1173D01*
X10966Y1162D01*
X10967Y1153D01*
X10969Y1143D01*
Y1140D01*
X10969Y1136D01*
Y1130D01*
X11048Y1119D01*
X11046Y1129D01*
X11043Y1137D01*
X11042Y1145D01*
X11042Y1152D01*
X11041Y1157D01*
X11040Y1160D01*
Y1164D01*
X11042Y1174D01*
X11044Y1183D01*
X11047Y1191D01*
X11051Y1198D01*
X11055Y1204D01*
X11058Y1208D01*
X11061Y1210D01*
X11062Y1212D01*
X11071Y1218D01*
X11080Y1223D01*
X11090Y1227D01*
X11099Y1229D01*
X11107Y1230D01*
X11114Y1231D01*
X11116D01*
X11118D01*
X11119D01*
X11120D01*
X11134Y1230D01*
X11146Y1228D01*
X11156Y1225D01*
X11165Y1221D01*
X11172Y1217D01*
X11177Y1214D01*
X11180Y1212D01*
X11181Y1210D01*
X11189Y1202D01*
X11194Y1194D01*
X11198Y1185D01*
X11201Y1178D01*
X11202Y1171D01*
X11203Y1165D01*
X11204Y1161D01*
Y1160D01*
X11203Y1150D01*
X11201Y1141D01*
X11198Y1133D01*
X11194Y1126D01*
X11191Y1120D01*
X11188Y1116D01*
X11186Y1114D01*
X11185Y1112D01*
X11177Y1106D01*
X11169Y1100D01*
X11159Y1096D01*
X11151Y1093D01*
X11142Y1091D01*
X11136Y1090D01*
X11134Y1089D01*
X11132Y1089D01*
X11131D01*
X11130D01*
X11142Y995D01*
X10768D01*
X11283D01*
Y1330D01*
D02*
G37*
%LPD*%
G36*
X11143Y1598D02*
X10770Y1471D01*
Y1721D01*
X11143Y1598D01*
D02*
G37*
G36*
X11283Y995D02*
X11142D01*
X11153Y997D01*
X11165Y999D01*
X11175Y1003D01*
X11184Y1006D01*
X11194Y1010D01*
X11202Y1015D01*
X11210Y1019D01*
X11217Y1024D01*
X11223Y1028D01*
X11229Y1033D01*
X11233Y1037D01*
X11237Y1040D01*
X11240Y1043D01*
X11243Y1045D01*
X11244Y1047D01*
X11244Y1047D01*
X11251Y1056D01*
X11257Y1065D01*
X11262Y1075D01*
X11267Y1084D01*
X11271Y1094D01*
X11274Y1103D01*
X11279Y1121D01*
X11280Y1129D01*
X11281Y1137D01*
X11282Y1144D01*
X11283Y1150D01*
X11283Y1154D01*
Y995D01*
D02*
G37*
D10*
X10696Y21077D02*
X10996Y20777D01*
X10696Y21077D02*
X10996D01*
Y20777D02*
Y21077D01*
D11*
X15281Y3593D02*
X17281D01*
X15281Y2693D02*
X17281D01*
Y3593D01*
X16281Y2693D02*
Y3593D01*
X15281Y2693D02*
Y3593D01*
X17281Y2693D02*
Y3593D01*
X18281Y2693D02*
Y3593D01*
X17281Y2693D02*
X18281D01*
X17281Y3593D02*
X18281D01*
Y2693D02*
Y3593D01*
X19281Y2693D02*
Y3593D01*
X18281Y2693D02*
X19281D01*
X18281Y3593D02*
X19281D01*
Y2693D02*
Y3593D01*
X18563Y9242D02*
X19252D01*
X18563Y9449D02*
X19252D01*
X18563Y9242D02*
Y9449D01*
X19252Y9242D02*
Y9449D01*
X17854Y8957D02*
Y9646D01*
X17648Y8957D02*
Y9646D01*
Y8957D02*
X17854D01*
X17648Y9646D02*
X17854D01*
X10532Y3593D02*
X12531D01*
X10532Y2693D02*
X12531D01*
Y3593D01*
X11531Y2693D02*
Y3593D01*
X10532Y2693D02*
Y3593D01*
X12531Y2693D02*
Y3593D01*
X13532Y2693D02*
Y3593D01*
X12531Y2693D02*
X13532D01*
X12531Y3593D02*
X13532D01*
Y2693D02*
Y3593D01*
X14532Y2693D02*
Y3593D01*
X13532Y2693D02*
X14532D01*
X13532Y3593D02*
X14532D01*
Y2693D02*
Y3593D01*
X18543Y11841D02*
X19232D01*
X18543Y12047D02*
X19232D01*
X18543Y11841D02*
Y12047D01*
X19232Y11841D02*
Y12047D01*
X17835Y11545D02*
Y12234D01*
X17628Y11545D02*
Y12234D01*
Y11545D02*
X17835D01*
X17628Y12234D02*
X17835D01*
X18504Y22941D02*
X19404D01*
Y21941D02*
Y22941D01*
X18504Y21941D02*
Y22941D01*
Y21941D02*
X19404D01*
Y20941D02*
Y21941D01*
X18504Y20941D02*
Y21941D01*
Y19941D02*
Y20941D01*
X19404Y19941D02*
Y20941D01*
X18504D02*
X19404D01*
X18504Y19941D02*
X19404D01*
X18504Y18941D02*
Y19941D01*
X19404Y18941D02*
Y19941D01*
X18504D02*
X19404D01*
X18504Y18941D02*
X19404D01*
X18504Y17941D02*
Y18941D01*
X19404Y17941D02*
Y18941D01*
X18504D02*
X19404D01*
X18504Y17941D02*
X19404D01*
X18504Y15941D02*
X19404D01*
X18504Y16941D02*
X19404D01*
X18504Y17941D02*
X19404D01*
Y15941D02*
Y17941D01*
X18504Y15941D02*
Y17941D01*
X12697Y6388D02*
Y7077D01*
X12904Y6388D02*
Y7077D01*
X12697D02*
X12904D01*
X12697Y6388D02*
X12904D01*
X16939Y7205D02*
X17628D01*
X16939Y6998D02*
X17628D01*
Y7205D01*
X16939Y6998D02*
Y7205D01*
X4419Y19862D02*
Y20551D01*
X4213Y19862D02*
Y20551D01*
Y19862D02*
X4419D01*
X4213Y20551D02*
X4419D01*
X3297Y13415D02*
Y13829D01*
X4301Y13415D02*
Y13829D01*
X3297Y13415D02*
X4301D01*
X3297Y13829D02*
X4301D01*
X6878Y2693D02*
Y3593D01*
X4878D02*
X6878D01*
X4878Y2693D02*
X6878D01*
X5878D02*
Y3593D01*
X4878Y2693D02*
Y3593D01*
X9722Y2693D02*
Y3593D01*
X7722D02*
X9722D01*
X7722Y2693D02*
X9722D01*
X8722D02*
Y3593D01*
X7722Y2693D02*
Y3593D01*
X4016Y6673D02*
Y7933D01*
D12*
X19170Y9345D02*
D03*
D13*
X17751Y9564D02*
D03*
X17731Y12152D02*
D03*
X12800Y6470D02*
D03*
X4316Y20469D02*
D03*
D14*
X19150Y11944D02*
D03*
X17021Y7101D02*
D03*
D15*
X3410Y13622D02*
D03*
M02*
